<svg xmlns="http://www.w3.org/2000/svg" xmlns:xlink="http://www.w3.org/1999/xlink" viewBox="0 0 32 32" width="36" height="30" style="" filter="none">
    
    <g>
    <path d="M0 1.952v28.096h32v-28.096h-32zM30.752 3.2v1.568h-29.504v-1.568h29.504zM13.216 16.928v-5.12h5.28v5.12h-5.28zM18.496 17.856v5.216h-5.28v-5.216h5.28zM12.32 16.928h-5.184v-5.12h5.184v5.12zM19.392 11.808h5.184v5.12h-5.184v-5.12zM19.392 10.912v-5.216h5.184v5.216h-5.184zM18.496 10.912h-5.28v-5.216h5.28v5.216zM12.32 10.912h-5.184v-5.216h5.184v5.216zM6.208 10.912h-4.96v-5.216h4.96v5.216zM6.208 11.808v5.12h-4.96v-5.12h4.96zM6.208 17.856v5.216h-4.96v-5.216h4.96zM7.136 17.856h5.184v5.216h-5.184v-5.216zM12.32 23.968v4.832h-5.184v-4.832h5.184zM13.216 23.968h5.28v4.832h-5.28v-4.832zM19.392 23.968h5.184v4.832h-5.184v-4.832zM19.392 23.072v-5.216h5.184v5.216h-5.184zM25.504 17.856h5.248v5.216h-5.248v-5.216zM25.504 16.928v-5.12h5.248v5.12h-5.248zM25.504 10.912v-5.216h5.248v5.216h-5.248zM1.248 23.968h4.96v4.832h-4.96v-4.832zM25.504 28.8v-4.832h5.248v4.832h-5.248z" fill="rgba(15,64,245,1)"></path>
    </g>
  </svg>