<svg xmlns="http://www.w3.org/2000/svg" width="16.199" height="15.363" viewBox="0 0 16.199 15.363">
  <path id="路径_22994" data-name="路径 22994" d="M15.429,10.832a.557.557,0,0,1,.571.541v3.25a.557.557,0,0,1-.571.541H2.857a.557.557,0,0,1-.571-.541v-3.25a.557.557,0,0,1,.571-.541Zm-.572,1.082H3.43v2.167H14.858V11.915Zm-8.522.542a.561.561,0,0,1,.577.492.547.547,0,0,1-.474.583l-.1.009H5.173a.56.56,0,0,1-.576-.493.547.547,0,0,1,.474-.582l.1-.009H6.335ZM10.609,5.47a.592.592,0,0,1,.71.169l.053.083a.525.525,0,0,1-.178.673l-.935.645h4.6l.1.009a.547.547,0,0,1,.458.581.561.561,0,0,1-.561.493H10.311l.9.654.076.066a.521.521,0,0,1-.005.731.6.6,0,0,1-.769.061L8.223,7.966l-.082-.072A.524.524,0,0,1,8,7.477.537.537,0,0,1,8.235,7.1L10.52,5.52ZM6.286,5.416l.1.009a.551.551,0,0,1,.47.533l-.01.1a.564.564,0,0,1-.562.445H1.143V8.666H6.286l.1.009a.547.547,0,0,1,.458.58.56.56,0,0,1-.56.493H.57l-.1-.009A.551.551,0,0,1,0,9.208V5.958l.01-.1a.564.564,0,0,1,.561-.445H6.286ZM15.429,0A.557.557,0,0,1,16,.541v3.25a.557.557,0,0,1-.571.541H2.857a.557.557,0,0,1-.571-.541V.541A.557.557,0,0,1,2.857,0Zm-.572,1.083H3.43V3.25H14.858V1.083Zm-8.571.541a.56.56,0,0,1,.576.493.547.547,0,0,1-.474.582l-.1.009H5.143a.561.561,0,0,1-.584-.492.548.548,0,0,1,.481-.584l.1-.009Z" transform="translate(0.1 0.1)" fill="#2565fb" stroke="#2565fb" stroke-width="0.2"/>
</svg>
