<svg xmlns="http://www.w3.org/2000/svg" width="17.623" height="17.617" viewBox="0 0 17.623 17.617">
  <g id="组_23673" data-name="组 23673" transform="translate(16465.123 22423.545)">
    <g id="组_23665" data-name="组 23665" transform="translate(-16465.123 -22423.545)">
      <path id="路径_22941" data-name="路径 22941" d="M170.111,154.353H155.824a1.471,1.471,0,0,0-1.471,1.471v14.288a1.471,1.471,0,0,0,1.471,1.471h14.288a1.471,1.471,0,0,0,1.471-1.471V155.824A1.471,1.471,0,0,0,170.111,154.353Zm-14.288,1.261h14.288a.21.21,0,0,1,.21.21v14.288a.21.21,0,0,1-.21.21H155.824a.21.21,0,0,1-.21-.21V155.824A.21.21,0,0,1,155.824,155.614Z" transform="translate(-154.159 -154.159)" fill="#2665fb"/>
      <path id="路径_22941_-_轮廓" data-name="路径 22941 - 轮廓" d="M155.817,154.153H170.1a1.666,1.666,0,0,1,1.664,1.664V170.1a1.666,1.666,0,0,1-1.664,1.664H155.817a1.666,1.666,0,0,1-1.664-1.664V155.817A1.666,1.666,0,0,1,155.817,154.153Zm14.288,17.23a1.279,1.279,0,0,0,1.278-1.278V155.817a1.279,1.279,0,0,0-1.278-1.278H155.817a1.279,1.279,0,0,0-1.278,1.278V170.1a1.279,1.279,0,0,0,1.278,1.278Zm-14.288-15.969H170.1a.4.4,0,0,1,.4.4V170.1a.4.4,0,0,1-.4.4H155.817a.4.4,0,0,1-.4-.4V155.817A.4.4,0,0,1,155.817,155.414ZM170.1,170.122a.017.017,0,0,0,.017-.017V155.817a.017.017,0,0,0-.017-.017H155.817a.017.017,0,0,0-.017.017V170.1a.017.017,0,0,0,.017.017Z" transform="translate(-154.152 -154.152)" fill="#2665fb"/>
      <path id="路径_22942" data-name="路径 22942" d="M170.964,382.734a.63.63,0,0,1,.079,1.256l-.079,0H155a.63.63,0,0,1-.079-1.256l.079-.005Zm0,5.043a.63.63,0,0,1,.079,1.256l-.079,0H155a.63.63,0,0,1-.079-1.256l.079-.005Z" transform="translate(-154.171 -377.077)" fill="#2665fb"/>
      <path id="路径_22942_-_轮廓" data-name="路径 22942 - 轮廓" d="M170.963,382.534a.824.824,0,0,1,.1,1.641h-.012l-.09,0H154.988a.824.824,0,0,1-.1-1.64h.012l.092-.005Zm.056,1.257a.437.437,0,0,0-.056-.871H154.995l-.067,0a.437.437,0,0,0,.06.87h15.964Zm-.056,3.786a.824.824,0,0,1,.1,1.641h-.012l-.09,0H154.988a.824.824,0,0,1-.1-1.64h.012l.092-.005Zm.056,1.257a.437.437,0,0,0-.056-.871H154.995l-.066,0a.437.437,0,0,0,.06.87h15.964Z" transform="translate(-154.164 -377.07)" fill="#2665fb"/>
      <path id="路径_22943" data-name="路径 22943" d="M365.806,154.353a.631.631,0,0,1,.625.551l.005.079v15.969a.63.63,0,0,1-1.256.079l-.005-.079V154.983a.631.631,0,0,1,.63-.63Zm5.463,0a.631.631,0,0,1,.626.551l0,.079v15.969a.63.63,0,0,1-1.256.079l-.005-.079V154.983a.631.631,0,0,1,.63-.63Z" transform="translate(-359.941 -154.159)" fill="#2665fb"/>
      <path id="路径_22943_-_轮廓" data-name="路径 22943 - 轮廓" d="M365.8,154.153a.824.824,0,0,1,.817.72v.012l.005.092v15.969a.824.824,0,0,1-1.641.1v-.012l-.005-.092V154.977A.824.824,0,0,1,365.8,154.153Zm.433.763a.437.437,0,0,0-.433-.377h0a.438.438,0,0,0-.437.437v15.963l0,.067a.437.437,0,0,0,.87-.061V154.983Zm5.03-.763a.825.825,0,0,1,.818.72v.013l0,.09v15.969a.824.824,0,0,1-1.64.1v-.012l-.005-.092V154.977A.824.824,0,0,1,371.262,154.153Zm.434.762a.438.438,0,0,0-.434-.376h0a.438.438,0,0,0-.437.437v15.963l0,.066a.437.437,0,0,0,.87-.06V154.982Z" transform="translate(-359.934 -154.152)" fill="#2665fb"/>
    </g>
  </g>
</svg>
