<svg xmlns="http://www.w3.org/2000/svg" width="17" height="14.813" viewBox="0 0 17 14.813">
  <g id="组_23732" data-name="组 23732" transform="translate(16076.5 21666.986)">
    <g id="组_23731" data-name="组 23731" transform="translate(4.5 9.938)">
      <path id="路径_22997" data-name="路径 22997" d="M9.631,8.729a.567.567,0,1,1,0,1.133h-8.5v3.966h8.5a.567.567,0,0,1,0,1.133h-8.5A1.133,1.133,0,0,1,0,13.827V9.862A1.133,1.133,0,0,1,1.133,8.729h8.5Zm1.612.567a.419.419,0,0,1,.25.084l1.975,1.834a.518.518,0,0,1,.127.375.537.537,0,0,1-.067.292l-.06.084-1.975,1.779a.419.419,0,0,1-.567-.061.536.536,0,0,1-.058-.623l.057-.079,1.022-.905-3.571.012a.471.471,0,0,1-.445-.494.486.486,0,0,1,.356-.484l.091-.01,3.554-.011-1.006-.946a.533.533,0,0,1,0-.7.423.423,0,0,1,.317-.145Z" transform="translate(-16079.748 -21677.172)" fill="#2565fb" stroke="#2565fb" stroke-width="0.2"/>
      <text id="Excel" transform="translate(-16081 -21669.924)" fill="#2565fb" font-size="7" font-family="DIN-Bold, DIN" font-weight="700" letter-spacing="-0.02em"><tspan x="0" y="0">Excel</tspan></text>
    </g>
  </g>
</svg>
