<svg xmlns="http://www.w3.org/2000/svg" width="15.344" height="14.08" viewBox="0 0 15.344 14.08">
  <g id="组_23681" data-name="组 23681" transform="translate(16164.904 21989.582)">
    <path id="路径_22953" data-name="路径 22953" d="M8.174,11.37V13.9H6.986V11.37ZM4.943,9.686a.713.713,0,0,1,.725.667v2.618a.709.709,0,0,1-.695.695H.724A.713.713,0,0,1,0,13V10.381a.709.709,0,0,1,.695-.695H4.943Zm9.491-8.233a.713.713,0,0,1,.725.667V12a.709.709,0,0,1-.695.695h-4.25a.713.713,0,0,1-.725-.667V2.148a.709.709,0,0,1,.695-.695h4.25Zm-9.952,9.37h-3.3v1.705h3.3V10.823Zm9.49-8.233H10.678v8.97h3.3V2.59Zm-5.8,4.99v2.527H6.986V7.58ZM4.943,4.6a.713.713,0,0,1,.725.667V7.886a.709.709,0,0,1-.695.695H.724A.713.713,0,0,1,0,7.913V5.3A.709.709,0,0,1,.695,4.6ZM4.482,5.738h-3.3V7.443h3.3V5.738ZM8.174,3.79V6.317H6.986V3.79ZM4.943,0a.713.713,0,0,1,.725.667V3.285a.709.709,0,0,1-.695.695H.724A.713.713,0,0,1,0,3.312V.695A.709.709,0,0,1,.695,0ZM4.482,1.137h-3.3V2.842h3.3V1.137ZM8.174,0V2.527H6.986V0Z" transform="translate(-16164.813 -21989.49)" fill="#2565fb"/>
    <path id="路径_22953_-_轮廓" data-name="路径 22953 - 轮廓" d="M8.258,13.981H6.886V11.27H8.258ZM7.071,13.8h1V11.455h-1ZM.7,13.75A.806.806,0,0,1-.1,13V10.373a.8.8,0,0,1,.784-.787H4.936a.8.8,0,0,1,.817.755v2.622a.8.8,0,0,1-.785.787Zm-.619-.763a.621.621,0,0,0,.619.578H4.966a.614.614,0,0,0,.6-.6V10.345a.619.619,0,0,0-.633-.575H.687a.614.614,0,0,0-.6.6Zm10.109-.206a.806.806,0,0,1-.8-.754V2.14a.8.8,0,0,1,.784-.787h4.253a.8.8,0,0,1,.817.755v9.886a.8.8,0,0,1-.785.787Zm-.619-.763a.621.621,0,0,0,.619.578h4.264a.614.614,0,0,0,.6-.6V2.112a.619.619,0,0,0-.633-.575h-4.25a.614.614,0,0,0-.6.6Zm-5.008.594H1.086v-1.89H4.567Zm-3.3-.185H4.382V10.907H1.271Zm12.787-.784H10.578V2.49h3.479v9.154Zm-3.3-.185h3.111V2.674H10.762Zm-2.5-1.268H6.886V7.48H8.258Zm-1.188-.185h1V7.665h-1ZM.7,8.665a.806.806,0,0,1-.8-.754V5.288A.8.8,0,0,1,.684,4.5H4.936a.8.8,0,0,1,.817.755V7.878a.8.8,0,0,1-.785.787ZM.085,7.9A.621.621,0,0,0,.7,8.481H4.966a.614.614,0,0,0,.6-.6V5.26a.619.619,0,0,0-.633-.575H.687a.614.614,0,0,0-.6.6Zm4.482-.375H1.086V5.638H4.567Zm-3.3-.185H4.382V5.823H1.271ZM8.258,6.4H6.886V3.69H8.258ZM7.071,6.217h1V3.875h-1ZM.7,4.064a.806.806,0,0,1-.8-.754V.687A.8.8,0,0,1,.684-.1H4.936a.8.8,0,0,1,.817.755V3.277a.8.8,0,0,1-.785.787ZM.085,3.3A.621.621,0,0,0,.7,3.88H4.966a.614.614,0,0,0,.6-.6V.659A.619.619,0,0,0,4.936.085H.687a.614.614,0,0,0-.6.6Zm4.482-.375H1.086V1.037H4.567Zm-3.3-.185H4.382V1.222H1.271Zm6.987-.131H6.886V-.1H8.258ZM7.071,2.427h1V.085h-1Z" transform="translate(-16164.805 -21989.482)" fill="#2565fb"/>
  </g>
</svg>
