<svg xmlns="http://www.w3.org/2000/svg" width="16" height="15.813" viewBox="0 0 16 15.813">
  <g id="组_23699" data-name="组 23699" transform="translate(16081 21677.924)">
    <path id="路径_22997" data-name="路径 22997" d="M9.631,8.729a.567.567,0,1,1,0,1.133h-8.5v3.966h8.5a.567.567,0,0,1,0,1.133h-8.5A1.133,1.133,0,0,1,0,13.827V9.862A1.133,1.133,0,0,1,1.133,8.729h8.5Zm1.612.567a.419.419,0,0,1,.25.084l1.975,1.834a.518.518,0,0,1,.127.375.537.537,0,0,1-.067.292l-.06.084-1.975,1.779a.419.419,0,0,1-.567-.061.536.536,0,0,1-.058-.623l.057-.079,1.022-.905-3.571.012a.471.471,0,0,1-.445-.494.486.486,0,0,1,.356-.484l.091-.01,3.554-.011-1.006-.946a.533.533,0,0,1,0-.7.423.423,0,0,1,.317-.145Z" transform="translate(-16079.748 -21677.172)" fill="#2565fb"/>
    <path id="路径_22997_-_轮廓" data-name="路径 22997 - 轮廓" d="M1.133,8.629h8.5a.667.667,0,1,1,0,1.333h-8.4v3.766h8.4a.667.667,0,1,1,0,1.333h-8.5A1.234,1.234,0,0,1-.1,13.827V9.862A1.234,1.234,0,0,1,1.133,8.629Zm8.5,1.133a.467.467,0,1,0,0-.933h-8.5A1.034,1.034,0,0,0,.1,9.862v3.966A1.034,1.034,0,0,0,1.133,14.86h8.5a.467.467,0,1,0,0-.933h-8.6V9.762ZM11.243,9.2h0a.523.523,0,0,1,.31.1l.008.007,1.982,1.842a.614.614,0,0,1,.152.441.636.636,0,0,1-.08.341l-.006.01-.074.1-1.982,1.785a.519.519,0,0,1-.7-.076.635.635,0,0,1-.069-.739l0-.007.063-.089.832-.737-3.306.012a.572.572,0,0,1-.546-.594.587.587,0,0,1,.433-.581l.011,0,.1-.011,3.3-.011-.83-.781a.635.635,0,0,1,0-.833A.523.523,0,0,1,11.243,9.2Zm.187.261a.321.321,0,0,0-.187-.061h0A.323.323,0,0,0,11,9.506a.434.434,0,0,0,0,.566l1.185,1.115-3.8.012-.079.009a.387.387,0,0,0-.273.385.372.372,0,0,0,.345.394l3.836-.013L11,13.047l-.047.066a.436.436,0,0,0,.049.5.319.319,0,0,0,.428.049L13.393,11.9l.05-.07a.436.436,0,0,0,.052-.233v-.012a.415.415,0,0,0-.1-.3Z" transform="translate(-16079.748 -21677.172)" fill="#2565fb"/>
    <text id="hdfs" transform="translate(-16081 -21669.924)" fill="#2565fb" font-size="8" font-family="DIN-Bold, DIN" font-weight="700" letter-spacing="-0.02em"><tspan x="0" y="0">hdfs</tspan></text>
  </g>
</svg>
