<svg xmlns="http://www.w3.org/2000/svg" width="15.512" height="15.082" viewBox="0 0 15.512 15.082">
  <path id="路径_22957" data-name="路径 22957" d="M133.782,149.484l2.68,2.68a.256.256,0,0,1,.026.332l-.026.03-2.68,2.68a.263.263,0,0,1-.366,0l-.853-.853a.263.263,0,0,1,0-.366l.784-.784h-.177a3.446,3.446,0,0,0-3.447,3.447v.6a.259.259,0,0,1-.259.259h-1.206a.259.259,0,0,1-.259-.259v-.6a5.169,5.169,0,0,1,5.171-5.171h.177l-.784-.784a.263.263,0,0,1,0-.366l.853-.853a.263.263,0,0,1,.366,0Zm2.835,10.018v4.654a.259.259,0,0,1-.259.259h-8.1a.259.259,0,0,1-.259-.259V159.5a.259.259,0,0,1,.259-.259h8.1A.259.259,0,0,1,136.618,159.5Zm-1.724,1.465h-5.171v1.724h5.171Zm8.618-11.375v14.564a.259.259,0,0,1-.259.259H138.6a.259.259,0,0,1-.259-.259V149.592a.259.259,0,0,1,.259-.259h4.654A.259.259,0,0,1,143.512,149.592Zm-1.724,1.465h-1.724V162.69h1.724Z" transform="translate(-128 -149.332)" fill="#2666fb"/>
</svg>
