<svg xmlns="http://www.w3.org/2000/svg" width="15.512" height="14.352" viewBox="0 0 15.512 14.352">
  <g id="组_23679" data-name="组 23679" transform="translate(-128.621 -157.379)">
    <path id="路径_22928" data-name="路径 22928" d="M132.121,171.828c-.03,0-.061,0-.091,0a1.6,1.6,0,0,1-1.2-.645l-1.849-2.029a1.356,1.356,0,0,1,.04-1.873l3.045-3.065,2.752,2.268,6.838-8.657a.906.906,0,0,1,1.422,1.123l-9.707,12.285A1.605,1.605,0,0,1,132.121,171.828Zm-1.513-3.581,1.505,1.651,1.578-2-1.505-1.24Z" transform="translate(0 -0.098)" fill="#2666fb"/>
    <path id="路径_22929" data-name="路径 22929" d="M182.527,171.73a1.59,1.59,0,0,1-1.23-.577l-9.723-12.307A.906.906,0,0,1,173,157.724l6.838,8.657,2.751-2.268,3.045,3.065a1.36,1.36,0,0,1,.04,1.873l-1.849,2.029a1.6,1.6,0,0,1-1.2.647l-.091,0Zm-1.57-3.929,1.578,2,1.5-1.649-1.576-1.588Z" transform="translate(-41.893)" fill="#2666fb"/>
  </g>
</svg>
