<svg xmlns="http://www.w3.org/2000/svg" width="14.756" height="15.953" viewBox="0 0 14.756 15.953">
  <g id="组_23690" data-name="组 23690" transform="translate(16530.402 22019.064)">
    <g id="组_23687" data-name="组 23687" transform="translate(-16746.402 -22211.064)">
      <path id="路径_22963" data-name="路径 22963" d="M228.762,207.952H217.994A2,2,0,0,1,216,205.958V193.994A2,2,0,0,1,217.994,192h10.768a2,2,0,0,1,1.994,1.994v11.964A2,2,0,0,1,228.762,207.952ZM217.994,193.5a.5.5,0,0,0-.5.5v11.964a.5.5,0,0,0,.5.5h10.768a.5.5,0,0,0,.5-.5V193.994a.5.5,0,0,0-.5-.5Z" transform="translate(0 0)" fill="#2565fb"/>
      <path id="路径_22964" data-name="路径 22964" d="M237,322h13.559v1.5H237Z" transform="translate(-20.477 -126.76)" fill="#2565fb"/>
      <path id="路径_22965" data-name="路径 22965" d="M311.047,429.047m-1.047,0A1.047,1.047,0,1,0,311.047,428,1.047,1.047,0,0,0,310,429.047Z" transform="translate(-91.657 -230.118)" fill="#2565fb"/>
      <path id="路径_22966" data-name="路径 22966" d="M471.047,429.047m-1.047,0A1.047,1.047,0,1,0,471.047,428,1.047,1.047,0,0,0,470,429.047Z" transform="translate(-247.669 -230.118)" fill="#2565fb"/>
      <path id="路径_22967" data-name="路径 22967" d="M631.047,429.047m-1.047,0A1.047,1.047,0,1,0,631.047,428,1.047,1.047,0,0,0,630,429.047Z" transform="translate(-403.681 -230.118)" fill="#2565fb"/>
      <path id="路径_22968" data-name="路径 22968" d="M311.047,553.047m-1.047,0A1.047,1.047,0,1,0,311.047,552,1.047,1.047,0,0,0,310,553.047Z" transform="translate(-91.657 -351.027)" fill="#2565fb"/>
      <path id="路径_22969" data-name="路径 22969" d="M471.047,553.047m-1.047,0A1.047,1.047,0,1,0,471.047,552,1.047,1.047,0,0,0,470,553.047Z" transform="translate(-247.669 -351.027)" fill="#2565fb"/>
      <path id="路径_22970" data-name="路径 22970" d="M631.047,553.047m-1.047,0A1.047,1.047,0,1,0,631.047,552,1.047,1.047,0,0,0,630,553.047Z" transform="translate(-403.681 -351.027)" fill="#2565fb"/>
    </g>
  </g>
</svg>
