<svg xmlns="http://www.w3.org/2000/svg" width="15.518" height="15.518" viewBox="0 0 15.518 15.518">
  <g id="组_23678" data-name="组 23678" transform="translate(16457.896 21992.316)">
    <path id="路径_22930" data-name="路径 22930" d="M5.035,0A1.259,1.259,0,0,1,6.294,1.259V2.5H5.035V1.26H1.259V13.845H5.035V12.59H6.294v1.256a1.259,1.259,0,0,1-1.259,1.259H1.259A1.259,1.259,0,0,1,0,13.846V1.259A1.259,1.259,0,0,1,1.259,0Zm8.811,0A1.259,1.259,0,0,1,15.1,1.259V13.846A1.259,1.259,0,0,1,13.846,15.1H10.07a1.259,1.259,0,0,1-1.259-1.259V12.59H10.07v1.256h3.776V1.26H10.07V2.519H8.811V1.259A1.259,1.259,0,0,1,10.07,0Zm-1.26,8.186V9.442H3.778l1.259,2.518H3.776L2.515,9.442V8.186h10.07ZM11.327,3.148l1.259,2.519V6.923H2.516V5.667h8.811L10.069,3.149h1.259Z" transform="translate(-16457.691 -21992.111)" fill="#2666fb"/>
    <path id="路径_22930_-_轮廓" data-name="路径 22930 - 轮廓" d="M1.265-.2H5.041A1.467,1.467,0,0,1,6.507,1.265V2.714H4.835V1.473H1.472V13.645H4.835V12.39H6.507v1.463a1.467,1.467,0,0,1-1.465,1.465H1.265A1.467,1.467,0,0,1-.2,13.853V1.265A1.467,1.467,0,0,1,1.265-.2ZM6.094,2.3V1.265A1.054,1.054,0,0,0,5.041.213H1.265A1.054,1.054,0,0,0,.213,1.265V13.853A1.054,1.054,0,0,0,1.265,14.9H5.041a1.054,1.054,0,0,0,1.052-1.052V12.8H5.248v1.255H1.059v-13H5.248V2.3ZM10.076-.2h3.776a1.467,1.467,0,0,1,1.465,1.465V13.853a1.467,1.467,0,0,1-1.465,1.465H10.076a1.467,1.467,0,0,1-1.465-1.465V12.39h1.672v1.256h3.363V1.473H10.283V2.732H8.611V1.265A1.467,1.467,0,0,1,10.076-.2Zm0,15.1h3.776A1.054,1.054,0,0,0,14.9,13.853V1.265A1.054,1.054,0,0,0,13.853.213H10.076A1.054,1.054,0,0,0,9.024,1.265V2.319H9.87V1.06h4.189v13H9.87V12.8H9.024v1.05A1.054,1.054,0,0,0,10.076,14.9ZM9.741,2.949h1.593v.156l.185-.043L12.8,5.625V7.136H2.316V5.467H11Zm1.466.413h-.8L11.668,5.88H2.729v.843h9.657v-1ZM2.315,7.986H12.8V9.655H4.118l1.259,2.518H3.655L2.315,9.5ZM12.386,8.4H2.728v1l1.182,2.36h.8L3.45,9.242h8.936Z" transform="translate(-16457.697 -21992.117)" fill="#2666fb"/>
  </g>
</svg>
