<svg xmlns="http://www.w3.org/2000/svg" width="15" height="14.875" viewBox="0 0 15 14.875">
  <path id="路径_22956" data-name="路径 22956" d="M128.741,139.677a.713.713,0,0,1-.741-.741v-13.4a.713.713,0,0,1,.741-.741h13.4a.713.713,0,0,1,.741.741v4.074a.713.713,0,0,1-.741.741h-8.58v8.58a.713.713,0,0,1-.741.741Zm.741-1.481h2.593V126.281h-2.593Zm4.074-9.321H141.4v-2.593h-7.839Zm2.84,9.136h.062a3.2,3.2,0,0,0,3.21-3.086h-1.728v-.556l2.531-2.9,2.531,2.9v.556h-1.728a4.825,4.825,0,0,1-4.815,4.63Z" transform="translate(-128 -124.801)" fill="#2666fb"/>
</svg>
