<svg xmlns="http://www.w3.org/2000/svg" width="16.857" height="16.217" viewBox="0 0 16.857 16.217">
  <path id="路径_22955" data-name="路径 22955" d="M4.96,2.783a.568.568,0,0,0,.391.158.552.552,0,0,0,.51-.327.515.515,0,0,0-.121-.578L3.772.174C3.745.148,3.717.13,3.688.1h-.01A.253.253,0,0,0,3.586.059q-.051-.012-.1-.026H3.473a.138.138,0,0,0-.092-.02.378.378,0,0,0-.1.009H3.27q-.047.011-.093.026a.353.353,0,0,0-.1.044h-.01a.591.591,0,0,0-.082.071L1.013,2.037a.515.515,0,0,0,0,.746.59.59,0,0,0,.789,0l1.022-.966V13.993L1.8,13.024a.59.59,0,0,0-.789,0,.515.515,0,0,0,0,.747l1.968,1.863a.44.44,0,0,0,.084.062h.01a.273.273,0,0,0,.093.044l.1.026h.01a.378.378,0,0,0,.1.009.383.383,0,0,0,.1-.009.591.591,0,0,0,.1-.026H3.6A.444.444,0,0,0,3.69,15.7a.739.739,0,0,0,.093-.062l1.958-1.863a.515.515,0,0,0,0-.747.59.59,0,0,0-.789,0l-1.022.968V1.816l1.03.966ZM16.753,0H7.839a.544.544,0,0,0-.558.527v3.2a.545.545,0,0,0,.558.527h8.913a.544.544,0,0,0,.557-.527V.527A.544.544,0,0,0,16.753,0Zm-.558,3.2H8.4V1.054h7.8V3.2ZM14.618,5.733H7.838a.544.544,0,0,0-.558.527v3.2a.545.545,0,0,0,.558.527h6.777a.545.545,0,0,0,.558-.527V6.26a.545.545,0,0,0-.558-.527Zm-.558,3.2H8.4V6.787H14.06ZM12.016,11.52H7.839a.544.544,0,0,0-.558.527v3.244a.545.545,0,0,0,.558.527h4.177a.545.545,0,0,0,.558-.527V12.048a.545.545,0,0,0-.558-.527Zm-.557,3.244H8.4V12.576H11.46v2.188Z" transform="translate(-0.652 0.199)" fill="#2666fb" stroke="#2666fb" stroke-width="0.4"/>
</svg>
