<svg xmlns="http://www.w3.org/2000/svg" width="14.418" height="15.385" viewBox="0 0 14.418 15.385">
  <path id="路径_22958" data-name="路径 22958" d="M61.647,13.482h3.53a.675.675,0,1,1,0,1.349H61.294a1.036,1.036,0,0,1-1.059-1.01V1.01A1.036,1.036,0,0,1,61.294,0h12a1.036,1.036,0,0,1,1.059,1.01V5.393a.707.707,0,0,1-1.412,0V1.348h-11.3V13.482ZM63.765,3.036h7.06a.689.689,0,0,1,.705.673.658.658,0,0,1-.207.477.722.722,0,0,1-.5.2h-7.06a.69.69,0,0,1-.705-.673v0a.691.691,0,0,1,.706-.674Zm0,2.7h4.942a.69.69,0,0,1,.706.674.679.679,0,0,1-.211.481.7.7,0,0,1-.495.193H63.765a.674.674,0,1,1,0-1.348ZM69.13,8.915l1.93,1.9,1.93-1.9a.762.762,0,0,1,.981-.071l.085.071a.734.734,0,0,1,0,1.048l-1.931,1.9,1.931,1.9a.734.734,0,0,1,0,1.049.761.761,0,0,1-1.065,0l-1.931-1.9-1.93,1.9a.762.762,0,0,1-.981.071l-.085-.071a.734.734,0,0,1,0-1.048L70,11.865l-1.931-1.9a.734.734,0,0,1,0-1.049.761.761,0,0,1,1.065,0Z" transform="translate(-60.086 0.15)" fill="#2666fb" stroke="#2666fb" stroke-width="0.3"/>
</svg>
