<svg xmlns="http://www.w3.org/2000/svg" width="16" height="15.564" viewBox="0 0 16 15.564">
  <g id="组_23686" data-name="组 23686" transform="translate(-9.992 -9.145)">
    <path id="路径_22974" data-name="路径 22974" d="M25.17,14.182V9.945a.814.814,0,0,0-.828-.8H10.821a.814.814,0,0,0-.828.8V23.909a.814.814,0,0,0,.828.8H24.342a.814.814,0,0,0,.828-.8V20.791H23.791V22.71a.524.524,0,0,1-.162.377.562.562,0,0,1-.391.156H11.952a.562.562,0,0,1-.39-.156.524.524,0,0,1-.161-.377V11.17a.542.542,0,0,1,.552-.533H23.238a.543.543,0,0,1,.552.533V13.09H25.17v1.093Z" transform="translate(0)" fill="#2565fb"/>
    <path id="路径_22975" data-name="路径 22975" d="M501.654,465.427a.682.682,0,0,0,.707.719h4.25l-1.4,1.284a.7.7,0,0,0-.251.5.737.737,0,0,0,.707.762.7.7,0,0,0,.505-.212l2.789-2.493a.868.868,0,0,0,.215-.563.667.667,0,0,0-.647-.708h-6.17a.663.663,0,0,0-.706.708Z" transform="translate(-483.185 -448.395)" fill="#2565fb"/>
    <path id="路径_22976" data-name="路径 22976" d="M501.654,294.048a.682.682,0,0,1,.707-.719h4.25l-1.4-1.285a.7.7,0,0,1-.251-.5.737.737,0,0,1,.707-.761.7.7,0,0,1,.505.212l2.789,2.493a.87.87,0,0,1,.215.563.667.667,0,0,1-.647.708h-6.17a.663.663,0,0,1-.706-.708Z" transform="translate(-483.185 -277.197)" fill="#2565fb"/>
    <path id="路径_22977" data-name="路径 22977" d="M871.669,220.587a.623.623,0,0,0,.57-.336.743.743,0,0,0,0-.706.623.623,0,0,0-.57-.336.7.7,0,0,0,0,1.379Zm-.633,7.311a.707.707,0,0,0,.309.621.59.59,0,0,0,.648,0,.707.707,0,0,0,.309-.621.634.634,0,1,0-1.266,0Z" transform="translate(-847.133 -206.972)" fill="#2565fb"/>
    <path id="路径_22978" data-name="路径 22978" d="M192.547,465.5h3.04v1.419h-3.04Z" transform="translate(-179.584 -449.252)" fill="#2565fb"/>
    <path id="路径_22979" data-name="路径 22979" d="M192.547,236.473h5.269v1.418h-5.269Z" transform="translate(-179.517 -223.791)" fill="#2565fb"/>
    <path id="路径_22980" data-name="路径 22980" d="M192.547,694.555h5.269v1.418h-5.269Z" transform="translate(-179.517 -674.747)" fill="#2565fb"/>
  </g>
</svg>
