<?xml version="1.0" standalone="no"?><!DOCTYPE svg PUBLIC "-//W3C//DTD SVG 1.1//EN" "http://www.w3.org/Graphics/SVG/1.1/DTD/svg11.dtd"><svg t="1757314873479" class="icon" viewBox="0 0 1024 1024" version="1.1" xmlns="http://www.w3.org/2000/svg" p-id="5543" xmlns:xlink="http://www.w3.org/1999/xlink" width="200" height="200"><path d="M405.034936 6.863821a39.059477 39.059477 0 0 1-19.216512 6.780929 16.290596 16.290596 0 0 0-12.744224 4.163302 28.002373 28.002373 0 0 1-15.004887 6.732251 252.564209 252.564209 0 0 0-51.386419 21.271179c-3.649017 2.31463-15.827811 8.326603-27.285973 14.030287a446.570948 446.570948 0 0 0-81.807125 58.166996c0 1.800347 27.285973 30.36956 60.481625 64.130996 81.498485 81.807126 86.636386 92.185573 88.588055 179.18492 1.286063 50.357498 0.514284 66.493951-5.446189 77.386683-5.960826 11.921652-11.407015 24.151592-16.853558 36.330386a427.856375 427.856375 0 0 1-58.221316 90.336902 711.070566 711.070566 0 0 1-100.509354 97.634937c-88.128091 70.91122-120.448968 115.054277-119.423222 164.431533 0.514284 33.249621 18.190766 59.972986 60.481626 92.188042a375.078779 375.078779 0 0 0 133.964971 64.899247 1185.906673 1185.906673 0 0 0 258.625917 39.467942 95.305845 95.305845 0 0 0 30.112418-51.954671 5.142134 5.142134 0 0 1 4.674763-4.675117c2.880413 0 4.423618-3.131912 4.423618-6.732252a224.602401 224.602401 0 0 1 21.013685-53.749373 61.546172 61.546172 0 0 0 6.47511-18.190767 57.615322 57.615322 0 0 1 5.960473-16.853557 799.29319 799.29319 0 0 0 44.137061-264.072106 262.096452 262.096452 0 0 0-13.767501-87.770774c-7.246536-7.806675-14.544571 16.859201-11.921299 39.982226 3.646196 32.73569-1.286063 38.690519-20.556896 24.917374-30.112066-21.271179-44.656989-29.077854-48.560326-24.917374-3.131559 3.646196 21.276823 24.917374 29.083497 25.694797 10.281446 0 34.0214 14.538927 32.221406 19.476476a208.092052 208.092052 0 0 1-45.422418 28.312424c-17.144914 8.320959-33.707115 17.785124-49.588895 28.312072-7.892389 6.303682-18.702228 7.520962-27.80061 3.131912-1.286063-1.794703 0.514284-9.092385 4.163302-16.339274a147.835822 147.835822 0 0 0 5.137548-74.506269c-5.137548-5.143545-12.178441 6.732252-12.178441 20.551252a303.822587 303.822587 0 0 1-18.190766 74.511913c-1.800347 2.308634-11.407015-5.96647-21.016859-17.682126-36.895816-44.908487-42.856642-49.583251-42.856643-32.729694a104.404931 104.404931 0 0 0 34.018578 49.074611c6.732252 0 17.41934 18.70505 12.744224 22.86553a147.883794 147.883794 0 0 1-30.832345 10.892731 457.599129 457.599129 0 0 0-81.292842 30.832345c-6.732252 5.446189-25.691622 4.674763-25.691622-1.794702a52.041443 52.041443 0 0 1 10.27545-19.225331c28.312072-37.404457 52.720806-113.968214 25.694444-79.952458a729.646517 729.646517 0 0 0-56.52679 95.011665c-2.311809 6.732252-5.960473 9.606669-12.744224 8.583745-8.323781-1.028568-10.892731-6.217968-16.339273-32.221053-6.47511-30.832345-15.056033-39.462298-20.554074-20.556896-5.02926 15.682133-3.529088 32.72405 4.163301 47.274264a39.699687 39.699687 0 0 1 6.72943 21.019681c0 12.178441-1.025746 12.744577-21.016859 12.744577a88.761599 88.761599 0 0 0-29.597781 4.674763 123.348076 123.348076 0 0 1-27.80061 9.098382 118.940684 118.940684 0 0 0-57.398391 22.351245c-3.646196 10.892731 42.856642 4.166476 92.188395-14.030286 19.473654-6.732252 43.110963-10.27545 43.110962-5.137549a67.825516 67.825516 0 0 1-14.027465 19.219334c-33.761083 36.896169-70.860073 93.988741-65.413531 99.943924a294.00322 294.00322 0 0 0 60.481626-64.642458 52.630859 52.630859 0 0 1 15.056386-16.853205c2.311809 0 4.160479-2.617628 4.160479-5.960826a50.902823 50.902823 0 0 1 10.895553-18.70505l10.27545-13.773145 19.991113 20.556896a312.301217 312.301217 0 0 0 41.828074 35.558608c21.016859 14.030287 24.151592 23.123024 8.580923 23.123024a129.353346 129.353346 0 0 0-25.948764 6.217968c-10.278271 3.652192-30.36956 10.281093-45.428415 14.544571a163.764163 163.764163 0 0 0-34.015756 13.773145 41.671461 41.671461 0 0 1-17.676482 7.240539 17.749851 17.749851 0 0 0-13.258861 6.732252c-2.311809 8.326955 17.41934 7.246889 45.939877-1.28571 13.256039-3.646196 35.044324-10.275802 48.559974-14.53928a193.105508 193.105508 0 0 0 34.018578-13.258508c9.864164-6.47511 29.598134-8.321312 29.598134-2.308987a140.034438 140.034438 0 0 1-16.856379 26.717369c-9.609843 12.744577-22.86553 32.729693-29.598135 44.137061-13.770323 23.128315-24.665876 26.46587-50.357498 14.544218-8.326603-3.137555-25.951586-10.892731-39.464767-16.338921a103.442677 103.442677 0 0 1-30.112419-16.344917 154.898232 154.898232 0 0 0-42.290859-29.134997 180.629713 180.629713 0 0 1-44.654167-50.355029 57.05095 57.05095 0 0 1-8.429601-42.136363 68.096767 68.096767 0 0 1 6.47511-30.832345 18.604521 18.604521 0 0 0 5.497688-10.281093c0-17.670839 70.862895-76.358114 123.586523-103.075483a203.910409 203.910409 0 0 0 26.463049-15.419347 327.321271 327.321271 0 0 1 87.356665-41.107795 50.750795 50.750795 0 0 0 22.351246-9.092385 17.976305 17.976305 0 0 1 11.407015-6.474757 76.340831 76.340831 0 0 0 23.125847-9.098382 98.294547 98.294547 0 0 1 21.788284-9.092385 112.040531 112.040531 0 0 0 23.122672-8.584097 264.430482 264.430482 0 0 1 38.179057-14.024643 279.841717 279.841717 0 0 0 31.960737-10.892731 917.182379 917.182379 0 0 1 115.825703-36.898639 523.075447 523.075447 0 0 0 52.211813-16.856379 179.371516 179.371516 0 0 1 29.592491-8.580923c10.281093-2.311809 31.398128-6.72943 47.788548-10.892731 63.104897-15.416173 138.748728-30.832345 193.16653-39.207625 32.215409-5.137548 43.108141-9.866985 43.108141-19.476477a428.053199 428.053199 0 0 0-93.211319-99.943571 642.669744 642.669744 0 0 0-215.826418-95.83459c-18.699759-4.163301-44.137061-10.278271-56.881285-13.773145A299.576746 299.576746 0 0 0 567.463301 188.35914a1078.188526 1078.188526 0 0 1-50.097535-9.095207 334.241529 334.241529 0 0 0-50.103178-6.217968 212.6744 212.6744 0 0 1-51.383245-9.09556 103.290297 103.290297 0 0 0-35.561429-6.472288 82.219823 82.219823 0 0 1-29.083498-5.449364 86.936914 86.936914 0 0 0-32.732515-5.446189 64.176146 64.176146 0 0 1-28.314894-3.649018 271.147567 271.147567 0 0 0-35.558607-8.580922c-14.541749-2.877591-21.788637-9.609843-21.788638-21.016859 0-2.311809 9.609843-9.609843 21.019681-16.339274l20.551252-12.178794 9.098029 10.892732c8.066639 10.27545 8.581276 10.27545 5.960826 1.286062-1.543205-11.41019 25.948764-42.342359 39.719087-42.342358a14.64898 14.64898 0 0 0 11.458514-4.163302 27.034828 27.034828 0 0 1 15.058855-6.732252 226.646133 226.646133 0 0 0 31.961089-12.22994c27.285973-13.256039 33.761083-10.27545 39.979051 16.342096a159.218146 159.218146 0 0 0 11.407015 32.732515c11.407015 17.676482 1.286063 20.554074-38.693341 10.278271a172.29535 172.29535 0 0 0-90.902332-5.140723c-1.286063 2.877591 5.137548 5.960826 14.541749 7.246536 9.4042 1.282888 27.285973 5.960473 39.464767 9.609843a209.555186 209.555186 0 0 0 49.07461 6.47511c19.473654 0 27.285973 1.797525 29.083498 6.729431 1.797172 3.649017 5.137548 6.732252 8.066639 6.732251a63.247048 63.247048 0 0 1 17.41934 18.190767c6.732252 10.278624 15.058855 18.190766 17.676482 18.190766 5.963648 0 2.31463-12.178441-11.921299-43.625247a597.693179 597.693179 0 0 1-28.312072-71.940493C438.282088 20.121271 427.389357 0.13298 420.914247 0.13298a32.812938 32.812938 0 0 0-15.827812 6.732252h-0.051499zM310.535086 172.272775a30.11912 30.11912 0 0 1 10.278271 24.923018c0 9.095559-1.025746 16.342095-2.311809 16.342096a317.258166 317.258166 0 0 1-42.342358-45.939877c-3.134733-7.555177 24.923018-3.903338 34.53004 4.674763h-0.154144z m79.443818 12.487082a175.399396 175.399396 0 0 1 36.330033 10.895906c2.311809 1.797172-5.960473 9.609843-18.190766 16.853558a324.951967 324.951967 0 0 0-35.044324 25.948764c-15.827811 15.058855-22.86553 13.258861-24.665876-6.72943a51.843913 51.843913 0 0 0-7.812319-22.35442 40.59598 40.59598 0 0 1-7.243714-28.569214c1.282888-5.137901 21.274001-3.906159 56.523968 3.903337l0.102998 0.051499z m64.130643 18.962545a368.24882 368.24882 0 0 1 10.278271 43.628069c5.446542 27.283504 6.215146 41.108148 3.131912 44.139883-3.080413 3.031736-16.338921 0.771426-42.856643-7.246536l-43.625246-14.027465c-10.892731-2.877591-5.960826-9.609843 22.868704-31.963911a230.948764 230.948764 0 0 0 34.015756-30.112418c6.474757-8.578101 12.744224-10.27545 16.342095-4.417622h-0.154849z m86.996173 8.323781A318.577386 318.577386 0 0 0 585.248425 218.521293c20.551252 0 18.699759 8.323781-4.166123 18.190766a299.49597 299.49597 0 0 0-69.06008 39.464767c-10.895553 8.324134-21.274001 13.773145-23.637308 12.178794a66.468907 66.468907 0 0 1-4.163302-30.112418 56.063299 56.063299 0 0 0-7.246535-35.970246 15.881074 15.881074 0 0 1-4.417622-15.416173c2.62045-7.552355 5.703331-7.552355 68.548265 5.137548v0.051852z m80.775736 38.950483a116.869791 116.869791 0 0 1-8.578101 26.466223 421.303663 421.303663 0 0 0-22.351246 53.23509c-2.371773 9.38092-11.898372 15.064498-21.282466 12.692725a17.478599 17.478599 0 0 1-5.440899-2.417628 338.204126 338.204126 0 0 0-34.015756-18.190766 164.639997 164.639997 0 0 1-27.800257-15.413351 356.158562 356.158562 0 0 1 43.625247-28.572036c23.637308-14.541749 48.560327-30.112418 55.54972-34.018225 18.962192-11.921652 23.379814-10.635589 20.247902 6.217616h0.045856z m50.360673-9.864163a612.982015 612.982015 0 0 1 110.893798 39.976229c1.280066 4.677938-22.871526 14.544571-35.558961 14.544571a473.931348 473.931348 0 0 0-116.854271 39.976229c-8.326603 4.163301-15.824637 5.960826-17.676482 4.163301 0.903348-10.409841 4.446193-20.416508 10.275802-29.08632a123.363243 123.363243 0 0 0 14.030287-49.071788c0.514284-12.178441 1.028568-23.125846 1.286062-24.151592 0.765782-2.877591 21.013684-0.514284 33.758262 3.649017h-0.154497z m-256.26014 67.314054a149.234054 149.234054 0 0 1 28.569213 10.278624c2.311809 1.286063-5.960473 10.892731-18.190766 20.554074s-27.286326 23.637308-34.018578 30.832345c-15.056033 15.827811-19.473654 13.256039-19.988291-12.178794a261.845306 261.845306 0 0 0-4.160479-41.110617l-3.651839-21.733964 13.258508 2.877592c7.246536 1.797525 24.665876 6.217968 38.181879 10.275449v0.205291z m383.75-4.16048c2.308987 3.649017-13.258861 26.463048-24.666229 36.892995-1.28571 1.286063-13.773145 16.342095-27.283151 34.018225-13.516003 17.676482-27.803432 34.532862-30.832345 37.664773a116.507182 116.507182 0 0 0-12.178794 19.476829c-9.098029 17.41934-17.41934 16.853557-30.112066-1.797525a214.223601 214.223601 0 0 0-48.302831-47.277086c-21.019681-13.770323-13.258861-21.016859 38.696163-37.407631 26.717368-8.580923 57.395569-19.219334 67.774017-23.637308a91.007799 91.007799 0 0 1 25.694796-8.580923 19.445436 19.445436 0 0 0 12.178442-6.732252c6.474757-7.555177 25.694797-8.838418 29.340639-2.62045h-0.308641z m124.918089 71.94014c13.258861 12.741755 22.871526 24.920196 21.271531 27.80061a80.66392 80.66392 0 0 1-36.890172 5.137548 263.84283 263.84283 0 0 0-53.235443 4.674764c-10.892731 2.31463-44.913778 10.278624-76.363406 17.676482a573.505608 573.505608 0 0 1-58.166995 11.921652 150.540575 150.540575 0 0 1 24.151592-27.797788 342.945909 342.945909 0 0 0 65.927816-93.985919c1.257139-5.746365 4.709331-10.775624 9.612665-14.027465 9.092385-6.217968 11.921652-5.140723 44.651345 19.473654 18.962192 14.541749 45.165629 36.587176 58.938774 49.331753l0.102293-0.205291z m-404.049402-27.388971c30.36956 14.027465 35.970246 26.463048 15.058854 31.398129a248.711665 248.711665 0 0 0-58.169817 29.083497 53.436148 53.436148 0 0 1-19.216512 8.581276c-5.960473 0.514284-2.880413-15.827811 6.217968-29.08632a47.641106 47.641106 0 0 0 5.960473-21.785463c0-16.342095 7.243714-30.36956 15.82499-30.36956a136.152617 136.152617 0 0 1 34.278541 12.178794h0.045503z m-63.613538 2.620097a363.815325 363.815325 0 0 1-41.107795 89.565124c-4.369297 2.363308-12.641579-1.282888-24.923018-12.178442l-18.190766-15.416172 31.961089-28.312072c17.422162-15.416173 34.532862-31.963911 38.179057-35.970246 6.732252-8.069461 14.030287-6.732252 14.030287 2.311808h0.051146z m187.971487 82.218765c22.351246 19.473654 24.665876 30.112418 6.732252 30.112418a698.23957 698.23957 0 0 0-132.678908 41.107795c-37.410453 15.058855-50.36032 13.258861-30.11524-4.163302a675.519013 675.519013 0 0 0 80.469916-93.728777l14.544571-21.271179 19.476829 14.027465c10.635589 7.809497 29.340992 22.86553 41.519434 33.761083l0.051146 0.154497z m-101.749561-29.495137a671.874934 671.874934 0 0 1-64.127822 81.238521 36.026331 36.026331 0 0 0-8.581275 13.773145 60.503495 60.503495 0 0 1-9.095207 13.770323c-10.27545 12.181616-18.190766 9.609843-18.190766-5.137549a39.353304 39.353304 0 0 0-7.243714-20.554074c-11.921299-17.162198-6.47511-29.083498 18.702228-42.342358a663.047804 663.047804 0 0 0 63.619181-35.970247c15.053211-9.352701 24.917374-11.407015 24.917375-5.137548v0.359787z m-163.042825 45.937055c4.417621 2.877591 8.578101 7.812319 8.578101 10.892732a79.92424 79.92424 0 0 1-34.53004 30.112065c-1.797525 0-5.446189 3.137555-8.580923 7.812319-8.066639 11.407015-11.921652 0-4.163301-14.030287a76.233247 76.233247 0 0 0 6.47511-18.702228 28.259162 28.259162 0 0 1 18.70505-20.554074 38.031615 38.031615 0 0 1 13.51565 4.417622v0.051851z m41.622432 54.006869c12.178441 24.665876 9.092385 32.735337-15.416173 41.108147a824.019736 824.019736 0 0 0-78.158108 35.049968c-26.463401 14.024643-19.991113-1.291706 10.892731-26.466223a435.383685 435.383685 0 0 0 47.788548-46.762802c8.580923-11.407015 18.190766-21.016859 21.274001-21.016859s9.095559 8.326603 13.773145 17.933625l-0.154144 0.154144z m-62.693612 4.729084a278.788458 278.788458 0 0 1-65.773671 67.468198c-26.463048 15.824637-10.892731-12.178441 20.556896-38.696163 11.921299-9.606669 24.663054-20.551252 28.569214-24.919844 9.095559-8.581276 13.001366-9.352701 16.596415-3.649017l0.051146-0.203174z m231.85705 118.188658a410.600349 410.600349 0 0 1-14.544571 115.054278 33.286305 33.286305 0 0 0-3.137555 22.351245c2.880413 8.578101 0.514284 18.190766-13.767501 64.8996-21.013684 67.265024-22.86553 70.345789-30.36956 70.34579a78.43465 78.43465 0 0 0-27.800257 13.258861 114.380206 114.380206 0 0 1-35.558608 15.418994 396.812037 396.812037 0 0 0-65.928168 17.419341c-5.140723 1.79435-17.676482 5.960473-28.314894 8.578101-26.463048 6.732252-24.408734 13.773145 3.649018 13.773144a241.863364 241.863364 0 0 0 84.633218-21.276822 82.943982 82.943982 0 0 1 19.474007-5.955183 62.15252 62.15252 0 0 0 20.556543-11.921299c8.583745-6.480754 17.676482-10.281093 20.551252-8.584097 6.217968 4.160479 5.96647 21.271532-1.79435 31.958267a89.176765 89.176765 0 0 0-9.098382 22.871526 79.058987 79.058987 0 0 1-11.407015 24.666229c-8.581276 10.892731-9.095559 10.892731-39.464767 5.445837a2443.010985 2443.010985 0 0 0-110.170696-13.464504c-3.649017-0.514284-4.674763-4.160479-2.877592-12.178441 2.877591-10.892731 2.311809-11.921299-7.809497-9.612666-29.600604 6.732605-44.914131 8.584097-44.914131 4.166476a7.918844 7.918844 0 0 1 3.649018-6.474757 443.645738 443.645738 0 0 0 60.01884-80.42124c4.420443-11.921652 8.066639-14.024643 20.554074-14.024643a30.824232 30.824232 0 0 1 20.556896 6.732252 23.348068 23.348068 0 0 0 15.413351 6.732252 65.224114 65.224114 0 0 1 21.01968 6.732252c12.741755 7.240539 68.291123 9.092385 68.291123 2.308634 0-2.308634-5.449364-5.446189-12.178794-6.732252a342.901112 342.901112 0 0 1-33.761083-9.098029 166.594841 166.594841 0 0 0-28.312072-6.726608c-10.278271 0-39.210447-15.058855-39.467588-20.556543 0-2.880413 12.744224-8.584097 28.572035-13.258861 15.827459-4.675116 31.398128-10.27545 35.047146-12.17315a457.917294 457.917294 0 0 1 52.206169-22.356889 242.081353 242.081353 0 0 0 30.36956-18.190767c21.014037-13.767148 25.951586-18.70505 19.985117-21.014037-4.44584-1.548848-9.372102-0.880068-13.252865 1.794703a120.52798 120.52798 0 0 1-28.317715 12.184438c-12.73858 4.160479-30.826702 11.407015-41.104973 15.824637-47.277439 21.785463-70.091469 31.963558-71.940493 31.963558-5.449011 0-2.311809-10.280741 11.921652-35.563898a324.491651 324.491651 0 0 0 24.408734-55.54443c11.407015-33.763905 16.339274-35.558608 44.654167-16.344564a300.34147 300.34147 0 0 0 81.038522 29.855276c8.321312 0 2.87477-8.578454-8.583745-13.259214a1395.030821 1395.030821 0 0 1-69.577185-33.758261c-17.41934-8.578101-13.770323-16.338921 11.407015-27.288795a232.361104 232.361104 0 0 0 70.194115-43.982564c0-3.131912 7.246536-6.732252 19.214043-8.583745a8.023253 8.023253 0 0 1 5.96647 4.423265l0.102292-0.412697z m-166.440344 89.719621a774.756061 774.756061 0 0 1-67.77966 123.323737 333.914194 333.914194 0 0 1-89.565124-73.220559c7.543889-6.26347 16.730454-10.229594 26.463048-11.407015a536.551944 536.551944 0 0 0 99.432109-32.73569c16.599237-8.840887 31.961089-11.407015 31.398128-5.703331l0.051499-0.257142z" fill="#55AFE3" p-id="5544"></path></svg>