<svg xmlns="http://www.w3.org/2000/svg" width="17.846" height="19.758" viewBox="0 0 17.846 19.758">
  <g id="组_23668" data-name="组 23668" transform="translate(16501.846 22253)">
    <path id="路径_22944" data-name="路径 22944" d="M3.785,4.862V20.9H18.061V4.862ZM2.892,3H18.953a.912.912,0,0,1,.892.931v17.9a.912.912,0,0,1-.892.931H2.892A.912.912,0,0,1,2,21.827V3.931A.912.912,0,0,1,2.892,3Z" transform="translate(-16503.846 -22256)" fill="#2665fb"/>
    <g id="组_23667" data-name="组 23667" transform="translate(-16627.758 -22403.813)">
      <g id="组_23658" data-name="组 23658">
        <path id="路径_22917" data-name="路径 22917" d="M276.921,300.014V304.2a.844.844,0,1,0,1.688,0v-4.187h.96a.844.844,0,0,0,0-1.688h-3.61a.844.844,0,0,0,0,1.688Zm8.459,3.551h-3.492a.844.844,0,0,0,0,1.688h3.492a.844.844,0,1,0,0-1.688Zm0-3.059h-3.492a.844.844,0,0,0,0,1.688h3.492a.844.844,0,1,0,0-1.688Z" transform="translate(-145.836 -142.918)" fill="#2665fb"/>
        <path id="路径_22919" data-name="路径 22919" d="M299.029,657.294h-9.075a.844.844,0,0,0,0,1.688h9.078a.844.844,0,1,0,0-1.688Z" transform="translate(-159.484 -493.01)" fill="#2665fb"/>
      </g>
    </g>
  </g>
</svg>
