<svg xmlns="http://www.w3.org/2000/svg" width="17.43" height="19.914" viewBox="0 0 17.43 19.914">
  <g id="组_23674" data-name="组 23674" transform="translate(-136.576 -115.732)">
    <path id="路径_22945" data-name="路径 22945" d="M143.116,126.121h10.891V115.732h-17.43v19.915h6.537v-9.527h0Zm4.056-1.02h-3.928v-3.041h3.928V125.1Zm5.3,0H148.2v-3.041h4.274Zm-14.358-7.639H152.47v2.868H138.112Zm4.107,16.456h-4.107v-3.044h4.1v3.044h0Zm0-4.2h-4.107v-3.468h4.1v3.468h0Zm-4.107-4.621v-3.041h4.1V125.1Z" fill="#2665fb"/>
    <path id="路径_22946" data-name="路径 22946" d="M474.045,596.738a1,1,0,0,0-1-1h-4.572l1.118-1.118a1,1,0,0,0-1.411-1.411l-2.819,2.819a1,1,0,0,0-.212.315v0a.921.921,0,0,0-.047.15c0,.013-.009.025-.013.04a1.03,1.03,0,0,0,0,.392c0,.012.009.028.013.04a.917.917,0,0,0,.047.15,0,0,0,0,0,0,0,1,1,0,0,0,.212.315l2.818,2.818a1,1,0,0,0,1.411-1.411l-1.121-1.112h4.572A1,1,0,0,0,474.045,596.738Z" transform="translate(-320.038 -464.9)" fill="#2665fb"/>
  </g>
</svg>
