<svg xmlns="http://www.w3.org/2000/svg" width="14.756" height="13.928" viewBox="0 0 14.756 13.928">
  <g id="组_23691" data-name="组 23691" transform="translate(16530.402 21977.498)">
    <g id="组_23688" data-name="组 23688" transform="translate(-16601.563 -22074.418)">
      <path id="路径_22971" data-name="路径 22971" d="M92.582,105.433H92.49a.7.7,0,0,1-.495-.206l-1.508-1.507a.7.7,0,1,1,.99-.989l.42.42V98.319H89.13a.725.725,0,0,1-.529-.229.686.686,0,0,1-.184-.523.7.7,0,0,1,.7-.648h3.48a.7.7,0,0,1,.7.7v5.407l.3-.3a.7.7,0,1,1,.989.989l-1.507,1.507a.7.7,0,0,1-.495.205Zm1.209,1.144H81a.815.815,0,0,0-.814.814v2.643a.814.814,0,0,0,.814.814H93.791a.815.815,0,0,0,.814-.814v-2.643A.815.815,0,0,0,93.791,106.577Zm-9.323,3.177H81.475a.047.047,0,0,1-.047-.047v-1.989a.047.047,0,0,1,.047-.047h2.993Zm4.449,0H85.925a.047.047,0,0,1-.047-.047v-1.989a.047.047,0,0,1,.047-.047h2.993v2.083Zm4.45,0H90.374a.047.047,0,0,1-.047-.047v-1.989a.047.047,0,0,1,.047-.047h2.993Z" transform="translate(-8.88)" fill="#2565fb"/>
      <path id="路径_22972" data-name="路径 22972" d="M72.108,108.744a.948.948,0,0,1-.948-.947v-6.241a.948.948,0,0,1,.948-.947h5.467a.948.948,0,0,1,.948.947V107.8a.948.948,0,0,1-.948.947Zm5.3-1.113v-5.907H72.274v5.907Z" transform="translate(0 -3.628)" fill="#2565fb"/>
      <path id="路径_22973" data-name="路径 22973" d="M190.079,244.524a.533.533,0,0,1-.557-.557v-1.784h-.614a.557.557,0,1,1,0-1.113h2.343a.557.557,0,1,1,0,1.113h-.614v1.783A.533.533,0,0,1,190.079,244.524Z" transform="translate(-115.238 -141.748)" fill="#2565fb"/>
    </g>
  </g>
</svg>
