<svg xmlns="http://www.w3.org/2000/svg" width="17.846" height="19.494" viewBox="0 0 17.846 19.494">
  <path id="路径_22954" data-name="路径 22954" d="M2.766,2.683l11.217-1.6a.446.446,0,0,1,.5.379.452.452,0,0,1,0,.063v18.6a.446.446,0,0,1-.446.446.438.438,0,0,1-.063,0l-11.217-1.6A.892.892,0,0,1,2,18.08V3.567A.892.892,0,0,1,2.766,2.683ZM3.785,4.341V17.306l8.923,1.275V3.066Zm11.6,12.729h2.677V4.577H15.384V2.793h3.569a.892.892,0,0,1,.892.892V17.962a.892.892,0,0,1-.892.892H15.384ZM9.317,10.823l2.5,3.569H9.674L8.246,12.353,6.818,14.393H4.677l2.5-3.569-2.5-3.569H6.818l1.428,2.04,1.428-2.04h2.141Z" transform="translate(-2 -1.076)" fill="#2665fb"/>
</svg>
