<svg xmlns="http://www.w3.org/2000/svg" width="14.756" height="14.756" viewBox="0 0 14.756 14.756">
  <g id="组_23689" data-name="组 23689" transform="translate(16530.402 22057.744)">
    <path id="路径_22996" data-name="路径 22996" d="M13.526,11.067a1.23,1.23,0,0,1,1.23,1.23v1.23a1.23,1.23,0,0,1-1.23,1.23H1.23A1.23,1.23,0,0,1,0,13.526V12.3a1.23,1.23,0,0,1,1.23-1.23h12.3Zm0,1.23H1.23v1.23h12.3V12.3ZM9.837,4.919V6.168H5.158c-1.246.009-2.382.084-2.382.878H4.363L2.181,9.837,0,7.046H1.533c0-2.127,1.838-2.127,4.021-2.127Zm2.737,0L14.756,7.71H13.222c0,1.986-1.6,2.117-3.588,2.127H4.919V8.588H9.6c1.246-.009,2.382-.084,2.382-.878H10.393ZM13.526,0a1.23,1.23,0,0,1,1.23,1.23v1.23a1.23,1.23,0,0,1-1.23,1.23H1.23A1.23,1.23,0,0,1,0,2.459V1.23A1.23,1.23,0,0,1,1.23,0h12.3Zm0,1.23H1.23v1.23h12.3V1.23Z" transform="translate(-16530.402 -22057.744)" fill="#2565fb"/>
  </g>
</svg>
