<svg xmlns="http://www.w3.org/2000/svg" width="16.631" height="16.631" viewBox="0 0 16.631 16.631">
  <g id="组_23671" data-name="组 23671" transform="translate(-111.85 -111.85)">
    <path id="路径_22949" data-name="路径 22949" d="M253.018,257.917a.3.3,0,0,0,.3.143l.514-.063a.3.3,0,0,0,.251-.4l-.58-1.69a.306.306,0,0,0-.288-.206h-6.251a.3.3,0,0,0-.284.194l-.653,1.692a.3.3,0,0,0,.253.412l.588.059a.3.3,0,0,0,.294-.149l.033-.057a2.579,2.579,0,0,1,.714-.917,2.344,2.344,0,0,1,1.055-.147c.067,0,.122,0,.169,0V262.2a1.456,1.456,0,0,1-.169.01h-.684a.3.3,0,0,0-.3.3v.445a.3.3,0,0,0,.3.3h3.55a.3.3,0,0,0,.3-.3v-.445a.3.3,0,0,0-.3-.3h-.684a.678.678,0,0,1-.169-.016v-5.4c.088,0,.2,0,.363,0,.741,0,.925.12.943.135a3.727,3.727,0,0,1,.7.935Z" transform="translate(-131.268 -140.767)" fill="#2666fb" stroke="#2666fb" stroke-width="0.3"/>
    <path id="路径_22950" data-name="路径 22950" d="M127.678,112H112.653a.655.655,0,0,0-.653.653v15.025a.655.655,0,0,0,.653.653h8.617A.328.328,0,0,0,121.6,128v-.817a.328.328,0,0,0-.327-.327h-7.8V113.47h13.391v7.953a.328.328,0,0,0,.327.327H128a.328.328,0,0,0,.327-.327v-8.77A.655.655,0,0,0,127.678,112Z" fill="#2666fb" stroke="#2666fb" stroke-width="0.3"/>
    <path id="路径_22951" data-name="路径 22951" d="M598.394,591.923h-2v-2a.328.328,0,0,0-.327-.327H594.85a.328.328,0,0,0-.327.327v2h-2a.328.328,0,0,0-.327.327v1.221a.328.328,0,0,0,.327.327h2v2a.328.328,0,0,0,.327.327h1.221a.328.328,0,0,0,.327-.327v-2h2a.328.328,0,0,0,.327-.327V592.25A.328.328,0,0,0,598.394,591.923Z" transform="translate(-470.397 -467.85)" fill="#2666fb" stroke="#2666fb" stroke-width="0.3"/>
  </g>
</svg>
