<svg xmlns="http://www.w3.org/2000/svg" width="16.71" height="15.18" viewBox="0 0 16.71 15.18">
  <g id="组_23733" data-name="组 23733" transform="translate(16175.042 21985.582)">
    <path id="路径_23017" data-name="路径 23017" d="M206.851,214.326h4.922a.618.618,0,1,0,0-1.235h-4.922a.618.618,0,0,0,0,1.235Zm0,3.7h4.922a.618.618,0,1,0,0-1.235h-4.922a.618.618,0,0,0,0,1.235Zm9.723-9.723H221.5a.618.618,0,1,0,0-1.235h-4.922a.618.618,0,0,0,0,1.235Zm-.618-4.31a.619.619,0,0,0,.618.618H221.5a.618.618,0,1,0,0-1.235h-4.923A.619.619,0,0,0,215.957,203.989Zm-5.414,8a.619.619,0,0,0,.618-.618V204.6h3.079a.618.618,0,0,0,0-1.235h-7.389a.618.618,0,0,0,0,1.235h3.079v6.771a.611.611,0,0,0,.613.618Z" transform="translate(-16381.125 -22188.799)" fill="#2565fb" stroke="#2565fb" stroke-width="0.3"/>
    <path id="路径_23018" data-name="路径 23018" d="M217.153,208.861a4.31,4.31,0,1,0,4.31,4.31A4.312,4.312,0,0,0,217.153,208.861Zm2.145,4.854h-1.6v1.6a.545.545,0,1,1-1.09,0v-1.6h-1.6a.545.545,0,1,1,0-1.09h1.6v-1.6a.545.545,0,1,1,1.09,0v1.6h1.6a.545.545,0,1,1,0,1.09Z" transform="translate(-16379.795 -22187.883)" fill="#2565fb"/>
  </g>
</svg>
