<svg xmlns="http://www.w3.org/2000/svg" width="18.248" height="18.336" viewBox="0 0 18.248 18.336">
  <g id="组_23728" data-name="组 23728" transform="translate(16593.461 22203.557)">
    <g id="组_23705" data-name="组 23705" transform="translate(-77.814 99.961)">
      <g id="组_23671" data-name="组 23671" transform="translate(-16627.496 -22415.367)">
        <path id="路径_22949" data-name="路径 22949" d="M253.018,257.917a.3.3,0,0,0,.3.143l.514-.063a.3.3,0,0,0,.251-.4l-.58-1.69a.306.306,0,0,0-.288-.206h-6.251a.3.3,0,0,0-.284.194l-.653,1.692a.3.3,0,0,0,.253.412l.588.059a.3.3,0,0,0,.294-.149l.033-.057a2.579,2.579,0,0,1,.714-.917,2.344,2.344,0,0,1,1.055-.147c.067,0,.122,0,.169,0V262.2a1.456,1.456,0,0,1-.169.01h-.684a.3.3,0,0,0-.3.3v.445a.3.3,0,0,0,.3.3h3.55a.3.3,0,0,0,.3-.3v-.445a.3.3,0,0,0-.3-.3h-.684a.678.678,0,0,1-.169-.016v-5.4c.088,0,.2,0,.363,0,.741,0,.925.12.943.135a3.727,3.727,0,0,1,.7.935Z" transform="translate(-131.268 -140.767)" fill="#2666fb" stroke="#2666fb" stroke-width="0.3"/>
        <path id="路径_22950" data-name="路径 22950" d="M127.678,112H112.653a.655.655,0,0,0-.653.653v15.025a.655.655,0,0,0,.653.653h8.617A.328.328,0,0,0,121.6,128v-.817a.328.328,0,0,0-.327-.327h-7.8V113.47h13.391v7.953a.328.328,0,0,0,.327.327H128a.328.328,0,0,0,.327-.327v-8.77A.655.655,0,0,0,127.678,112Z" fill="#2666fb" stroke="#2666fb" stroke-width="0.3"/>
      </g>
      <g id="组_23701" data-name="组 23701" transform="translate(-16629.861 -22417.232)">
        <path id="路径_22999" data-name="路径 22999" d="M418.506,407.9l-7.766-3.035,1.735,7.854,1.925-2.883,2.6,2.525.757-.736-2.529-2.459Z" transform="translate(-286.043 -280.673)" fill="#2666fb"/>
      </g>
    </g>
  </g>
</svg>
