<svg xmlns="http://www.w3.org/2000/svg" width="16.309" height="13.688" viewBox="0 0 16.309 13.688">
  <path id="路径_23016" data-name="路径 23016" d="M208.39,268.895h-3.338a.917.917,0,1,1,0-1.835h3.338a.917.917,0,0,1,0,1.835Zm0,3.873h-3.338a.917.917,0,1,1,0-1.835h3.338a.917.917,0,0,1,0,1.835Zm0,3.848h-3.338a.917.917,0,1,1,0-1.835h3.338a.917.917,0,0,1,0,1.835Zm0,3.873H193.917a.917.917,0,1,1,0-1.835H208.39a.917.917,0,0,1,0,1.835ZM199.653,267.9v7.165c-.082.856.367,1.246,1.348,1.164h.367v.612h-5.634v-.612h.553a1.027,1.027,0,0,0,1.226-1.164V267.9h-1.9q-1.533-.306-1.654,1.837h-.673l.306-2.94h.489a.589.589,0,0,0,.306.245.464.464,0,0,0,.428.061h7.471a.769.769,0,0,0,.734-.306h.55l.245,2.94h-.612q-.183-2.144-1.715-1.837h-1.837Z" transform="translate(-193 -266.801)" fill="#2666fb"/>
</svg>
