<svg xmlns="http://www.w3.org/2000/svg" width="16.496" height="16.496" viewBox="0 0 16.496 16.496">
  <g id="组_23676" data-name="组 23676" transform="translate(-48.686 -48.686)">
    <path id="路径_22934" data-name="路径 22934" d="M48.786,134.714a.611.611,0,0,1,.013-.125.578.578,0,0,1,.036-.121.634.634,0,0,1,.237-.288.575.575,0,0,1,.111-.06.753.753,0,0,1,.121-.036.616.616,0,0,1,.126-.013.609.609,0,0,1,.125.013.7.7,0,0,1,.121.036.687.687,0,0,1,.111.06.625.625,0,0,1,.178.178.575.575,0,0,1,.06.111.7.7,0,0,1,.036.121.611.611,0,0,1,.013.125v4.5q0,.049.087.142a1.637,1.637,0,0,0,.52.332,6.07,6.07,0,0,0,4.253,0,1.61,1.61,0,0,0,.518-.332q.089-.093.089-.142v-4.5a.611.611,0,0,1,.013-.125.578.578,0,0,1,.036-.121.634.634,0,0,1,.237-.288.575.575,0,0,1,.111-.06.754.754,0,0,1,.121-.036.616.616,0,0,1,.126-.013.609.609,0,0,1,.125.013.7.7,0,0,1,.121.036.687.687,0,0,1,.111.06.625.625,0,0,1,.178.178.575.575,0,0,1,.06.111.7.7,0,0,1,.036.121.61.61,0,0,1,.013.125v4.5q0,1.039-1.371,1.648a7.331,7.331,0,0,1-5.3,0q-1.371-.609-1.371-1.649Z" transform="translate(0 -83.784)" fill="#2666fb" stroke="#2666fb" stroke-width="0.2"/>
    <path id="路径_22935" data-name="路径 22935" d="M55.454,49.28a7.345,7.345,0,0,0-5.3,0q-1.37.61-1.37,1.649t1.371,1.649a7.327,7.327,0,0,0,5.3,0q1.371-.609,1.371-1.649T55.455,49.28ZM50.68,50.456a6.09,6.09,0,0,1,4.253,0q.607.27.607.473t-.607.473a6.07,6.07,0,0,1-4.253,0q-.607-.27-.607-.473t.607-.473Zm-1.894,2.725a.611.611,0,0,1,.013-.125.578.578,0,0,1,.036-.121.634.634,0,0,1,.237-.288.575.575,0,0,1,.111-.06.753.753,0,0,1,.121-.036.617.617,0,0,1,.126-.013.61.61,0,0,1,.125.013.7.7,0,0,1,.121.036.686.686,0,0,1,.111.06.625.625,0,0,1,.178.178.575.575,0,0,1,.06.111.7.7,0,0,1,.036.121.611.611,0,0,1,.013.125q0,.2.607.473a6.07,6.07,0,0,0,4.253,0q.607-.27.607-.473a.611.611,0,0,1,.013-.125.578.578,0,0,1,.036-.121.634.634,0,0,1,.237-.288.575.575,0,0,1,.111-.06.753.753,0,0,1,.121-.036.617.617,0,0,1,.126-.013.61.61,0,0,1,.125.013.7.7,0,0,1,.121.036.686.686,0,0,1,.111.06.625.625,0,0,1,.178.178.575.575,0,0,1,.06.111.7.7,0,0,1,.036.121.61.61,0,0,1,.013.125v0q0,1.038-1.371,1.647a7.331,7.331,0,0,1-5.3,0Q48.786,54.222,48.786,53.181Zm8.254,5.254a.616.616,0,0,1,.013-.126.752.752,0,0,1,.036-.121.768.768,0,0,1,.06-.111.643.643,0,0,1,.288-.237.534.534,0,0,1,.121-.037.611.611,0,0,1,.125-.013.617.617,0,0,1,.126.013.658.658,0,0,1,.232.1.643.643,0,0,1,.237.288.563.563,0,0,1,.037.121.617.617,0,0,1,.013.126v4.5q0,.2.606.473a6.09,6.09,0,0,0,4.253,0q.607-.27.607-.473v-4.5a.617.617,0,0,1,.013-.126.752.752,0,0,1,.036-.121.768.768,0,0,1,.06-.111.643.643,0,0,1,.288-.237.535.535,0,0,1,.121-.037.61.61,0,0,1,.125-.013.617.617,0,0,1,.126.013.657.657,0,0,1,.232.1.643.643,0,0,1,.237.288.562.562,0,0,1,.037.121.617.617,0,0,1,.013.126v4.5q0,1.039-1.373,1.649a7.349,7.349,0,0,1-5.3,0q-1.371-.61-1.371-1.649Z" transform="translate(0 0)" fill="#2666fb" stroke="#2666fb" stroke-width="0.2"/>
    <path id="路径_22936" data-name="路径 22936" d="M101.827,91.429h2.251a2.143,2.143,0,0,1,2.145,2.145v2.251a.61.61,0,0,1-.013.125.7.7,0,0,1-.036.121.622.622,0,0,1-.059.111.734.734,0,0,1-.08.1.621.621,0,0,1-.1.08.612.612,0,0,1-.112.06.7.7,0,0,1-.121.036.61.61,0,0,1-.125.013.617.617,0,0,1-.126-.013.713.713,0,0,1-.12-.036.738.738,0,0,1-.112-.06.71.71,0,0,1-.1-.08.735.735,0,0,1-.08-.1.621.621,0,0,1-.059-.111.579.579,0,0,1-.036-.121.611.611,0,0,1-.013-.125V93.573a.857.857,0,0,0-.858-.858h-2.251a.611.611,0,0,1-.125-.013.7.7,0,0,1-.121-.036.621.621,0,0,1-.111-.059.735.735,0,0,1-.1-.08.621.621,0,0,1-.08-.1.613.613,0,0,1-.06-.112.714.714,0,0,1-.036-.12.63.63,0,0,1-.013-.126.617.617,0,0,1,.013-.126.714.714,0,0,1,.036-.12.738.738,0,0,1,.06-.112.711.711,0,0,1,.08-.1.734.734,0,0,1,.1-.08.621.621,0,0,1,.111-.059.579.579,0,0,1,.121-.036A.61.61,0,0,1,101.827,91.429Zm3.775,7.249a7.331,7.331,0,0,0-5.3,0q-1.371.609-1.371,1.649t1.371,1.649a7.352,7.352,0,0,0,5.3,0q1.37-.61,1.37-1.649T105.6,98.678Zm-4.775,1.176a6.071,6.071,0,0,1,4.253,0q.607.27.607.473t-.607.473a6.09,6.09,0,0,1-4.253,0q-.607-.27-.607-.473T100.826,99.854Zm-9.4,1.973a.61.61,0,0,1,.013-.125.7.7,0,0,1,.036-.121.62.62,0,0,1,.059-.111.735.735,0,0,1,.08-.1.621.621,0,0,1,.1-.08.613.613,0,0,1,.112-.06.713.713,0,0,1,.12-.036.628.628,0,0,1,.126-.013.616.616,0,0,1,.126.013.713.713,0,0,1,.12.036.737.737,0,0,1,.112.06.71.71,0,0,1,.1.08.735.735,0,0,1,.08.1.621.621,0,0,1,.059.111.579.579,0,0,1,.036.121.61.61,0,0,1,.013.125v2.251a.758.758,0,0,0,.858.858h2.251a.61.61,0,0,1,.125.013.7.7,0,0,1,.121.036.621.621,0,0,1,.111.059.735.735,0,0,1,.1.08.621.621,0,0,1,.08.1.613.613,0,0,1,.06.112.7.7,0,0,1,.036.121.61.61,0,0,1,.013.125.617.617,0,0,1-.013.126.713.713,0,0,1-.036.12.737.737,0,0,1-.06.112.71.71,0,0,1-.08.1.735.735,0,0,1-.1.08.62.62,0,0,1-.111.059.579.579,0,0,1-.121.036.611.611,0,0,1-.125.013H93.573a2.143,2.143,0,0,1-2.145-2.145v-2.251Zm7.5.751a.617.617,0,0,1,.013-.126.752.752,0,0,1,.036-.121.768.768,0,0,1,.06-.111.643.643,0,0,1,.288-.237.534.534,0,0,1,.121-.037.61.61,0,0,1,.125-.013.616.616,0,0,1,.126.013.677.677,0,0,1,.121.037.684.684,0,0,1,.111.059.643.643,0,0,1,.237.288.562.562,0,0,1,.037.121.616.616,0,0,1,.013.126q0,.2.606.473a6.09,6.09,0,0,0,4.253,0q.607-.27.607-.473a.617.617,0,0,1,.013-.126.752.752,0,0,1,.036-.121.768.768,0,0,1,.06-.111.621.621,0,0,1,.08-.1.652.652,0,0,1,.1-.08.735.735,0,0,1,.112-.059.562.562,0,0,1,.121-.037.61.61,0,0,1,.125-.013.616.616,0,0,1,.126.013.678.678,0,0,1,.121.037.685.685,0,0,1,.111.059.643.643,0,0,1,.237.288.562.562,0,0,1,.037.121.617.617,0,0,1,.013.126q0,1.039-1.371,1.649a7.352,7.352,0,0,1-5.3,0Q98.933,103.618,98.933,102.578Z" transform="translate(-41.892 -41.892)" fill="#2666fb" stroke="#2666fb" stroke-width="0.2"/>
  </g>
</svg>
