<svg xmlns="http://www.w3.org/2000/svg" width="17.996" height="18.969" viewBox="0 0 17.996 18.969">
  <g id="组_23685" data-name="组 23685" transform="translate(16617.998 22118.969)">
    <path id="路径_22995" data-name="路径 22995" d="M134.693,108.713h-2.82v-.742a.742.742,0,1,0-1.484,0v.742h-2.819c-.41,0-.742.184-.742.594v3.562a.883.883,0,0,0,.742.89h2.82v1.336a.742.742,0,1,0,1.484,0v-1.336h2.82a.884.884,0,0,0,.742-.89v-3.562C135.435,108.9,135.1,108.713,134.693,108.713Zm-4.3,3.562h-2.078V110.2h2.078Zm3.562,0h-2.078V110.2h2.078Zm-7.41-13.708c.187,0,4.411.155,5.061,4.039l-.222-.148a.85.85,0,0,0-.943,1.415l1.591,1.061,0,0,.01.007.016.009a.812.812,0,0,0,.082.046l.039.018c.022.009.044.018.066.025l.046.014c.022.006.045.011.067.015l.044.008a.838.838,0,0,0,.1.007h.019a.838.838,0,0,0,.1-.007l.044-.008c.023,0,.045-.009.068-.015l.046-.014c.023-.008.045-.016.067-.025l.039-.017a.849.849,0,0,0,.082-.046l.016-.009.01-.007,0,0,1.634-1.089a.85.85,0,1,0-.943-1.415l-.36.24c-.534-4.463-4.617-5.751-6.746-5.8a.85.85,0,1,0-.041,1.7Zm-.384,15.516c-.19,0-4.57-.161-5.093-4.261l.29.193a.85.85,0,0,0,.943-1.415l-1.6-1.069h0a.841.841,0,0,0-.151-.08c-.015-.006-.031-.009-.046-.014a.864.864,0,0,0-.111-.033c-.022,0-.044,0-.065-.007a.8.8,0,0,0-.1-.009c-.017,0-.033,0-.05,0a.837.837,0,0,0-.114.012c-.013,0-.026.008-.04.012a.742.742,0,0,0-.265.114h0l-1.647,1.1a.85.85,0,0,0,.943,1.415l.309-.206c.463,4.578,4.609,5.893,6.761,5.945h.021a.85.85,0,0,0,.02-1.7Zm-7.76-8.938a.859.859,0,0,0,.106.011h4.764a.85.85,0,1,0,0-1.7H119.14v-1.275h4.127a.85.85,0,1,0,0-1.7H119.14V99.205h4.127a.85.85,0,1,0,0-1.7H118.5a.816.816,0,0,0-.106.011.821.821,0,0,0-.956.839v5.951a.85.85,0,0,0,.85.85A.859.859,0,0,0,118.4,105.146Z" transform="translate(-16735.438 -22215.836)" fill="#2666fb"/>
  </g>
</svg>
