<svg xmlns="http://www.w3.org/2000/svg" width="15.266" height="15.264" viewBox="0 0 15.266 15.264">
  <path id="路径_22959" data-name="路径 22959" d="M9.59,10.755a.633.633,0,0,1,.642.624v2.962a.632.632,0,0,1-.641.624H.686a.651.651,0,0,1-.454-.182.615.615,0,0,1-.187-.441V11.379a.617.617,0,0,1,.187-.441.651.651,0,0,1,.454-.182h8.9ZM8.949,12H1.329v1.715h7.62V12Zm5.375-6.859a.632.632,0,0,1,.641.624V8.729a.633.633,0,0,1-.642.624H5.42a.632.632,0,0,1-.642-.624V5.767a.633.633,0,0,1,.642-.624h8.9Zm-11.83.19V6.579H3.741V7.826H2.493V9.073H1.247V7.826H0V6.579H1.246V5.332H2.494ZM13.68,6.391H6.061V8.105h7.62V6.391ZM9.59,0a.633.633,0,0,1,.642.624V3.585a.632.632,0,0,1-.641.624H.686a.651.651,0,0,1-.454-.182.615.615,0,0,1-.187-.441V.623A.617.617,0,0,1,.232.181.651.651,0,0,1,.687,0h8.9ZM8.949,1.246H1.329V2.961h7.62Z" transform="translate(0.15 0.15)" fill="#336efb" stroke="#2666fb" stroke-width="0.3"/>
</svg>
