<svg xmlns="http://www.w3.org/2000/svg" width="18.104" height="16.961" viewBox="0 0 18.104 16.961">
  <g id="组_23727" data-name="组 23727" transform="translate(16593.727 22241.293)">
    <g id="组_23706" data-name="组 23706" transform="translate(-78.081 22.225)">
      <g id="组_23671" data-name="组 23671" transform="translate(-16627.496 -22375.367)">
        <path id="路径_22949" data-name="路径 22949" d="M253.018,257.917a.3.3,0,0,0,.3.143l.514-.063a.3.3,0,0,0,.251-.4l-.58-1.69a.306.306,0,0,0-.288-.206h-6.251a.3.3,0,0,0-.284.194l-.653,1.692a.3.3,0,0,0,.253.412l.588.059a.3.3,0,0,0,.294-.149l.033-.057a2.579,2.579,0,0,1,.714-.917,2.344,2.344,0,0,1,1.055-.147c.067,0,.122,0,.169,0V262.2a1.456,1.456,0,0,1-.169.01h-.684a.3.3,0,0,0-.3.3v.445a.3.3,0,0,0,.3.3h3.55a.3.3,0,0,0,.3-.3v-.445a.3.3,0,0,0-.3-.3h-.684a.678.678,0,0,1-.169-.016v-5.4c.088,0,.2,0,.363,0,.741,0,.925.12.943.135a3.727,3.727,0,0,1,.7.935Z" transform="translate(-131.268 -140.767)" fill="#2666fb" stroke="#2666fb" stroke-width="0.3"/>
        <path id="路径_22950" data-name="路径 22950" d="M127.678,112H112.653a.655.655,0,0,0-.653.653v15.025a.655.655,0,0,0,.653.653h4.617A.328.328,0,0,0,117.6,128v-.817a.328.328,0,0,0-.327-.327h-3.8V113.47h13.391v2.953a.328.328,0,0,0,.327.327H128a.328.328,0,0,0,.327-.327v-3.77A.655.655,0,0,0,127.678,112Z" fill="#2666fb" stroke="#2666fb" stroke-width="0.3"/>
      </g>
      <g id="组_23702" data-name="组 23702" transform="translate(-16539.328 -22256.82)">
        <path id="路径_23000" data-name="路径 23000" d="M610.349,3.884a.4.4,0,0,1-.285-.122.442.442,0,0,1-.007-.605,1.4,1.4,0,0,0-.023-1.916,1.253,1.253,0,0,0-1.83.024.4.4,0,0,1-.578.007.442.442,0,0,1-.007-.605A2.046,2.046,0,0,1,610.6.628a2.288,2.288,0,0,1,.037,3.126.4.4,0,0,1-.292.129Z" transform="translate(-569.9 0)" fill="#2666fb" stroke="#2666fb" stroke-width="0.6"/>
        <path id="路径_23001" data-name="路径 23001" d="M557.759,114.486a.4.4,0,0,1-.285-.122l-2.438-2.491a.442.442,0,0,1-.007-.605.4.4,0,0,1,.578-.007l2.438,2.491a.442.442,0,0,1,.008.605A.4.4,0,0,1,557.759,114.486Z" transform="translate(-517.823 -110.057)" fill="#2666fb" stroke="#2666fb" stroke-width="0.6"/>
        <path id="路径_23002" data-name="路径 23002" d="M90.57,60.925a.4.4,0,0,1-.285-.122.442.442,0,0,1-.007-.605l5.039-5.41a.4.4,0,0,1,.578-.007.442.442,0,0,1,.007.605L90.863,60.8A.4.4,0,0,1,90.57,60.925Z" transform="translate(-57.597 -54.127)" fill="#2666fb" stroke="#2666fb" stroke-width="0.6"/>
        <path id="路径_23003" data-name="路径 23003" d="M32.408,317.6a.407.407,0,0,1-.075-.007.427.427,0,0,1-.327-.5l.55-3.125a.41.41,0,0,1,.476-.343.427.427,0,0,1,.328.5l-.55,3.124a.414.414,0,0,1-.4.35Zm3.005-.67a.4.4,0,0,1-.285-.122.442.442,0,0,1-.007-.605l5.04-5.41a.4.4,0,0,1,.578-.007.442.442,0,0,1,.007.605l-5.039,5.41a.4.4,0,0,1-.293.129Z" transform="translate(0 -307.636)" fill="#2666fb" stroke="#2666fb" stroke-width="0.6"/>
        <path id="路径_23004" data-name="路径 23004" d="M32.443,869.564a.414.414,0,0,1-.4-.34.428.428,0,0,1,.316-.507l2.969-.653a.409.409,0,0,1,.484.331.428.428,0,0,1-.316.507l-2.969.653A.387.387,0,0,1,32.443,869.564Zm8.485,0H37.523a.428.428,0,0,1,0-.856h3.406a.428.428,0,0,1,0,.856Z" transform="translate(-0.036 -859.602)" fill="#2666fb" stroke="#2666fb" stroke-width="0.6"/>
      </g>
    </g>
  </g>
</svg>
