<svg xmlns="http://www.w3.org/2000/svg" width="15.365" height="15.363" viewBox="0 0 15.365 15.363">
  <g id="组_23677" data-name="组 23677" transform="translate(16468.434 22062.947)">
    <g id="组_23662" data-name="组 23662" transform="translate(-16468.234 -22062.748)">
      <path id="路径_22932" data-name="路径 22932" d="M249.88,245.657a1.178,1.178,0,1,0-1.176-1.178,1.048,1.048,0,0,0,.054.346l-3.829,3.822v-3.125a1.178,1.178,0,1,0-1.1,0v3.415a1.157,1.157,0,0,0-.628,1.036,1.179,1.179,0,0,0,2.221.548h3.415a1.176,1.176,0,1,0,0-1.1h-3.125l3.824-3.821A1.263,1.263,0,0,0,249.88,245.657Z" transform="translate(-239.647 -239.746)" fill="#2666fb" stroke="#2666fb" stroke-width="0.4"/>
      <path id="路径_22933" data-name="路径 22933" d="M14.393,0H.626A.632.632,0,0,0,0,.585V14.366a.587.587,0,0,0,.572.6h13.85a.539.539,0,0,0,.543-.554V.6a.623.623,0,0,0-.572-.6Zm-.626,5.467v7.8a.507.507,0,0,1-.506.5H1.7a.5.5,0,0,1-.5-.5V1.684A.483.483,0,0,1,1.681,1.2H13.272a.5.5,0,0,1,.5.5Z" transform="translate(0)" fill="#2666fb" stroke="#2666fb" stroke-width="0.4"/>
    </g>
  </g>
</svg>
