<svg xmlns="http://www.w3.org/2000/svg" width="16.754" height="16.379" viewBox="0 0 16.754 16.379">
  <g id="组_23730" data-name="组 23730" transform="translate(-53.76 -64)">
    <path id="路径_23008" data-name="路径 23008" d="M708.68,126.748H704v-14.62h4.68v1.217h-3.51v12.186h3.51Z" transform="translate(-638.353 -47.248)" fill="#2666fb"/>
    <path id="路径_23009" data-name="路径 23009" d="M80.567,116.882H75.512V101.888h5.054v1.591h-3.51v11.812h3.51Zm-4.68-.374h4.305v-.842h-3.51V103.1h3.51v-.842H75.887ZM64,102.075h4.68v14.62H64v-1.217h3.51V103.292H64Z" transform="translate(-10.053 -37.195)" fill="#2666fb"/>
    <path id="路径_23010" data-name="路径 23010" d="M58.814,79.687H53.76V78.1h3.51V66.284H53.76V64.693h5.054V79.687Zm-4.68-.374H58.44V65.067H54.134v.842h3.51V78.47h-3.51ZM60.967,64h2.34v2.34h-2.34Zm0,14.039h2.34v2.34h-2.34Zm0-10.53h2.34v2.34h-2.34Z" fill="#2666fb"/>
    <path id="路径_23011" data-name="路径 23011" d="M448,448h2.34v2.34H448Z" transform="translate(-387.033 -376.98)" fill="#2666fb"/>
    <path id="路径_23012" data-name="路径 23012" d="M448,640h2.34v2.34H448Z" transform="translate(-387.033 -565.47)" fill="#2666fb"/>
  </g>
</svg>
