<svg id="组_24898" data-name="组 24898" xmlns="http://www.w3.org/2000/svg" width="89.363" height="89.305" viewBox="0 0 89.363 89.305">
  <path id="路径_23867" data-name="路径 23867" d="M46.7,0h6.067V8.313c10.834.059,21.669-.118,32.562.059a3.546,3.546,0,0,1,3.94,3.94c.167,20.467,0,40.944.1,61.41-.1,2.1.2,4.422-.985,6.284-1.487,1.083-3.4.985-5.131.985H52.783V89.3H46.42C30.966,86.457,15.483,83.808,0,81.03V8.333C15.562,5.545,31.134,2.837,46.7,0Z" fill="#ff1850"/>
  <path id="路径_23868" data-name="路径 23868" d="M604.737,130.949h33.488v66.493H604.737v-8.313h26.386v-4.156H604.737v-5.191h26.386v-4.117H604.737v-5.24h26.386v-4.156H604.737v-5.191h26.386v-4.127H604.737v-5.22h26.386v-4.156H604.737v-5.2h26.386v52.1H604.737Z" transform="translate(-551.974 -119.524)" fill="#fff"/>
  <path id="路径_23869" data-name="路径 23869" d="M600.667,529.667h26.386v4.156H600.667Zm0,7.141h26.386v4.156H600.667Zm0,7.141h26.386V548.1H600.667Zm-4.284,7.141h30.671v4.156H596.383Z" transform="translate(-544.349 -483.454)" fill="#ff1850"/>
  <path id="路径_23870" data-name="路径 23870" d="M179.922,312.437c5.171.246,11.425-2.1,15.759,1.862,4.1,5.1,3.014,14.469-3.063,17.512-2.157,1.133-4.639.985-6.983.9v11.425l-5.713-.483C179.844,333.249,179.824,322.838,179.922,312.437Z" transform="translate(-164.163 -284.751)" fill="#fff"/>
  <path id="路径_23871" data-name="路径 23871" d="M245.448,219.352c1.871-.089,4.2-.443,5.457,1.359a7.19,7.19,0,0,1,.128,6.392c-1.083,1.97-3.536,1.812-5.437,2.039-.2-3.26-.177-6.52-.148-9.79Zm55.846.187a7.328,7.328,0,0,1-4.216-1.714,40.184,40.184,0,0,0-6.776,2.167c-1.773,3.142-3.418,4.747-4.846,4.747a1.517,1.517,0,0,1-.857-.227,1.694,1.694,0,0,1-.985-1.546c0-.512.118-1.97,5.525-4.284a40.827,40.827,0,0,0,3.024-7.091c-.689-1.369-2.167-4.738-1.143-6.451a1.8,1.8,0,0,1,1.763-.916,1.911,1.911,0,0,1,1.487.739c.739.985.68,3.2-.286,6.4a17.187,17.187,0,0,0,3.556,4.58,19.3,19.3,0,0,1,3.585-.394c2.679.059,3.083,1.31,3.024,2.059,0,1.97-1.881,1.97-2.846,1.97Zm-16.143,3.674.2-.049a3.94,3.94,0,0,0,2.088-1.468A4.925,4.925,0,0,0,285.151,223.212ZM293.3,205.74h-.187a.384.384,0,0,0-.246.059,4.58,4.58,0,0,0,.364,2.955A4.649,4.649,0,0,0,293.3,205.74Zm-.335,8.362v.108l-.059-.059c-.473,1.251-.985,2.482-1.576,3.693l.1-.059v.128a30.221,30.221,0,0,1,3.506-1.1l-.059-.049h.158a17.129,17.129,0,0,1-2.068-2.659Zm8.254,3.034a5.771,5.771,0,0,0-1.586.148,4.422,4.422,0,0,0,1.832.581,2.275,2.275,0,0,0,1.211-.138c-.039-.227-.286-.591-1.5-.591Z" transform="translate(-224.016 -186.396)" fill="#ff1850"/>
</svg>
