<svg id="组_24899" data-name="组 24899" xmlns="http://www.w3.org/2000/svg" width="93.667" height="93.602" viewBox="0 0 93.667 93.602">
  <path id="路径_23872" data-name="路径 23872" d="M49.267,0H55.3V9.8c11.375.066,22.762-.121,34.137,0a3.722,3.722,0,0,1,4.118,4.218c.187,20.339,0,40.689.11,61.039-.11,2.2.209,4.636-1.024,6.607-1.553,1.1-3.568,1-5.4,1.1-10.637-.055-21.275,0-31.934,0V93.6H48.706C32.474,90.617,16.231,87.853,0,84.935V8.732C16.419,5.825,32.837,2.863,49.267,0Z" fill="#fd632f"/>
  <path id="路径_23873" data-name="路径 23873" d="M604.719,142.931h35.106v66.413H604.719v-8.71h25.537v-4.35H604.719v-5.506h25.537v-4.295H604.73v-6.4c4.218,1.332,9.019,1.3,12.785-1.288,4.074-2.478,6.2-7.191,6.552-11.893H610.06c0-4.735.055-9.47-.088-14.194-1.751.341-3.491.716-5.231,1.1Z" transform="translate(-549.417 -129.86)" fill="#fff"/>
  <path id="路径_23874" data-name="路径 23874" d="M686.25,224.692a15.152,15.152,0,0,1,14.007,14.315c-4.669.055-9.338,0-14.018,0C686.25,234.217,686.25,229.471,686.25,224.692Z" transform="translate(-623.482 -204.144)" fill="#fd632f"/>
  <path id="路径_23875" data-name="路径 23875" d="M185.789,309.429c5.781.286,12.774-2.335,17.619,2.092,4.581,5.7,3.37,16.176-3.425,19.579-2.412,1.266-5.187,1.1-7.807,1v12.774l-6.332-.54q-.248-17.443-.055-34.908Z" transform="translate(-168.721 -280.666)" fill="#fff"/>
  <path id="路径_23876" data-name="路径 23876" d="M255.552,378.047c2.092-.088,4.691-.485,6.1,1.531a8.039,8.039,0,0,1,.143,7.147c-1.211,2.2-3.953,2.015-6.079,2.279-.22-3.645-.2-7.29-.165-10.957Z" transform="translate(-232.163 -343.392)" fill="#fd632f"/>
</svg>
