<svg xmlns="http://www.w3.org/2000/svg" width="35" height="39.531" viewBox="0 0 35 39.531">
  <path id="路径_23845" data-name="路径 23845" d="M80.854,17.54,71.7,26.614a.786.786,0,0,1-1.1,0,.761.761,0,0,1,0-1.083L81.333,14.894a1.136,1.136,0,0,1,1.608,0l2.42,2.4a1.127,1.127,0,0,1,0,1.6L74.627,29.524a4.961,4.961,0,0,1-6.96,0,4.858,4.858,0,0,1,0-6.9l9.163-9.074a1.265,1.265,0,0,0,0-1.813,1.307,1.307,0,0,0-1.834,0L65.832,20.8a7.4,7.4,0,0,0,0,10.526,7.572,7.572,0,0,0,10.628,0L88,19.9a2.553,2.553,0,0,0,0-3.633l-4.032-3.981a2.606,2.606,0,0,0-3.668,0L68.768,23.716a3.313,3.313,0,0,0,0,4.718,3.388,3.388,0,0,0,4.767,0L82.7,19.36a1.265,1.265,0,0,0,0-1.813,1.316,1.316,0,0,0-1.839,0ZM83.421,1.12,92.663,10.8a3.661,3.661,0,0,1,1.024,2.539V35.875a3.638,3.638,0,0,1-3.619,3.656H62.3a3.64,3.64,0,0,1-3.614-3.656V3.656A3.638,3.638,0,0,1,62.307,0H80.829a3.6,3.6,0,0,1,2.592,1.12Z" transform="translate(-58.688)" fill="#2666fb"/>
</svg>
