<svg id="组_24897" data-name="组 24897" xmlns="http://www.w3.org/2000/svg" width="82.646" height="82.607" viewBox="0 0 82.646 82.607">
  <path id="路径_23865" data-name="路径 23865" d="M43.189,0h5.617V7.687c10.049.087,20.088-.107,30.118.087a3.265,3.265,0,0,1,3.625,3.674c.165,18.932,0,37.9.1,56.8-.1,1.944.185,4.091-.914,5.831-1.37.972-3.139.875-4.743.972H48.806v7.551H42.975C28.65,79.973,14.325,77.524,0,74.959V7.707C14.393,5.131,28.8,2.624,43.189,0Z" fill="#2666fb"/>
  <path id="路径_23866" data-name="路径 23866" d="M136.035,131.01h30.983v61.5H136.035v-7.687h24.413v-3.887H136.035v-4.762h24.413v-3.887H136.035v-4.762h24.413v-3.887H136.035v-4.859h24.413v-3.742H136.035v-4.859h24.413v-3.79H136.035v-4.811h24.413v-3.839H136.035Zm-29.369,16.978c1.788-.107,3.567-.185,5.355-.282,1.254,6.492,2.527,12.964,3.887,19.437,1.059-6.677,2.235-13.324,3.372-19.981,1.876-.068,3.751-.175,5.627-.292-2.128,9.31-3.985,18.708-6.307,27.96-1.565.836-3.887,0-5.773.1-1.3-6.375-2.75-12.7-3.868-19.087-1.1,6.21-2.527,12.362-3.78,18.523-1.808-.1-3.615-.2-5.433-.33-1.555-8.455-3.392-16.862-4.859-25.336,1.6-.078,3.217-.146,4.859-.2.972,6.123,2.07,12.216,2.916,18.348,1.3-6.288,2.653-12.566,4-18.854Z" transform="translate(-87.228 -120.436)" fill="#fff"/>
</svg>
