<svg xmlns="http://www.w3.org/2000/svg" width="106.135" height="106.078" viewBox="0 0 106.135 106.078">
  <g id="组_24906" data-name="组 24906" transform="translate(-6805.832 22063.391)">
    <g id="组_24901" data-name="组 24901" transform="translate(6805.832 -22063.391)">
      <path id="路径_23877" data-name="路径 23877" d="M169.365,156.275c-.475,2.566-3.485,2.65-5.493,2.705-12.493.028-24.985,0-37.479,0v11.1h-7.474c-18.377-3.4-36.782-6.581-55.158-9.871V73.871c18.488-3.318,37-6.525,55.465-9.871h7.166v9.871q18.112,0,36.2-.028a10.854,10.854,0,0,1,6.051,1.2,11.517,11.517,0,0,1,1.171,6.246q-.083,32.125,0,64.221A55.574,55.574,0,0,1,169.365,156.275Zm-3.207-78.694H126.392v7.39h.154v8.616h-.125v4.936h.154v8.616h-.154v4.936h.154v8.617h-.154v4.936h.154v8.616h-.154v4.936h.154V147.8h-.154v7.39h39.764Z" transform="translate(-63.76 -64)" fill="#2666fb"/>
      <g id="组_24904" data-name="组 24904" transform="translate(8.683 31.02)">
        <path id="路径_23883" data-name="路径 23883" d="M284.444,426.667h36.062a8.322,8.322,0,0,1,8.322,8.322v16.644a8.322,8.322,0,0,1-8.322,8.322h-27.74a8.322,8.322,0,0,1-8.322-8.322V426.667Z" transform="translate(-284.444 -418.345)" fill="rgba(255,255,255,0.9)"/>
        <path id="路径_23884" data-name="路径 23884" d="M369.778,625.778m2.081,0h23.579a1.839,1.839,0,0,1,2.08,2.081h0a1.839,1.839,0,0,1-2.08,2.081H371.859a1.839,1.839,0,0,1-2.081-2.081h0A1.839,1.839,0,0,1,371.859,625.778Z" transform="translate(-361.456 -598.037)" fill="#2f97fe"/>
        <path id="路径_23885" data-name="路径 23885" d="M289.992,341.333h12.189a8.322,8.322,0,0,1,6.927,3.706l3.076,4.616h-27.74v-2.774A5.548,5.548,0,0,1,289.992,341.333Z" transform="translate(-284.444 -341.333)" fill="rgba(255,255,255,0.5)"/>
      </g>
    </g>
    <path id="路径_23887" data-name="路径 23887" d="M660.9,417.683h23.618v9.443H660.9Zm0,22.521h23.618v9.443H660.9Zm0,22.521h23.618v9.443H660.9Z" transform="translate(6207.323 -22455.277)" fill="#2666fb"/>
  </g>
</svg>
