<svg xmlns="http://www.w3.org/2000/svg" width="16.125" height="10.072" viewBox="0 0 16.125 10.072">
  <g id="组_24739" data-name="组 24739" transform="translate(-11.408 -8.137)">
    <path id="路径_21840" data-name="路径 21840" d="M79.86,236.385a2.717,2.717,0,0,0-.342-.415,18.485,18.485,0,0,0-1.784-1.768,8.888,8.888,0,0,0-11.362,0,18.608,18.608,0,0,0-1.784,1.768,2.745,2.745,0,0,0-.342.414,1.382,1.382,0,0,0,0,1.6,2.7,2.7,0,0,0,.342.415,18.546,18.546,0,0,0,1.784,1.768,8.888,8.888,0,0,0,11.362,0,18.648,18.648,0,0,0,1.784-1.768,2.727,2.727,0,0,0,.342-.414A1.383,1.383,0,0,0,79.86,236.385Zm-1.239.972c-.074.088-.182.214-.324.373a16.487,16.487,0,0,1-1.587,1.559,7.412,7.412,0,0,1-9.4,0,16.411,16.411,0,0,1-1.588-1.56c-.051-.058-.111-.126-.17-.195a.5.5,0,0,1,0-.657l.17-.194a16.512,16.512,0,0,1,1.587-1.559,7.414,7.414,0,0,1,9.4,0,16.531,16.531,0,0,1,1.588,1.559c.1.111.227.262.321.373a.229.229,0,0,1,0,.3Z" transform="translate(-52.583 -224.014)" fill="#2666fb"/>
    <path id="路径_21841" data-name="路径 21841" d="M323.277,319.84a3.457,3.457,0,1,0,3.457,3.457A3.457,3.457,0,0,0,323.277,319.84Zm0,5.614a2.158,2.158,0,1,1,2.158-2.157,2.158,2.158,0,0,1-2.158,2.157Z" transform="translate(-303.806 -310.125)" fill="#2666fb"/>
  </g>
</svg>
