<?xml version="1.0" encoding="UTF-8"?>
<svg width="30px" height="30px" viewBox="0 0 30 30" version="1.1" xmlns="http://www.w3.org/2000/svg" xmlns:xlink="http://www.w3.org/1999/xlink">
    <title>yxy_qdtyjs_48_48</title>
    <g id="后台管理系统" stroke="none" stroke-width="1" fill="none" fill-rule="evenodd">
        <g id="qDate-首页（样式三）" transform="translate(-1427, -898)">
            <g id="yxy_qdtyjs_48_48" transform="translate(1427, 898)">
                <rect id="Rectangle-19-Copy-2备份" fill-opacity="0" fill="#D8D8D8" x="0" y="0" width="30" height="30" rx="6"></rect>
                <path d="M9.80550992,8.58591189 L12.3559037,11.5808052 C13.0584279,11.0962409 13.9101408,10.8125 14.828125,10.8125 C16.0688353,10.8125 17.1884871,11.3308133 17.9823641,12.1627237 L21.401124,9.4747131 L22.028598,10.2127869 L18.5404927,12.88544 C18.9507674,13.5501663 19.1875,14.3333747 19.1875,15.171875 C19.1875,16.0191373 18.9457941,16.8099462 18.5275742,17.4791095 L22.6944429,20.5947793 L22.1863732,21.4196077 L17.974696,18.1890414 C17.1812855,19.0162646 16.0648459,19.53125 14.828125,19.53125 C13.8189363,19.53125 12.8898415,19.1883272 12.1510093,18.6126504 L8.84825455,21.9304234 L8.21424545,21.1979556 L11.4506174,17.9282782 C10.8368856,17.1771527 10.46875,16.2175052 10.46875,15.171875 C10.46875,14.0483841 10.8937517,13.0241576 11.591753,12.2511978 L9.02821408,9.16408811 L9.80550992,8.58591189 Z" id="形状结合" fill="#2666FB"></path>
                <circle id="Oval-18-Copy-3" fill="#2666FB" cx="21.953125" cy="20.984375" r="2.421875"></circle>
                <circle id="Oval-18-Copy-2" fill="#2666FB" cx="22.09375" cy="9.5" r="1.9375"></circle>
                <circle id="Oval-18-Copy-4" fill="#2666FB" cx="8.125" cy="21.875" r="1.875"></circle>
                <circle id="Oval-18-Copy" fill="#2666FB" cx="8.75" cy="8.125" r="2.5"></circle>
            </g>
        </g>
    </g>
</svg>