<?xml version="1.0" encoding="UTF-8"?>
<svg width="30px" height="30px" viewBox="0 0 30 30" version="1.1" xmlns="http://www.w3.org/2000/svg" xmlns:xlink="http://www.w3.org/1999/xlink">
    <title>编组备份 2</title>
    <defs>
        <linearGradient x1="61.1939592%" y1="3.77988944%" x2="39.8310346%" y2="90.934914%" id="linearGradient-1">
            <stop stop-color="#FFFFFF" stop-opacity="0" offset="0%"></stop>
            <stop stop-color="#FDFDFD" offset="100%"></stop>
        </linearGradient>
        <linearGradient x1="61.1939592%" y1="3.77988944%" x2="39.8310346%" y2="90.934914%" id="linearGradient-2">
            <stop stop-color="#2666FB" stop-opacity="0" offset="0%"></stop>
            <stop stop-color="#2666FB" offset="100%"></stop>
        </linearGradient>
        <linearGradient x1="100%" y1="84.9664022%" x2="18.5160814%" y2="13.4340545%" id="linearGradient-3">
            <stop stop-color="#FFFFFF" stop-opacity="0" offset="0%"></stop>
            <stop stop-color="#FDFDFD" offset="100%"></stop>
        </linearGradient>
        <linearGradient x1="100%" y1="84.9664022%" x2="18.5160814%" y2="13.4340545%" id="linearGradient-4">
            <stop stop-color="#2666FB" stop-opacity="0" offset="0%"></stop>
            <stop stop-color="#2666FB" offset="100%"></stop>
        </linearGradient>
        <linearGradient x1="0%" y1="53.1646392%" x2="94.9983961%" y2="44.358356%" id="linearGradient-5">
            <stop stop-color="#FFFFFF" stop-opacity="0" offset="0%"></stop>
            <stop stop-color="#FDFDFD" offset="100%"></stop>
        </linearGradient>
        <linearGradient x1="0%" y1="53.1646392%" x2="94.9983961%" y2="44.358356%" id="linearGradient-6">
            <stop stop-color="#2666FB" stop-opacity="0" offset="0%"></stop>
            <stop stop-color="#2666FB" offset="100%"></stop>
        </linearGradient>
    </defs>
    <g id="后台管理系统" stroke="none" stroke-width="1" fill="none" fill-rule="evenodd">
        <g id="qDate切图" transform="translate(-337, -402)">
            <g id="编组备份-2" transform="translate(337, 402)">
                <g id="Group-7备份">
                    <rect id="Rectangle-25-Copy" fill-opacity="0" fill="#2666FB" x="0" y="0" width="30" height="30" rx="6"></rect>
                    <g id="编组-4" transform="translate(5, 5)">
                        <path d="M7.30971201,1.18679384 L7.56159689,1.99842293 C3.8535954,3.14918195 1.27472447,6.60731647 1.27472447,10.569122 C1.27472447,11.3225718 1.36711334,12.0628298 1.54718533,12.777646 C2.12115118,12.9029987 2.54944894,13.4153154 2.54944894,14.0281517 C2.54944894,14.7355771 1.97873535,15.3090587 1.27472447,15.3090587 C0.570713584,15.3090587 0,14.7355771 0,14.0281517 C0,13.528652 0.284529539,13.09593 0.699610617,12.8847107 C0.517763613,12.1352718 0.424908156,11.3585357 0.424908156,10.569122 C0.424908156,6.23297803 3.24802971,2.44731587 7.30971201,1.18679384 Z" id="Combined-Shape" fill="url(#linearGradient-2)"></path>
                        <path d="M10.1977957,0 C10.7431033,0 11.2084375,0.342406914 11.3905244,0.823946935 C16.2254392,1.41402596 19.9706833,5.55251716 19.9706833,10.569122 L19.120867,10.569122 C19.120867,6.02695741 15.7615215,2.27407742 11.404514,1.68203099 C11.234689,2.18740456 10.7585224,2.54944894 10.1977957,2.54944894 C9.49378486,2.54944894 8.92307127,1.97873535 8.92307127,1.27472447 C8.92307127,0.570713584 9.49378486,0 10.1977957,0 Z" id="Combined-Shape" fill="url(#linearGradient-4)"></path>
                        <path d="M19.120867,12.7472447 C19.8248779,12.7472447 20.3955915,13.3207263 20.3955915,14.0281517 C20.3955915,14.7355771 19.8248779,15.3090587 19.120867,15.3090587 C19.0040128,15.3090587 18.8908309,15.2932589 18.7833217,15.2636694 C17.1106656,18.3517963 13.8551542,20.3873481 10.1977957,20.3873481 C7.25319145,20.3873481 4.52188434,19.0705526 2.67666603,16.8388046 L3.33161124,16.2972932 C5.01719127,18.3359625 7.50949525,19.5375318 10.1977957,19.5375318 C13.5705282,19.5375318 16.5698626,17.6403843 18.0843166,14.7708331 C17.9336536,14.5616428 17.8461425,14.3051665 17.8461425,14.0281517 C17.8461425,13.3207263 18.4168561,12.7472447 19.120867,12.7472447 Z" id="Combined-Shape" fill="url(#linearGradient-6)" fill-rule="nonzero"></path>
                    </g>
                </g>
                <g id="编组-3" transform="translate(10.2665, 10)" fill="#2666FB">
                    <rect id="矩形备份" x="9.54330295" y="3.61413043" width="1.54891304" height="5.67934783" rx="0.774456522"></rect>
                    <path d="M10.385573,3.61413043 C10.2070136,3.72490814 10.1177338,3.84783924 10.1177338,3.98292376 L10.1177338,10.5551781 C10.1177338,10.9989486 9.75798679,11.3586957 9.31421632,11.3586957 C8.87044585,11.3586957 8.5106988,10.9989486 8.5106988,10.5551781 L8.51057301,8.81913043 L9.10926916,8.81926432 C9.20055765,8.81926432 9.27744234,8.73900136 9.30053478,8.62973922 L9.30762007,8.56111215 C9.30762007,8.41853864 9.21881534,8.30295997 9.10926916,8.30295997 L8.51057301,8.30213043 L8.51057301,7.27013043 L9.10926916,7.27035128 C9.20055765,7.27035128 9.27744234,7.19008831 9.30053478,7.08082618 L9.30762007,7.0121991 C9.30762007,6.86962559 9.21881534,6.75404693 9.10926916,6.75404693 L8.51057301,6.75313043 L8.51057301,5.72113043 L9.10926916,5.72143823 C9.20055765,5.72143823 9.27744234,5.64117527 9.30053478,5.53191313 L9.30762007,5.46328606 C9.30762007,5.32071255 9.21881534,5.20513389 9.10926916,5.20513389 L8.51057301,5.20513043 L8.5106988,3.61413043 L10.385573,3.61413043 Z" id="形状结合"></path>
                    <path d="M9.29347826,11.3586957 C9.09979689,11.2537368 8.95756679,11.125165 8.86678795,10.97298 C8.73061968,10.7447026 8.77717391,10.496223 8.77717391,10.3560871 C8.77717391,8.35529758 8.77717391,5.35411334 8.77717391,1.35253437 C8.77717391,0.605512036 8.14892355,0 7.37456845,0 L1.40260546,0 C0.628250362,0 0,0.605512036 0,1.35253437 L0,9.35869565 C-8.8817842e-16,10.4632652 0.8954305,11.3586957 2,11.3586957 L9.29347826,11.3586957 L9.29347826,11.3586957 Z M2.47962192,2.54633026 C2.47962192,2.30386485 2.67325527,2.1073078 2.91211412,2.1073078 L5.74847494,2.1073078 C5.98733379,2.1073078 6.18096714,2.30386485 6.18096714,2.54633026 C6.18096714,2.78879566 5.98733379,2.98535271 5.74847494,2.98535271 L2.91211412,2.98535271 C2.67325527,2.98535271 2.47962192,2.78879566 2.47962192,2.54633026 Z M2.47962192,4.61154765 C2.47962192,4.36908224 2.67325527,4.17252519 2.91211412,4.17252519 L5.74847494,4.17252519 C5.98733379,4.17252519 6.18096714,4.36908224 6.18096714,4.61154765 C6.18096714,4.85401306 5.98733379,5.05057011 5.74847494,5.05057011 L2.91211412,5.05057011 C2.67325527,5.05057011 2.47962192,4.85401306 2.47962192,4.61154765 Z M2.47962192,6.67676504 C2.47962192,6.43429963 2.67325527,6.23774258 2.91211412,6.23774258 L5.74847494,6.23774258 C5.98733379,6.23774258 6.18096714,6.43429963 6.18096714,6.67676504 C6.18096714,6.91923045 5.98733379,7.1157875 5.74847494,7.1157875 L2.91211412,7.1157875 C2.67325527,7.1157875 2.47962192,6.91923045 2.47962192,6.67676504 Z" id="形状" fill-rule="nonzero"></path>
                </g>
            </g>
        </g>
    </g>
</svg>