<?xml version="1.0" encoding="UTF-8"?>
<svg width="30px" height="30px" viewBox="0 0 30 30" version="1.1" xmlns="http://www.w3.org/2000/svg" xmlns:xlink="http://www.w3.org/1999/xlink">
    <title>编组 5备份</title>
    <g id="后台管理系统" stroke="none" stroke-width="1" fill="none" fill-rule="evenodd">
        <g id="qDate切图" transform="translate(-417, -402)">
            <g id="编组-4" transform="translate(417, 402)">
                <g id="default_48_48-copy-2备份-2" fill="#F4984E" fill-opacity="0">
                    <rect id="Rectangle-1" x="0" y="0" width="30" height="30" rx="6"></rect>
                </g>
                <g id="编组" transform="translate(5.625, 5.625)" fill="#2666FB" fill-rule="nonzero">
                    <path d="M9.375,18.75 C4.197,18.75 0,14.553 0,9.375 C0,4.197 4.197,0 9.375,0 C14.553,0 18.75,4.197 18.75,9.375 C18.75,14.553 14.553,18.75 9.375,18.75 Z M4.383,11.97 C5.35133717,13.8322865 7.27600317,15.0005033 9.375,15.0000002 C11.4739968,15.0005033 13.3986628,13.8322865 14.367,11.97 C14.1150146,11.9107213 13.8911815,11.7663555 13.73325,11.56125 C12.9061029,13.2097879 11.2194103,14.2503649 9.375,14.25 C7.53058966,14.2503649 5.84389708,13.2097879 5.01675,11.56125 C4.85881853,11.7663555 4.63498543,11.9107213 4.383,11.97 L4.383,11.97 Z M3.7665,9.8085 C4.01172013,9.72581434 4.27796669,9.73031802 4.52025,9.82125 C4.29450394,7.36199523 5.94285277,5.12221227 8.358,4.6065 C8.2471419,4.3726618 8.22064171,4.10765984 8.283,3.8565 C5.4873496,4.41030307 3.54730054,6.96696686 3.7665,9.8085 L3.7665,9.8085 Z M10.46775,3.85575 C10.5294867,4.10695421 10.5030076,4.37174521 10.39275,4.60575 C12.8079046,5.12181756 14.4559556,7.36195572 14.22975,9.82125 C14.4720216,9.73025664 14.7382895,9.7257526 14.9835,9.8085 C15.2027558,6.96720314 13.2630994,4.41063227 10.46775,3.8565 L10.46775,3.85575 Z M9.375,4.5 C9.58210678,4.5 9.75,4.33210678 9.75,4.125 C9.75,3.91789322 9.58210678,3.75 9.375,3.75 C9.16789322,3.75 9,3.91789322 9,4.125 C9,4.33210678 9.16789322,4.5 9.375,4.5 L9.375,4.5 Z M4.125,11.25 C4.33210678,11.25 4.5,11.0821068 4.5,10.875 C4.5,10.6678932 4.33210678,10.5 4.125,10.5 C3.91789322,10.5 3.75,10.6678932 3.75,10.875 C3.75,11.0821068 3.91789322,11.25 4.125,11.25 Z M14.625,11.25 C14.8321068,11.25 15,11.0821068 15,10.875 C15,10.6678932 14.8321068,10.5 14.625,10.5 C14.4178932,10.5 14.25,10.6678932 14.25,10.875 C14.25,11.0821068 14.4178932,11.25 14.625,11.25 L14.625,11.25 Z M9.375,12.75 C10.5807714,12.75 11.6949501,12.1067287 12.2978358,11.0625 C12.9007215,10.0182714 12.9007215,8.73172863 12.2978358,7.68749999 C11.6949501,6.64327134 10.5807714,6 9.375,6 C7.51103897,6 6,7.51103897 6,9.375 C6,11.238961 7.51103897,12.75 9.375,12.75 L9.375,12.75 Z" id="形状"></path>
                </g>
            </g>
        </g>
    </g>
</svg>