<?xml version="1.0" encoding="UTF-8"?>
<svg width="30px" height="30px" viewBox="0 0 30 30" version="1.1" xmlns="http://www.w3.org/2000/svg" xmlns:xlink="http://www.w3.org/1999/xlink">
    <title>gzlfw_lzrz_48_48备份</title>
    <g id="后台管理系统" stroke="none" stroke-width="1" fill="none" fill-rule="evenodd">
        <g id="qDate切图" transform="translate(-377, -402)">
            <g id="Group-11" transform="translate(377, 402)">
                <rect id="Rectangle-19-Copy-4" fill-opacity="0" fill="#D8D8D8" x="0" y="0" width="30" height="30" rx="6"></rect>
                <g id="Group-4" transform="translate(6.8768, 6.25)" fill="#2666FB">
                    <path d="M15.6231841,0 L15.6231841,16.875 L2.24818408,16.875 C1.69589933,16.875 1.24818408,16.4272847 1.24818408,15.875 L1.24818408,13.75 L2.62318408,13.75 C2.86864397,13.75 3.07279245,13.5731248 3.11512841,13.3398756 L3.12318408,13.25 L3.12318408,11.7499829 C3.12318408,11.4738406 2.89932645,11.2499829 2.62318408,11.2499829 L1.24818408,11.249 L1.24818408,9.374 L2.62318408,9.375 C2.86864397,9.375 3.07279245,9.19812484 3.11512841,8.96487563 L3.12318408,8.875 L3.12318408,7.37498295 C3.12318408,7.09884057 2.89932645,6.87498295 2.62318408,6.87498295 L1.24818408,6.874 L1.24818408,5 L2.62318408,5 C2.86864397,5 3.07279245,4.82312484 3.11512841,4.58987563 L3.12318408,4.5 L3.12318408,2.99998295 C3.12318408,2.72384057 2.89932645,2.49998295 2.62318408,2.49998295 L1.24818408,2.499 L1.24818408,1 C1.24818408,0.44771525 1.69589933,0 2.24818408,-1.11022302e-16 L15.6231841,0 Z M12.3731841,5.72275697 C12.0970417,5.72275697 11.8731841,5.9466146 11.8731841,6.22275697 L11.8731841,6.25 L10.0169426,6.25 C9.87692495,6.25 9.11393401,6.97950783 8.30655365,7.79579351 C7.53198798,6.98049623 6.82463158,6.25 6.78608633,6.25 L4.37318408,6.25 L4.37318408,7.52016129 L6.52596186,7.52016129 C6.51524973,7.52016129 6.94176623,8.00352788 7.50129712,8.6222445 C6.99545897,9.14746282 6.55430617,9.61727283 6.33950636,9.85168421 L6.24992715,9.95044728 C6.21589464,9.98858418 6.19860756,10.0091768 6.20080994,10.0091768 L4.37649589,10.0091768 L4.37649589,11.2591768 L6.73995038,11.2591768 C6.82202168,11.2591768 7.59493335,10.4668507 8.40418059,9.60970956 C9.19105357,10.4617182 9.9467601,11.25 10.037373,11.25 L11.8731841,11.25 L11.8731841,11.2742824 C11.8731841,11.3818612 11.9078506,11.4858122 11.9709229,11.5712475 L12.0234554,11.6316195 C12.2208073,11.8247693 12.5373715,11.8213629 12.7305213,11.624011 L13.7082611,10.625 L12.7305213,9.62598898 C12.6364627,9.52988416 12.5076577,9.47571764 12.3731841,9.47571764 C12.0970417,9.47571764 11.8731841,9.69957527 11.8731841,9.97571764 L10.3454063,9.97983871 C10.3568454,9.97983871 9.84635696,9.42863493 9.20858578,8.75001985 C9.8480706,8.06106989 10.3569022,7.5 10.3454063,7.5 L11.8731841,7.5 L11.8731841,7.52724303 C11.8731841,7.66142299 11.927115,7.78997223 12.0228509,7.8839876 C12.2198755,8.07747125 12.536445,8.07460076 12.7299287,7.87757617 L13.7144865,6.875 L12.7299287,5.87242383 C12.6359133,5.77668789 12.507364,5.72275697 12.3731841,5.72275697 Z" id="形状结合"></path>
                    <path d="M0.5,3.125 L1.99818408,3.125 C2.27432645,3.125 2.49818408,3.34885763 2.49818408,3.625 L2.49818408,3.875 C2.49818408,4.15114237 2.27432645,4.375 1.99818408,4.375 L0.5,4.375 C0.223857625,4.375 0,4.15114237 0,3.875 L0,3.625 C0,3.34885763 0.223857625,3.125 0.5,3.125 Z M0.5,7.5 L1.99818408,7.5 C2.27432645,7.5 2.49818408,7.72385763 2.49818408,8 L2.49818408,8.25 C2.49818408,8.52614237 2.27432645,8.75 1.99818408,8.75 L0.5,8.75 C0.223857625,8.75 0,8.52614237 0,8.25 L0,8 C0,7.72385763 0.223857625,7.5 0.5,7.5 Z M0.5,11.875 L1.99818408,11.875 C2.27432645,11.875 2.49818408,12.0988576 2.49818408,12.375 L2.49818408,12.625 C2.49818408,12.9011424 2.27432645,13.125 1.99818408,13.125 L0.5,13.125 C0.223857625,13.125 0,12.9011424 0,12.625 L0,12.375 C0,12.0988576 0.223857625,11.875 0.5,11.875 Z" id="Combined-Shape"></path>
                </g>
            </g>
        </g>
    </g>
</svg>