<svg xmlns="http://www.w3.org/2000/svg" width="13.113" height="11.926" viewBox="0 0 13.113 11.926">
  <path id="路径_23817" data-name="路径 23817" d="M47.508,51.219,42.078,56.65a.512.512,0,0,0,0,.724L47.508,62.8a.512.512,0,0,0,.874-.362V59.454l.1.006a7.284,7.284,0,0,1,5.391,2.951l.292.4A.461.461,0,0,0,55,62.561l.031-.491q.014-.225.014-.45V61.5a7.042,7.042,0,0,0-6.578-6.911l-.079,0V51.581a.512.512,0,0,0-.874-.362ZM47.1,53.435v2.453l.759-.027h.233a5.764,5.764,0,0,1,5.475,4.285l.024.094-.06-.051A8.555,8.555,0,0,0,48,58.164q-.138,0-.276,0l-.62.02v2.4l-3.576-3.576Z" transform="translate(-41.927 -51.068)" fill="#FF7A00"/>
</svg>
