<svg xmlns="http://www.w3.org/2000/svg" width="11.181" height="11.91" viewBox="0 0 11.181 11.91">
  <g id="组_24734" data-name="组 24734" transform="translate(-38.3 -6.301)">
    <path id="路径_23410" data-name="路径 23410" d="M47.828,18.111H40.02a1.635,1.635,0,0,1-1.62-1.62V8.02A1.635,1.635,0,0,1,40.02,6.4h7.734a1.635,1.635,0,0,1,1.62,1.62v4.935a.475.475,0,0,1-.442.442.412.412,0,0,1-.368-.442V8.02a.738.738,0,0,0-.737-.737H40.02a.738.738,0,0,0-.737.737v8.47a.738.738,0,0,0,.737.737h7.734a.738.738,0,0,0,.737-.737V15.018a.442.442,0,1,1,.884,0v1.473a1.528,1.528,0,0,1-1.547,1.62Z" fill="#3d446e" stroke="#3d446e" stroke-width="0.2"/>
    <path id="路径_23411" data-name="路径 23411" d="M198.842,262.842m-.442,0a.442.442,0,1,0,.442-.442A.442.442,0,0,0,198.4,262.842Z" transform="translate(-158.159 -253.054)" fill="#3d446e" stroke="#3d446e" stroke-width="0.2"/>
    <path id="路径_23412" data-name="路径 23412" d="M350.682,263.284h-4.64a.425.425,0,0,1-.442-.442.475.475,0,0,1,.442-.442h4.64a.442.442,0,1,1,0,.884Z" transform="translate(-303.665 -253.054)" fill="#3d446e" stroke="#3d446e" stroke-width="0.2"/>
    <path id="路径_23413" data-name="路径 23413" d="M198.842,474.042m-.442,0a.442.442,0,1,0,.442-.442A.442.442,0,0,0,198.4,474.042Z" transform="translate(-158.159 -461.823)" fill="#3d446e" stroke="#3d446e" stroke-width="0.2"/>
    <path id="路径_23414" data-name="路径 23414" d="M350.682,474.484h-4.64a.425.425,0,0,1-.442-.442.475.475,0,0,1,.442-.442h4.64a.442.442,0,1,1,0,.884Z" transform="translate(-303.665 -461.823)" fill="#3d446e" stroke="#3d446e" stroke-width="0.2"/>
    <path id="路径_23415" data-name="路径 23415" d="M198.842,685.242m-.442,0a.442.442,0,1,0,.442-.442A.442.442,0,0,0,198.4,685.242Z" transform="translate(-158.159 -670.592)" fill="#3d446e" stroke="#3d446e" stroke-width="0.2"/>
    <path id="路径_23416" data-name="路径 23416" d="M350.682,685.684h-4.64a.442.442,0,0,1,0-.884h4.64a.475.475,0,0,1,.442.442A.425.425,0,0,1,350.682,685.684Z" transform="translate(-303.665 -670.592)" fill="#3d446e" stroke="#3d446e" stroke-width="0.2"/>
  </g>
</svg>
