<svg xmlns="http://www.w3.org/2000/svg" width="11.939" height="12.088" viewBox="0 0 11.939 12.088">
  <g id="组_24747" data-name="组 24747" transform="translate(-97.789 -113.498)">
    <path id="路径_23821" data-name="路径 23821" d="M393.6,125.606a.539.539,0,0,1-.539-.539v-3.1a.537.537,0,0,1,.122-.342l6.487-7.905a.54.54,0,0,1,.951.417l-1.476,10.507a.538.538,0,0,1-.778.4L395,123.329a.539.539,0,1,1,.489-.96l2.695,1.372,1.1-7.857-5.147,6.271v2.911A.54.54,0,0,1,393.6,125.606Z" transform="translate(-290.901 -0.02)" fill="#039792"/>
    <path id="路径_23822" data-name="路径 23822" d="M101.077,121.738a.552.552,0,0,1-.246-.059l-2.751-1.42a.54.54,0,0,1,0-.956l10.861-5.742a.539.539,0,1,1,.5.953l-9.949,5.261,1.834.947a.539.539,0,0,1-.248,1.018Z" transform="translate(0)" fill="#039792"/>
  </g>
</svg>
