<svg id="组_24733" data-name="组 24733" xmlns="http://www.w3.org/2000/svg" width="15.781" height="15.781" viewBox="0 0 15.781 15.781">
  <path id="路径_23403" data-name="路径 23403" d="M0,0,0,0H15.781V15.781H0V0Z" fill="#e8eff8"/>
  <path id="路径_23404" data-name="路径 23404" d="M139.636,628.722a.359.359,0,0,1,.359-.359h10.76a.359.359,0,0,1,.359.359v1.793a.359.359,0,0,1-.359.359h-10.76a.359.359,0,0,1-.359-.359v-1.793Z" transform="translate(-137.484 -618.679)" fill="#2666fb"/>
  <path id="路径_23405" data-name="路径 23405" d="M139.636,213.041a.359.359,0,0,1,.359-.359h6.1a.359.359,0,0,1,.359.359v1.793a.359.359,0,0,1-.359.359h-6.1a.359.359,0,0,1-.359-.359v-1.793Zm6.815-3.228a.359.359,0,0,0-.359-.359h-6.1a.359.359,0,0,0-.359.359v1.793a.359.359,0,0,0,.359.359h6.1a.359.359,0,0,0,.359-.359v-1.793Z" transform="translate(-137.484 -206.226)" fill="#2666fb"/>
  <path id="路径_23406" data-name="路径 23406" d="M653.429,259.586a1.793,1.793,0,1,0-1.793-1.793A1.793,1.793,0,0,0,653.429,259.586Z" transform="translate(-641.593 -252.054)" fill="#2666fb"/>
</svg>
