<svg xmlns="http://www.w3.org/2000/svg" width="15.781" height="15.781" viewBox="0 0 15.781 15.781">
  <g id="组_24732" data-name="组 24732" transform="translate(-1736 -462.219)">
    <g id="组_24204" data-name="组 24204" transform="translate(1736 462.219)">
      <path id="路径_23403" data-name="路径 23403" d="M0,0,0,0H15.781V15.781H0V0Z" fill="#e8eff8"/>
    </g>
    <path id="路径_23408" data-name="路径 23408" d="M224.583,222.641l-2.1-3.8.243-.728a2.753,2.753,0,0,0,.081-.809,3.284,3.284,0,0,0-.324-1.538,4.536,4.536,0,0,0-.809-1.214,3.2,3.2,0,0,0-1.214-.809,2.209,2.209,0,0,0-1.457-.4,3.284,3.284,0,0,0-1.538.324,3.985,3.985,0,0,0-1.214.809,3.2,3.2,0,0,0-.809,1.214,3.284,3.284,0,0,0-.324,1.538,2.5,2.5,0,0,0,.081.809c.081.243.162.486.243.809l-2.1,3.8v.162c0,.081,0,.162.081.162,0,.081.081.081.162.162h.162l1.781-.4.647,1.7c0,.081.081.081.081.162a.3.3,0,0,0,.243.081c.081,0,.081,0,.162-.081.081,0,.081-.081.162-.162l1.781-3.4h.647l1.861,3.4c0,.081.081.081.162.162.162.081.162.081.243.081s.162,0,.162-.081.081-.081.081-.162l.647-1.7,1.781.4h.162c.081,0,.081-.081.162-.081a.251.251,0,0,0,.081-.162C224.664,222.722,224.664,222.722,224.583,222.641ZM219,220.294a3.074,3.074,0,0,1-3.075-3.075A3.006,3.006,0,0,1,219,214.224a3.074,3.074,0,0,1,3.075,3.075A3.006,3.006,0,0,1,219,220.294Zm-2.428-3.075A2.506,2.506,0,0,0,219,219.727a2.453,2.453,0,0,0,2.428-2.509A2.506,2.506,0,0,0,219,214.709,2.56,2.56,0,0,0,216.57,217.218Z" transform="translate(1524.902 251.109)" fill="#ffab47"/>
  </g>
</svg>
