<?xml version="1.0" encoding="UTF-8"?>
<svg width="16px" height="16px" viewBox="0 0 16 16" version="1.1" xmlns="http://www.w3.org/2000/svg" xmlns:xlink="http://www.w3.org/1999/xlink">
    <title>account-pin-box-line</title>
    <g id="页面-1" stroke="none" stroke-width="0" fill="none" fill-rule="evenodd">
        <g id="account-pin-box-line">
            <polygon id="路径" points="0 0 16 0 16 16 0 16"></polygon>
            <path d="M9.33333333,14 L8,15.3333333 L6.66666667,14 L3.33006,14 C2.59548667,14 2,13.4049333 2,12.6699333 L2,3.33006 C2,2.59548667 2.59508,2 3.33006,2 L12.6699333,2 C13.4045333,2 14,2.59508 14,3.33006 L14,12.6699333 C14,13.4045333 13.4049333,14 12.6699333,14 L9.33333333,14 Z M12.6666667,12.6666667 L12.6666667,3.33333333 L3.33333333,3.33333333 L3.33333333,12.6666667 L7.21893333,12.6666667 L8,13.4477333 L8.78106667,12.6666667 L12.6666667,12.6666667 Z M5.31477333,12.1205333 C4.90231333,11.9419333 4.51146,11.7228667 4.14722,11.4682667 C4.97848667,10.1835333 6.42401333,9.33333333 8.06813333,9.33333333 C9.66766667,9.33333333 11.0792667,10.1380667 11.9200667,11.3648 C11.5625333,11.6290667 11.1776,11.8584667 10.7703333,12.0478667 C10.1648,11.2110667 9.18,10.6666667 8.06813333,10.6666667 C6.92433333,10.6666667 5.91514,11.2427333 5.31477333,12.1205333 Z M8,8.66666667 C6.71133333,8.66666667 5.66666667,7.622 5.66666667,6.33333333 C5.66666667,5.04466667 6.71133333,4 8,4 C9.28866667,4 10.3333333,5.04466667 10.3333333,6.33333333 C10.3333333,7.622 9.28866667,8.66666667 8,8.66666667 Z M8,7.33333333 C8.55226667,7.33333333 9,6.8856 9,6.33333333 C9,5.78104667 8.55226667,5.33333333 8,5.33333333 C7.44773333,5.33333333 7,5.78104667 7,6.33333333 C7,6.8856 7.44773333,7.33333333 8,7.33333333 Z" id="形状" fill="currentColor" fill-rule="nonzero"></path>
        </g>
    </g>
</svg>
