<?xml version="1.0" encoding="UTF-8"?>
<svg width="16px" height="16px" viewBox="0 0 16 16" version="1.1" xmlns="http://www.w3.org/2000/svg" xmlns:xlink="http://www.w3.org/1999/xlink">
    <title>account-box-2-line</title>
    <g id="页面-1" stroke="none" stroke-width="0" fill="none" fill-rule="evenodd">
        <g id="account-box-2-line">
            <polygon id="路径" points="0 0 16 0 16 16 0 16"></polygon>
            <path d="M3.33006,2 C2.59508,2 2,2.59548667 2,3.33006 L2,12.6699333 C2,13.4049333 2.59548667,14 3.33006,14 L12.6699333,14 C13.4049333,14 14,13.4045333 14,12.6699333 L14,3.33006 C14,2.59508 13.4045333,2 12.6699333,2 L3.33006,2 Z M3.33333333,12.6666667 L3.33333333,3.33333333 L12.6666667,3.33333333 L12.6666667,12.6666667 L3.33333333,12.6666667 Z M8,5.33333333 C8.3682,5.33333333 8.66666667,5.63181333 8.66666667,6 C8.66666667,6.36818667 8.3682,6.66666667 8,6.66666667 C7.6318,6.66666667 7.33333333,6.36818667 7.33333333,6 C7.33333333,5.63181333 7.6318,5.33333333 8,5.33333333 Z M8,8 C9.1046,8 10,7.1046 10,6 C10,4.89543333 9.1046,4 8,4 C6.8954,4 6,4.89543333 6,6 C6,7.1046 6.8954,8 8,8 Z M8,10 C7.2636,10 6.66666667,10.5969333 6.66666667,11.3333333 L5.33333333,11.3333333 C5.33333333,9.8606 6.52724,8.66666667 8,8.66666667 C9.47273333,8.66666667 10.6666667,9.8606 10.6666667,11.3333333 L9.33333333,11.3333333 C9.33333333,10.5969333 8.7364,10 8,10 Z" id="形状" fill="currentColor" fill-rule="nonzero"></path>
        </g>
    </g>
</svg>
