<?xml version="1.0" encoding="UTF-8"?>
<svg width="16px" height="16px" viewBox="0 0 16 16" version="1.1" xmlns="http://www.w3.org/2000/svg" xmlns:xlink="http://www.w3.org/1999/xlink">
    <title>archive-line</title>
    <g id="页面-1" stroke="none" stroke-width="0" fill="none" fill-rule="evenodd">
        <g id="archive-line">
            <polygon id="路径" points="0 0 16 0 16 16 0 16"></polygon>
            <path d="M2,6.66666667 L1.33333333,6.66666667 L1.33333333,2.66862 C1.33333333,2.29935333 1.63687333,2 1.99453333,2 L14.0054667,2 C14.3706667,2 14.6666667,2.29192 14.6666667,2.66862 L14.6666667,6.66666667 L14,6.66666667 L14,13.3343333 C14,13.702 13.7034,14 13.3377333,14 L2.66226667,14 C2.29650667,14 2,13.7016667 2,13.3343333 L2,6.66666667 Z M12.6666667,6.66666667 L3.33333333,6.66666667 L3.33333333,12.6666667 L12.6666667,12.6666667 L12.6666667,6.66666667 Z M2.66666667,3.33333333 L2.66666667,5.33333333 L13.3333333,5.33333333 L13.3333333,3.33333333 L2.66666667,3.33333333 Z M6,8 L10,8 L10,9.33333333 L6,9.33333333 L6,8 Z" id="形状" fill="currentColor" fill-rule="nonzero"></path>
        </g>
    </g>
</svg>
