<?xml version="1.0" encoding="UTF-8"?>
<svg width="16px" height="16px" viewBox="0 0 16 16" version="1.1" xmlns="http://www.w3.org/2000/svg" xmlns:xlink="http://www.w3.org/1999/xlink">
    <title>archive-2-line</title>
    <g id="页面-1" stroke="none" stroke-width="0" fill="none" fill-rule="evenodd">
        <g id="archive-2-line">
            <polygon id="路径" points="0 0 16 0 16 16 0 16"></polygon>
            <path d="M14.6666667,13.3333333 L14.6666667,4.66666667 L13.3333333,2 L2.66666667,2 L1.33333333,4.66902 L1.33333333,13.3333333 C1.33333333,13.7015333 1.63181333,14 2,14 L14,14 C14.3682,14 14.6666667,13.7015333 14.6666667,13.3333333 Z M2.66666667,6 L13.3333333,6 L13.3333333,12.6666667 L2.66666667,12.6666667 L2.66666667,6 Z M3.49066667,3.33333333 L12.5093333,3.33333333 L13.176,4.66666667 L2.82466667,4.66666667 L3.49066667,3.33333333 Z M10,7.33333333 L6,7.33333333 L6,8.66666667 L10,8.66666667 L10,7.33333333 Z" id="形状" fill="currentColor" fill-rule="nonzero"></path>
        </g>
    </g>
</svg>
