<?xml version="1.0" encoding="UTF-8"?>
<svg width="16px" height="16px" viewBox="0 0 16 16" version="1.1" xmlns="http://www.w3.org/2000/svg" xmlns:xlink="http://www.w3.org/1999/xlink">
    <title>archive-drawer-line</title>
    <g id="页面-1" stroke="none" stroke-width="0" fill="none" fill-rule="evenodd">
        <g id="archive-drawer-line">
            <polygon id="路径" points="0 0 16 0 16 16 0 16"></polygon>
            <path d="M2,1.99453333 C2,1.62936667 2.29663333,1.33333333 2.66226667,1.33333333 L13.3377333,1.33333333 C13.7034667,1.33333333 14,1.63687333 14,1.99453333 L14,14.0054667 C14,14.3706667 13.7034,14.6666667 13.3377333,14.6666667 L2.66226667,14.6666667 C2.29650667,14.6666667 2,14.3631333 2,14.0054667 L2,1.99453333 Z M12.6666667,7.33333333 L12.6666667,2.66666667 L3.33333333,2.66666667 L3.33333333,7.33333333 L12.6666667,7.33333333 Z M12.6666667,8.66666667 L3.33333333,8.66666667 L3.33333333,13.3333333 L12.6666667,13.3333333 L12.6666667,8.66666667 Z M6,4 L10,4 L10,5.33333333 L6,5.33333333 L6,4 Z M6,10 L10,10 L10,11.3333333 L6,11.3333333 L6,10 Z" id="形状" fill="currentColor" fill-rule="nonzero"></path>
        </g>
    </g>
</svg>
