<?xml version="1.0" encoding="UTF-8"?>
<svg width="16px" height="16px" viewBox="0 0 16 16" version="1.1" xmlns="http://www.w3.org/2000/svg" xmlns:xlink="http://www.w3.org/1999/xlink">
    <title>article-line</title>
    <g id="页面-1" stroke="none" stroke-width="0" fill="none" fill-rule="evenodd">
        <g id="article-line">
            <polygon id="路径" points="0 0 16 0 16 16 0 16"></polygon>
            <path d="M13.3333333,14.6666667 L2.66666667,14.6666667 C2.29848,14.6666667 2,14.3682 2,14 L2,2 C2,1.63181333 2.29848,1.33333333 2.66666667,1.33333333 L13.3333333,1.33333333 C13.7015333,1.33333333 14,1.63181333 14,2 L14,14 C14,14.3682 13.7015333,14.6666667 13.3333333,14.6666667 Z M12.6666667,13.3333333 L12.6666667,2.66666667 L3.33333333,2.66666667 L3.33333333,13.3333333 L12.6666667,13.3333333 Z M4.66666667,4 L7.33333333,4 L7.33333333,6.66666667 L4.66666667,6.66666667 L4.66666667,4 Z M4.66666667,8 L11.3333333,8 L11.3333333,9.33333333 L4.66666667,9.33333333 L4.66666667,8 Z M4.66666667,10.6666667 L11.3333333,10.6666667 L11.3333333,12 L4.66666667,12 L4.66666667,10.6666667 Z M8.66666667,4.66666667 L11.3333333,4.66666667 L11.3333333,6 L8.66666667,6 L8.66666667,4.66666667 Z" id="形状" fill="currentColor" fill-rule="nonzero"></path>
        </g>
    </g>
</svg>
