<?xml version="1.0" encoding="UTF-8"?>
<svg width="16px" height="16px" viewBox="0 0 16 16" version="1.1" xmlns="http://www.w3.org/2000/svg" xmlns:xlink="http://www.w3.org/1999/xlink">
    <title>bnb-line</title>
    <g id="页面-1" stroke="none" stroke-width="0" fill="none" fill-rule="evenodd">
        <g id="bnb-line">
            <polygon id="路径" points="0 0 16 0 16 16 0 16"></polygon>
            <path d="M7.99993333,13.7926667 L6.66052667,13.0172 L6.65868,14.5568 L8,15.3333333 L9.341,14.557 L9.33913333,13.0174 L7.99993333,13.7926667 Z M10.6715333,12.246 L10.6734,13.7856 L14.3333333,11.6666667 L14.3333333,7.43046667 L13,8.19813333 L13,10.8979333 L10.6715333,12.246 Z M13,6.6596 L14.3333333,5.89192667 L14.3333333,4.33333333 L13.0027333,3.56298667 L11.6721333,4.33332 L13,5.10207333 L13,6.6596 Z M10.3416,3.56298667 L11.6721333,2.79265333 L8,0.666666667 L4.32777333,2.79269333 L5.65834667,3.56302667 L7.99993333,2.20736 L10.3416,3.56298667 Z M4.32777333,4.33336 L2.99719333,3.56302667 L1.66666667,4.33333333 L1.66666667,5.8922 L2.99996,6.65984667 L2.99996,5.10209333 L4.32777333,4.33336 Z M1.66666667,7.43073333 L2.99996,8.1984 L2.99996,10.8979333 L5.32811333,12.2458 L5.32627333,13.7854 L1.66666667,11.6666667 L1.66666667,7.43073333 Z M11.6666,5.87083333 L10.3415333,5.10367333 L7.99993333,6.45934667 L5.65838667,5.10367333 L4.33333333,5.87085333 L4.33333333,7.42753333 L6.66560667,8.77033333 L6.66236667,11.4776 L7.99993333,12.252 L9.33726667,11.4778 L9.33406667,8.77026667 L11.6666,7.42726667 L11.6666,5.87083333 Z M5.32996,10.7062667 L5.33135333,9.54066667 L4.33333333,8.96606667 L4.33333333,10.1292667 L5.32996,10.7062667 Z M6.98893333,4.33338667 L7.99993333,4.91868 L9.01093333,4.33334 L8,3.74804667 L6.98893333,4.33338667 Z M10.6683333,9.5406 L11.6666,8.96586667 L11.6666,10.1292 L10.6697333,10.7064 L10.6683333,9.5406 Z" id="形状" fill="currentColor" fill-rule="nonzero"></path>
        </g>
    </g>
</svg>
