<?xml version="1.0" encoding="UTF-8"?>
<svg width="16px" height="16px" viewBox="0 0 16 16" version="1.1" xmlns="http://www.w3.org/2000/svg" xmlns:xlink="http://www.w3.org/1999/xlink">
    <title>book-2-line</title>
    <g id="页面-1" stroke="none" stroke-width="0" fill="none" fill-rule="evenodd">
        <g id="book-2-line">
            <polygon id="路径" points="0 0 16 0 16 16 0 16"></polygon>
            <path d="M14,12 L4,12 C3.63181333,12 3.33333333,12.2984667 3.33333333,12.6666667 C3.33333333,13.0348667 3.63181333,13.3333333 4,13.3333333 L14,13.3333333 L14,14.6666667 L4,14.6666667 C2.89543333,14.6666667 2,13.7712667 2,12.6666667 L2,2.66666667 C2,1.93028667 2.59695333,1.33333333 3.33333333,1.33333333 L14,1.33333333 L14,12 Z M3.33333333,10.7 C3.44104,10.6781333 3.55251333,10.6666667 3.66666667,10.6666667 L12.6666667,10.6666667 L12.6666667,2.66666667 L3.33333333,2.66666667 L3.33333333,10.7 Z M10.6666667,6 L5.33333333,6 L5.33333333,4.66666667 L10.6666667,4.66666667 L10.6666667,6 Z" id="形状" fill="currentColor" fill-rule="nonzero"></path>
        </g>
    </g>
</svg>
