<?xml version="1.0" encoding="UTF-8"?>
<svg width="16px" height="16px" viewBox="0 0 16 16" version="1.1" xmlns="http://www.w3.org/2000/svg" xmlns:xlink="http://www.w3.org/1999/xlink">
    <title>book-3-line</title>
    <g id="页面-1" stroke="none" stroke-width="0" fill="none" fill-rule="evenodd">
        <g id="book-3-line">
            <polygon id="路径" points="0 0 16 0 16 16 0 16"></polygon>
            <path d="M14,2.66666667 L4.66666667,2.66666667 C3.93028667,2.66666667 3.33333333,3.26362 3.33333333,4 C3.33333333,4.73638 3.93028667,5.33333333 4.66666667,5.33333333 L14,5.33333333 L14,14 C14,14.3682 13.7015333,14.6666667 13.3333333,14.6666667 L4.66666667,14.6666667 C3.19390667,14.6666667 2,13.4727333 2,12 L2,4 C2,2.52724 3.19390667,1.33333333 4.66666667,1.33333333 L13.3333333,1.33333333 C13.7015333,1.33333333 14,1.63181333 14,2 L14,2.66666667 Z M3.33333333,12 C3.33333333,12.7364 3.93028667,13.3333333 4.66666667,13.3333333 L12.6666667,13.3333333 L12.6666667,6.66666667 L4.66666667,6.66666667 C4.18095333,6.66666667 3.72556667,6.53680667 3.33333333,6.30991333 L3.33333333,12 Z M13.3333333,4.66666667 L4.66666667,4.66666667 C4.29848,4.66666667 4,4.36818667 4,4 C4,3.63181333 4.29848,3.33333333 4.66666667,3.33333333 L13.3333333,3.33333333 L13.3333333,4.66666667 Z" id="形状" fill="currentColor" fill-rule="nonzero"></path>
        </g>
    </g>
</svg>
