<?xml version="1.0" encoding="UTF-8"?>
<svg width="16px" height="16px" viewBox="0 0 16 16" version="1.1" xmlns="http://www.w3.org/2000/svg" xmlns:xlink="http://www.w3.org/1999/xlink">
    <title>book-line</title>
    <g id="页面-1" stroke="none" stroke-width="0" fill="none" fill-rule="evenodd">
        <g id="book-line">
            <polygon id="路径" points="0 0 16 0 16 16 0 16"></polygon>
            <path d="M2,12.3333333 L2,3.33333333 C2,2.22876667 2.89543333,1.33333333 4,1.33333333 L13.3333333,1.33333333 C13.7015333,1.33333333 14,1.63181333 14,2 L14,14 C14,14.3682 13.7015333,14.6666667 13.3333333,14.6666667 L4.33333333,14.6666667 C3.04466667,14.6666667 2,13.622 2,12.3333333 Z M12.6666667,13.3333333 L12.6666667,11.3333333 L4.33333333,11.3333333 C3.78104667,11.3333333 3.33333333,11.7810667 3.33333333,12.3333333 C3.33333333,12.8856 3.78104667,13.3333333 4.33333333,13.3333333 L12.6666667,13.3333333 Z M3.33333333,10.2245333 C3.63642,10.0805333 3.97546667,10 4.33333333,10 L12.6666667,10 L12.6666667,2.66666667 L4,2.66666667 C3.63181333,2.66666667 3.33333333,2.96514667 3.33333333,3.33333333 L3.33333333,10.2245333 Z" id="形状" fill="currentColor" fill-rule="nonzero"></path>
        </g>
    </g>
</svg>
