<?xml version="1.0" encoding="UTF-8"?>
<svg width="16px" height="16px" viewBox="0 0 16 16" version="1.1" xmlns="http://www.w3.org/2000/svg" xmlns:xlink="http://www.w3.org/1999/xlink">
    <title>book-read-line</title>
    <g id="页面-1" stroke="none" stroke-width="0" fill="none" fill-rule="evenodd">
        <g id="book-read-line">
            <polygon id="路径" points="0 0 16 0 16 16 0 16"></polygon>
            <path d="M1.33333333,2.66226667 C1.33333333,2.29650667 1.63687333,2 1.99453333,2 L14.0054667,2 C14.3706667,2 14.6666667,2.29663333 14.6666667,2.66226667 L14.6666667,13.3377333 C14.6666667,13.7034667 14.3631333,14 14.0054667,14 L1.99453333,14 C1.62936667,14 1.33333333,13.7034 1.33333333,13.3377333 L1.33333333,2.66226667 Z M7.33333333,3.33333333 L2.66666667,3.33333333 L2.66666667,12.6666667 L7.33333333,12.6666667 L7.33333333,3.33333333 Z M8.66666667,3.33333333 L8.66666667,12.6666667 L13.3333333,12.6666667 L13.3333333,3.33333333 L8.66666667,3.33333333 Z M9.33333333,4.66666667 L12.6666667,4.66666667 L12.6666667,6 L9.33333333,6 L9.33333333,4.66666667 Z M9.33333333,6.66666667 L12.6666667,6.66666667 L12.6666667,8 L9.33333333,8 L9.33333333,6.66666667 Z" id="形状" fill="currentColor" fill-rule="nonzero"></path>
        </g>
    </g>
</svg>
