<?xml version="1.0" encoding="UTF-8"?>
<svg width="16px" height="16px" viewBox="0 0 16 16" version="1.1" xmlns="http://www.w3.org/2000/svg" xmlns:xlink="http://www.w3.org/1999/xlink">
    <title>briefcase-2-line</title>
    <g id="页面-1" stroke="none" stroke-width="0" fill="none" fill-rule="evenodd">
        <g id="briefcase-2-line">
            <polygon id="路径" points="0 0 16 0 16 16 0 16"></polygon>
            <path d="M4.66666667,3.33333333 L4.66666667,1.33333333 C4.66666667,0.965146667 4.96514667,0.666666667 5.33333333,0.666666667 L10.6666667,0.666666667 C11.0348667,0.666666667 11.3333333,0.965146667 11.3333333,1.33333333 L11.3333333,3.33333333 L14,3.33333333 C14.3682,3.33333333 14.6666667,3.63181333 14.6666667,4 L14.6666667,13.3333333 C14.6666667,13.7015333 14.3682,14 14,14 L2,14 C1.63181333,14 1.33333333,13.7015333 1.33333333,13.3333333 L1.33333333,4 C1.33333333,3.63181333 1.63181333,3.33333333 2,3.33333333 L4.66666667,3.33333333 Z M13.3333333,8.66666667 L2.66666667,8.66666667 L2.66666667,12.6666667 L13.3333333,12.6666667 L13.3333333,8.66666667 Z M13.3333333,4.66666667 L2.66666667,4.66666667 L2.66666667,7.33333333 L4.66666667,7.33333333 L4.66666667,6 L6,6 L6,7.33333333 L10,7.33333333 L10,6 L11.3333333,6 L11.3333333,7.33333333 L13.3333333,7.33333333 L13.3333333,4.66666667 Z M6,2 L6,3.33333333 L10,3.33333333 L10,2 L6,2 Z" id="形状" fill="currentColor" fill-rule="nonzero"></path>
        </g>
    </g>
</svg>
