<svg xmlns="http://www.w3.org/2000/svg" width="22.789" height="22.789" viewBox="0 0 22.789 22.789">
  <path id="路径_23060" data-name="路径 23060" d="M96.727,87.612a9.115,9.115,0,0,0-7.748,13.919,1.14,1.14,0,1,1-1.937,1.2,11.4,11.4,0,1,1,3.418,3.511,1.139,1.139,0,1,1,1.253-1.9,9.115,9.115,0,1,0,5.014-16.73Zm0,5.7a1.229,1.229,0,0,0-1.139,1.3,1.139,1.139,0,1,1-2.279,0,3.422,3.422,0,1,1,6.837,0,3.676,3.676,0,0,1-.837,2.35q-.231.274-.472.538l-.114.125c-.188.212-.351.4-.49.585a1.422,1.422,0,0,0-.366.8,1.139,1.139,0,0,1-2.279,0,3.622,3.622,0,0,1,.82-2.162c.2-.27.422-.521.616-.741l.134-.148c.148-.165.276-.308.4-.451a1.394,1.394,0,0,0,.312-.893A1.229,1.229,0,0,0,96.727,93.309Zm0,7.976a1.139,1.139,0,1,0,1.139,1.139A1.139,1.139,0,0,0,96.727,101.285Z" transform="translate(-85.333 -85.333)"fill-rule="nonzero"/>
</svg>
