<?xml version="1.0" encoding="UTF-8"?>
<svg width="16px" height="16px" viewBox="0 0 16 16" version="1.1" xmlns="http://www.w3.org/2000/svg" xmlns:xlink="http://www.w3.org/1999/xlink">
    <title>calendar-schedule-line</title>
    <g id="页面-1" stroke="none" stroke-width="0" fill="none" fill-rule="evenodd">
        <g id="calendar-schedule-line">
            <polygon id="路径" points="0 0 16 0 16 16 0 16"></polygon>
            <path d="M4.66666667,2 L4.66666667,0.666666667 L6,0.666666667 L6,2 L10,2 L10,0.666666667 L11.3333333,0.666666667 L11.3333333,2 L14,2 C14.3682,2 14.6666667,2.29848 14.6666667,2.66666667 L14.6666667,6 L13.3333333,6 L13.3333333,3.33333333 L11.3333333,3.33333333 L11.3333333,4.66666667 L10,4.66666667 L10,3.33333333 L6,3.33333333 L6,4.66666667 L4.66666667,4.66666667 L4.66666667,3.33333333 L2.66666667,3.33333333 L2.66666667,12.6666667 L6.66666667,12.6666667 L6.66666667,14 L2,14 C1.63181333,14 1.33333333,13.7015333 1.33333333,13.3333333 L1.33333333,2.66666667 C1.33333333,2.29848 1.63181333,2 2,2 L4.66666667,2 Z M11.3333333,8 C9.8606,8 8.66666667,9.19393333 8.66666667,10.6666667 C8.66666667,12.1394 9.8606,13.3333333 11.3333333,13.3333333 C12.8060667,13.3333333 14,12.1394 14,10.6666667 C14,9.19393333 12.8060667,8 11.3333333,8 Z M7.33333333,10.6666667 C7.33333333,8.45753333 9.1242,6.66666667 11.3333333,6.66666667 C13.5424667,6.66666667 15.3333333,8.45753333 15.3333333,10.6666667 C15.3333333,12.8758 13.5424667,14.6666667 11.3333333,14.6666667 C9.1242,14.6666667 7.33333333,12.8758 7.33333333,10.6666667 Z M10.6666667,8.66666667 L10.6666667,10.9428 L12.1952667,12.4714 L13.1380667,11.5286 L12,10.3905333 L12,8.66666667 L10.6666667,8.66666667 Z" id="形状" fill="currentColor" fill-rule="nonzero"></path>
        </g>
    </g>
</svg>
