<?xml version="1.0" encoding="UTF-8"?>
<svg width="16px" height="16px" viewBox="0 0 16 16" version="1.1" xmlns="http://www.w3.org/2000/svg" xmlns:xlink="http://www.w3.org/1999/xlink">
    <title>chrome-line</title>
    <g id="页面-1" stroke="none" stroke-width="0" fill="none" fill-rule="evenodd">
        <g id="chrome-line">
            <polygon id="路径" points="0 0 16 0 16 16 0 16"></polygon>
            <path d="M6.90966667,13.2218 L8.19606667,10.9936667 C8.13126667,10.9978667 8.06586667,11 8,11 C6.86913333,11 5.88437333,10.3742667 5.37313333,9.45013333 L3.19639333,5.67990667 C2.85696667,6.38137333 2.66666667,7.16846667 2.66666667,8 C2.66666667,10.5718667 4.48709333,12.7185333 6.90966667,13.2218 Z M8.39313333,13.3190667 C11.1550667,13.1178 13.3333333,10.8132667 13.3333333,8 C13.3333333,7.41793333 13.2400667,6.85766667 13.0677333,6.33333333 L10.4948,6.33333333 C10.8139333,6.81 11,7.38326667 11,8 C11,8.56513333 10.8437333,9.09373333 10.5720667,9.545 L8.39313333,13.3190667 Z M9.42893333,8.85833333 L9.4434,8.83333333 C9.58546667,8.58826667 9.66666667,8.3036 9.66666667,8 C9.66666667,7.07953333 8.92046667,6.33333333 8,6.33333333 C7.07953333,6.33333333 6.33333333,7.07953333 6.33333333,8 C6.33333333,8.2922 6.40853333,8.56686667 6.54062667,8.8056 L6.55662667,8.83333333 C6.8446,9.33153333 7.38313333,9.66666667 8,9.66666667 C8.60653333,9.66666667 9.1374,9.34266667 9.42893333,8.85833333 Z M4.02348,4.44580667 L5.309,6.6724 C5.79880667,5.68148 6.8198,5 8,5 L12.4102,5 C11.4502,3.59148667 9.83313333,2.66666667 8,2.66666667 C6.41978667,2.66666667 5.00009333,3.35390667 4.02348,4.44580667 Z M8,14.6666667 C4.3181,14.6666667 1.33333333,11.6818667 1.33333333,8 C1.33333333,4.3181 4.3181,1.33333333 8,1.33333333 C11.6818667,1.33333333 14.6666667,4.3181 14.6666667,8 C14.6666667,11.6818667 11.6818667,14.6666667 8,14.6666667 Z" id="形状" fill="currentColor" fill-rule="nonzero"></path>
        </g>
    </g>
</svg>
