<?xml version="1.0" encoding="UTF-8"?>
<svg width="16px" height="16px" viewBox="0 0 16 16" version="1.1" xmlns="http://www.w3.org/2000/svg" xmlns:xlink="http://www.w3.org/1999/xlink">
    <title>code-box-line</title>
    <g id="页面-1" stroke="none" stroke-width="0" fill="none" fill-rule="evenodd">
        <g id="code-box-line">
            <polygon id="路径" points="0 0 16 0 16 16 0 16"></polygon>
            <path d="M2,2 L14,2 C14.3682,2 14.6666667,2.29848 14.6666667,2.66666667 L14.6666667,13.3333333 C14.6666667,13.7015333 14.3682,14 14,14 L2,14 C1.63181333,14 1.33333333,13.7015333 1.33333333,13.3333333 L1.33333333,2.66666667 C1.33333333,2.29848 1.63181333,2 2,2 Z M2.66666667,3.33333333 L2.66666667,12.6666667 L13.3333333,12.6666667 L13.3333333,3.33333333 L2.66666667,3.33333333 Z M13.3333333,8 L10.9763333,10.357 L10.0335333,9.4142 L11.4477333,8 L10.0335333,6.58578667 L10.9763333,5.64298 L13.3333333,8 Z M4.55228667,8 L5.9665,9.4142 L5.02368667,10.357 L2.66666667,8 L5.02368667,5.64298 L5.9665,6.58578667 L4.55228667,8 Z M7.4962,11.3333333 L6.07731333,11.3333333 L8.5038,4.66666667 L9.92266667,4.66666667 L7.4962,11.3333333 Z" id="形状" fill="currentColor" fill-rule="nonzero"></path>
        </g>
    </g>
</svg>
