<?xml version="1.0" encoding="UTF-8"?>
<svg width="16px" height="16px" viewBox="0 0 16 16" version="1.1" xmlns="http://www.w3.org/2000/svg" xmlns:xlink="http://www.w3.org/1999/xlink">
    <title>color-filter-line</title>
    <g id="页面-1" stroke="none" stroke-width="0" fill="none" fill-rule="evenodd">
        <g id="color-filter-line">
            <polygon id="路径" points="0 0 16 0 16 16 0 16"></polygon>
            <path d="M8,1.99992 C9.47273333,1.99992 10.6666667,3.19382667 10.6666667,4.66658667 C10.6666667,5.02954 10.5944667,5.37451333 10.4638667,5.68884667 C9.36986667,5.80602667 8.33586667,6.37226667 7.6536,7.31106667 C6.81413333,7.2022 6.09650667,6.703 5.68944667,5.99906 C5.46308,5.60758 5.33332,5.15324 5.33332,4.66658667 C5.33332,3.19382667 6.52722667,1.99992 8,1.99992 Z M11.8423333,5.78157333 C11.945,5.42732667 12,5.05309333 12,4.66658533 C12,2.45744667 10.2091333,0.666585333 8,0.666585333 C5.79084667,0.666585333 3.99998667,2.45744667 3.99998667,4.66658533 C3.99998667,5.05310667 4.05498,5.42736 4.15764667,5.78161333 C3.79956667,5.86984 3.448,6.00932667 3.1133,6.20256667 C1.20012667,7.30713333 0.544626667,9.75346667 1.64919333,11.6666667 C2.75376667,13.5798667 5.20012667,14.2353333 7.11326667,13.1308 C7.448,12.9375333 7.7446,12.7028 8,12.4368 C8.25546667,12.7028 8.552,12.9374667 8.88666667,13.1307333 C10.7998667,14.2352667 13.2462,13.5798 14.3508,11.6666 C15.4553333,9.75346667 14.7998667,7.30706667 12.8866667,6.20251333 C12.552,6.00928 12.2004,5.86979333 11.8423333,5.78157333 Z M8.76953333,11.2894667 C9.21513333,10.2834 9.2418,9.10473333 8.76993333,8.04446667 C9.28393333,7.3718 10.075,6.99993333 10.8881333,6.99939954 C11.3402667,6.99913333 11.7986,7.11393333 12.22,7.3572 C13.4954667,8.0936 13.9324667,9.72453333 13.1960667,10.9999333 C12.4596667,12.2754 10.8288,12.7124 9.55333333,11.976 C9.23906667,11.7946 8.97646667,11.5596667 8.76953333,11.2894667 Z M7.5766,8.64453333 C7.90213333,9.426 7.8286,10.2970667 7.42246667,11.0015333 C7.1966,11.3932667 6.86806667,11.7327333 6.44663333,11.9760667 C5.17118667,12.7124667 3.54028,12.2754667 2.8039,11 C2.06752,9.72453333 2.50452,8.09366667 3.77996667,7.35726667 C4.09428,7.1758 4.42910667,7.0658 4.7666,7.02173333 C5.41511333,7.9106 6.42248667,8.523 7.5766,8.64453333 Z" id="形状" fill="currentColor" fill-rule="nonzero"></path>
        </g>
    </g>
</svg>
