<?xml version="1.0" encoding="UTF-8"?>
<svg width="16px" height="16px" viewBox="0 0 16 16" version="1.1" xmlns="http://www.w3.org/2000/svg" xmlns:xlink="http://www.w3.org/1999/xlink">
    <title>contacts-book-line</title>
    <g id="页面-1" stroke="none" stroke-width="0" fill="none" fill-rule="evenodd">
        <g id="contacts-book-line">
            <polygon id="路径" points="0 0 16 0 16 16 0 16"></polygon>
            <path d="M2,1.33333333 L12.6699333,1.33333333 C13.4045333,1.33333333 14,1.93214 14,2.66053333 L14,13.3394667 C14,14.0724667 13.4049333,14.6666667 12.6699333,14.6666667 L2,14.6666667 L2,1.33333333 Z M4.66666667,2.66666667 L3.33333333,2.66666667 L3.33333333,13.3333333 L4.66666667,13.3333333 L4.66666667,2.66666667 Z M6,13.3333333 L12.6666667,13.3333333 L12.6666667,2.66666667 L6,2.66666667 L6,13.3333333 Z M7.33333333,10.6666667 C7.33333333,9.56206667 8.22873333,8.66666667 9.33333333,8.66666667 C10.4379333,8.66666667 11.3333333,9.56206667 11.3333333,10.6666667 L7.33333333,10.6666667 Z M9.33333333,8 C8.59693333,8 8,7.40306667 8,6.66666667 C8,5.93028667 8.59693333,5.33333333 9.33333333,5.33333333 C10.0697333,5.33333333 10.6666667,5.93028667 10.6666667,6.66666667 C10.6666667,7.40306667 10.0697333,8 9.33333333,8 Z M14.6666667,4 L16,4 L16,6.66666667 L14.6666667,6.66666667 L14.6666667,4 Z M14.6666667,8 L16,8 L16,10.6666667 L14.6666667,10.6666667 L14.6666667,8 Z" id="形状" fill="currentColor" fill-rule="nonzero"></path>
        </g>
    </g>
</svg>
