<?xml version="1.0" encoding="UTF-8"?>
<svg width="16px" height="16px" viewBox="0 0 16 16" version="1.1" xmlns="http://www.w3.org/2000/svg" xmlns:xlink="http://www.w3.org/1999/xlink">
    <title>contacts-book-2-line</title>
    <g id="页面-1" stroke="none" stroke-width="0" fill="none" fill-rule="evenodd">
        <g id="contacts-book-2-line">
            <polygon id="路径" points="0 0 16 0 16 16 0 16"></polygon>
            <path d="M13.3333333,14.6666667 L4,14.6666667 C2.89543333,14.6666667 2,13.7712667 2,12.6666667 L2,3.33333333 C2,2.22876667 2.89543333,1.33333333 4,1.33333333 L13.3333333,1.33333333 C13.7015333,1.33333333 14,1.63181333 14,2 L14,14 C14,14.3682 13.7015333,14.6666667 13.3333333,14.6666667 Z M12.6666667,13.3333333 L12.6666667,12 L4,12 C3.63181333,12 3.33333333,12.2984667 3.33333333,12.6666667 C3.33333333,13.0348667 3.63181333,13.3333333 4,13.3333333 L12.6666667,13.3333333 Z M3.33333333,10.7804667 C3.54185333,10.7068 3.76624,10.6666667 4,10.6666667 L12.6666667,10.6666667 L12.6666667,2.66666667 L4,2.66666667 C3.63181333,2.66666667 3.33333333,2.96514667 3.33333333,3.33333333 L3.33333333,10.7804667 Z M8,6.66666667 C7.2636,6.66666667 6.66666667,6.06971333 6.66666667,5.33333333 C6.66666667,4.59695333 7.2636,4 8,4 C8.7364,4 9.33333333,4.59695333 9.33333333,5.33333333 C9.33333333,6.06971333 8.7364,6.66666667 8,6.66666667 Z M6,9.33333333 C6,8.22873333 6.8954,7.33333333 8,7.33333333 C9.1046,7.33333333 10,8.22873333 10,9.33333333 L6,9.33333333 Z" id="形状" fill="currentColor" fill-rule="nonzero"></path>
        </g>
    </g>
</svg>
