<?xml version="1.0" encoding="UTF-8"?>
<svg width="16px" height="16px" viewBox="0 0 16 16" version="1.1" xmlns="http://www.w3.org/2000/svg" xmlns:xlink="http://www.w3.org/1999/xlink">
    <title>copper-coin-line</title>
    <g id="页面-1" stroke="none" stroke-width="0" fill="none" fill-rule="evenodd">
        <g id="copper-coin-line">
            <polygon id="路径" points="0 0 16 0 16 16 0 16"></polygon>
            <path d="M8.00326667,14.6684667 C4.32136,14.6684667 1.33658667,11.6837333 1.33658667,8.0018 C1.33658667,4.31993333 4.32136,1.33516667 8.00326667,1.33516667 C11.6851333,1.33516667 14.6699333,4.31993333 14.6699333,8.0018 C14.6699333,11.6837333 11.6851333,14.6684667 8.00326667,14.6684667 Z M8.00326667,13.3351333 C10.9488,13.3351333 13.3366,10.9473333 13.3366,8.0018 C13.3366,5.05631333 10.9488,2.6685 8.00326667,2.6685 C5.05773333,2.6685 2.66992,5.05631333 2.66992,8.0018 C2.66992,10.9473333 5.05773333,13.3351333 8.00326667,13.3351333 Z M8.00326667,4.702 L11.3030667,8.0018 L8.00326667,11.3016667 L4.70342667,8.0018 L8.00326667,4.702 Z M8.00326667,6.58762 L6.58904,8.0018 L8.00326667,9.41606667 L9.41746667,8.0018 L8.00326667,6.58762 Z" id="形状" fill="currentColor" fill-rule="nonzero"></path>
        </g>
    </g>
</svg>
