<?xml version="1.0" encoding="UTF-8"?>
<svg width="16px" height="16px" viewBox="0 0 16 16" version="1.1" xmlns="http://www.w3.org/2000/svg" xmlns:xlink="http://www.w3.org/1999/xlink">
    <title>currency-line</title>
    <g id="页面-1" stroke="none" stroke-width="0" fill="none" fill-rule="evenodd">
        <g id="currency-line">
            <polygon id="路径" points="0 0 16 0 16 16 0 16"></polygon>
            <path d="M11.3364667,10.66854 L12.6698,10.66854 L12.6698,2.66854 L6.00312,2.66854 L6.00312,4.00187333 L11.3364667,4.00187333 L11.3364667,10.66854 Z M11.3364667,12.0018667 L11.3364667,14.0012667 C11.3364667,14.3698 11.0364667,14.6685333 10.6652,14.6685333 L2.67436,14.6685333 C2.30365333,14.6685333 2.00325333,14.3721333 2.00325333,14.0012667 L2.00498667,4.66912 C2.00506,4.30060667 2.30501333,4.00187333 2.6762,4.00187333 L4.66978667,4.00187333 L4.66978667,2.00187333 C4.66978667,1.63368 4.96826667,1.33520667 5.33645333,1.33520667 L13.3364667,1.33520667 C13.7046667,1.33520667 14.0031333,1.63368 14.0031333,2.00187333 L14.0031333,11.3352067 C14.0031333,11.7034 13.7046667,12.0018667 13.3364667,12.0018667 L11.3364667,12.0018667 Z M3.3382,5.33520667 L3.33671333,13.3352067 L10.0031333,13.3352067 L10.0031333,5.33520667 L3.3382,5.33520667 Z M4.66978667,10.6685333 L7.6698,10.6685333 C7.85386667,10.6685333 8.00313333,10.5192667 8.00313333,10.3352 C8.00313333,10.1511333 7.85386667,10.0018733 7.6698,10.0018733 L5.66978667,10.0018733 C4.74931333,10.0018733 4.00312,9.25566667 4.00312,8.3352 C4.00312,7.41473333 4.74931333,6.66853333 5.66978667,6.66853333 L6.00312,6.66853333 L6.00312,6.00187333 L7.33646667,6.00187333 L7.33646667,6.66853333 L8.6698,6.66853333 L8.6698,8.00187333 L5.66978667,8.00187333 C5.48569333,8.00187333 5.33645333,8.15113333 5.33645333,8.3352 C5.33645333,8.51926667 5.48569333,8.66853333 5.66978667,8.66853333 L7.6698,8.66853333 C8.59026667,8.66853333 9.33646667,9.41473333 9.33646667,10.3352 C9.33646667,11.2556667 8.59026667,12.0018733 7.6698,12.0018733 L7.33646667,12.0018733 L7.33646667,12.6685333 L6.00312,12.6685333 L6.00312,12.0018733 L4.66978667,12.0018733 L4.66978667,10.6685333 Z" id="形状" fill="currentColor" fill-rule="nonzero"></path>
        </g>
    </g>
</svg>
