<svg xmlns="http://www.w3.org/2000/svg" width="14.054" height="11.646" viewBox="0 0 14.054 11.646">
  <g id="组_24728" data-name="组 24728" transform="translate(0.101 0.16)">
    <path id="路径_23391" data-name="路径 23391" d="M303.34,391.949l1.17-3.047h.434l1.247,3.047h-.459l-.355-.923H304.1l-.335.923Zm.879-1.251h1.033l-.318-.844q-.146-.384-.216-.632a3.887,3.887,0,0,1-.164.582Zm2.294,1.251V388.9h1.149a2.78,2.78,0,0,1,.463.029.918.918,0,0,1,.376.142.748.748,0,0,1,.244.294.992.992,0,0,1-.155,1.073,1.186,1.186,0,0,1-.894.269h-.781v1.239h-.4Zm.4-1.6h.787a.835.835,0,0,0,.555-.145.52.52,0,0,0,.165-.409.551.551,0,0,0-.1-.327.452.452,0,0,0-.255-.18,1.713,1.713,0,0,0-.376-.027h-.779Zm2.5,1.6V388.9h.4v3.047Z" transform="translate(-299.943 -384.575)" stroke-width="0.3"/>
    <path id="路径_23392" data-name="路径 23392" d="M10.147,10.137H6.926a.363.363,0,1,1,0-.725h3.221a2.931,2.931,0,0,0,.366-5.84l-.258-.032L10.2,3.285a3.166,3.166,0,0,0-6.266.641c0,.035,0,.073,0,.119l.015.417-.415-.043A2.547,2.547,0,0,0,3.277,4.4a2.5,2.5,0,1,0,0,5.007H4.15a.363.363,0,1,1,0,.725H3.277A3.228,3.228,0,0,1,3.22,3.68a3.891,3.891,0,0,1,7.634-.788,3.657,3.657,0,0,1-.707,7.244Z" stroke-width="0.3"/>
    <path id="路径_23393" data-name="路径 23393" d="M534.332,736.245a.361.361,0,0,1-.245-.1l-1.582-1.451,1.5-1.56a.363.363,0,0,1,.523.5l-.984,1.025,1.035.949a.363.363,0,0,1-.245.63Z" transform="translate(-526.579 -724.908)" stroke-width="0.3"/>
  </g>
</svg>
