<svg xmlns="http://www.w3.org/2000/svg" width="11.624" height="11.947" viewBox="0 0 11.624 11.947">
  <path id="路径_23820" data-name="路径 23820" d="M144.479,96h.129a13.777,13.777,0,0,1,1.386.081l.22.026.233.032.229.036.115.02.225.043c1.9.383,3.223,1.2,3.273,2.281l0,.064v6.781c0,1.109-1.343,1.953-3.275,2.344l-.225.043-.115.02-.229.036-.233.032a14.057,14.057,0,0,1-3.47,0l-.233-.032-.229-.036c-2.075-.351-3.561-1.2-3.613-2.344l0-.063V98.583l0-.064c.05-1.078,1.378-1.9,3.273-2.281l.225-.043.115-.02.229-.036.233-.032A13.5,13.5,0,0,1,144.222,96Zm2.2,8.219-.229.036-.233.032a14.056,14.056,0,0,1-3.47,0l-.233-.032-.229-.036a7.014,7.014,0,0,1-2.646-.928v2.073c0,.317.366.647.985.926l.148.063a6.629,6.629,0,0,0,.766.258l.191.05q.305.076.614.132l.218.037.223.033q.231.032.463.055l.239.021.243.017.248.012q.506.02,1.013,0l.248-.012.243-.017.239-.021q.232-.023.462-.055l.223-.033.218-.037c.214-.039.42-.083.614-.132l.191-.05a6.69,6.69,0,0,0,.766-.258l.148-.063c.6-.268.956-.583.983-.89l0-.036v-2.073A7.005,7.005,0,0,1,146.676,104.219Zm2.646-4.157a6.827,6.827,0,0,1-2.485.9l-.161.028-.229.036-.233.032a13.69,13.69,0,0,1-1.735.108,13.832,13.832,0,0,1-1.5-.079l-.237-.028-.233-.032-.229-.036a7.014,7.014,0,0,1-2.646-.928v1.75c0,.317.366.647.985.926l.148.063a6.625,6.625,0,0,0,.766.258l.191.05q.305.076.614.132l.218.037.223.033q.231.032.463.055l.239.021.243.017.248.012q.506.02,1.013,0l.248-.012.243-.017.239-.021q.232-.023.462-.055l.223-.033.218-.037c.214-.039.42-.083.614-.132l.191-.05a6.692,6.692,0,0,0,.766-.258l.148-.063c.6-.268.956-.583.983-.89l0-.036v-1.75Zm-4.843-3.093h-.128l-.191,0-.188.006-.248.012-.243.017-.239.021q-.157.016-.31.035l-.152.02-.223.033-.218.037q-.234.042-.467.1l-.148.036-.191.05c-.234.065-.452.136-.65.212l-.116.046-.148.063c-.619.279-.985.609-.985.926s.335.619.906.89l.079.036.148.063a6.305,6.305,0,0,0,.627.218l.139.039.191.05c.146.036.3.07.455.1l.159.03.218.037.223.033c.1.014.2.027.306.039l.157.016.239.021.243.017.248.012q.423.017.846.005l.167-.005.248-.012.243-.017.239-.021q.157-.015.31-.035l.152-.02.223-.033.218-.037q.234-.042.467-.1l.148-.036.191-.05c.234-.065.452-.136.65-.211l.116-.046.148-.063c.619-.279.985-.609.985-.926s-.335-.619-.906-.89l-.079-.036-.148-.063a6.426,6.426,0,0,0-.627-.218l-.139-.039-.191-.05q-.226-.056-.455-.1l-.159-.03-.218-.037-.223-.033q-.153-.021-.306-.039l-.157-.016-.239-.021-.243-.017-.248-.012q-.166-.007-.336-.009Z" transform="translate(-138.667 -96)" fill="#1d6fe9"/>
</svg>
