<?xml version="1.0" encoding="UTF-8"?>
<svg width="16px" height="16px" viewBox="0 0 16 16" version="1.1" xmlns="http://www.w3.org/2000/svg" xmlns:xlink="http://www.w3.org/1999/xlink">
    <title>dashboard-3-line</title>
    <g id="页面-1" stroke="none" stroke-width="0" fill="none" fill-rule="evenodd">
        <g id="dashboard-3-line">
            <polygon id="路径" points="0 0 16 0 16 16 0 16"></polygon>
            <path d="M8,1.33333333 C11.6818667,1.33333333 14.6666667,4.3181 14.6666667,8 C14.6666667,11.6818667 11.6818667,14.6666667 8,14.6666667 C4.3181,14.6666667 1.33333333,11.6818667 1.33333333,8 C1.33333333,4.3181 4.3181,1.33333333 8,1.33333333 Z M8,2.66666667 C5.05448,2.66666667 2.66666667,5.05448 2.66666667,8 C2.66666667,10.9455333 5.05448,13.3333333 8,13.3333333 C10.9455333,13.3333333 13.3333333,10.9455333 13.3333333,8 C13.3333333,5.05448 10.9455333,2.66666667 8,2.66666667 Z M10.5552667,4.89165333 C10.7131333,4.78085333 10.9277333,4.79950667 11.0641333,4.93587333 C11.2001333,5.07189333 11.2178,5.28636667 11.1058,5.44278667 C9.65266667,7.473 8.85306667,8.56113333 8.70713333,8.70713333 C8.3166,9.0976 7.6834,9.0976 7.29286667,8.70713333 C6.9024,8.3166 6.9024,7.6834 7.29286667,7.29286667 C7.54173333,7.04406667 8.6292,6.24366 10.5552667,4.89165333 Z M11.6666667,7.33333333 C12.0348667,7.33333333 12.3333333,7.6318 12.3333333,8 C12.3333333,8.3682 12.0348667,8.66666667 11.6666667,8.66666667 C11.2984667,8.66666667 11,8.3682 11,8 C11,7.6318 11.2984667,7.33333333 11.6666667,7.33333333 Z M4.33333333,7.33333333 C4.70152,7.33333333 5,7.6318 5,8 C5,8.3682 4.70152,8.66666667 4.33333333,8.66666667 C3.96514667,8.66666667 3.66666667,8.3682 3.66666667,8 C3.66666667,7.6318 3.96514667,7.33333333 4.33333333,7.33333333 Z M5.87868,4.93587333 C6.13902667,5.19622 6.13902667,5.61833333 5.87868,5.87868 C5.61833333,6.13902667 5.19622,6.13902667 4.93587333,5.87868 C4.67552,5.61833333 4.67552,5.19622 4.93587333,4.93587333 C5.19622,4.67552 5.61833333,4.67552 5.87868,4.93587333 Z M8,3.66666667 C8.3682,3.66666667 8.66666667,3.96514667 8.66666667,4.33333333 C8.66666667,4.70152 8.3682,5 8,5 C7.6318,5 7.33333333,4.70152 7.33333333,4.33333333 C7.33333333,3.96514667 7.6318,3.66666667 8,3.66666667 Z" id="形状" fill="currentColor" fill-rule="nonzero"></path>
        </g>
    </g>
</svg>
