<?xml version="1.0" encoding="UTF-8"?>
<svg width="16px" height="16px" viewBox="0 0 16 16" version="1.1" xmlns="http://www.w3.org/2000/svg" xmlns:xlink="http://www.w3.org/1999/xlink">
    <title>equalizer-line</title>
    <g id="页面-1" stroke="none" stroke-width="0" fill="none" fill-rule="evenodd">
        <g id="equalizer-line">
            <polygon id="路径" points="0 0 16 0 16 16 0 16"></polygon>
            <path d="M4.11380667,12 C4.38836,11.2232 5.12918667,10.6666667 6,10.6666667 C6.8708,10.6666667 7.61166667,11.2232 7.8862,12 L14.6666667,12 L14.6666667,13.3333333 L7.8862,13.3333333 C7.61166667,14.1101333 6.8708,14.6666667 6,14.6666667 C5.12918667,14.6666667 4.38836,14.1101333 4.11380667,13.3333333 L1.33333333,13.3333333 L1.33333333,12 L4.11380667,12 Z M8.1138,7.33333333 C8.38833333,6.55654 9.1292,6 10,6 C10.8708,6 11.6116667,6.55654 11.8862,7.33333333 L14.6666667,7.33333333 L14.6666667,8.66666667 L11.8862,8.66666667 C11.6116667,9.44346667 10.8708,10 10,10 C9.1292,10 8.38833333,9.44346667 8.1138,8.66666667 L1.33333333,8.66666667 L1.33333333,7.33333333 L8.1138,7.33333333 Z M4.11380667,2.66666667 C4.38836,1.88987333 5.12918667,1.33333333 6,1.33333333 C6.8708,1.33333333 7.61166667,1.88987333 7.8862,2.66666667 L14.6666667,2.66666667 L14.6666667,4 L7.8862,4 C7.61166667,4.77679333 6.8708,5.33333333 6,5.33333333 C5.12918667,5.33333333 4.38836,4.77679333 4.11380667,4 L1.33333333,4 L1.33333333,2.66666667 L4.11380667,2.66666667 Z M6,4 C6.36818667,4 6.66666667,3.70152 6.66666667,3.33333333 C6.66666667,2.96514667 6.36818667,2.66666667 6,2.66666667 C5.63181333,2.66666667 5.33333333,2.96514667 5.33333333,3.33333333 C5.33333333,3.70152 5.63181333,4 6,4 Z M10,8.66666667 C10.3682,8.66666667 10.6666667,8.3682 10.6666667,8 C10.6666667,7.6318 10.3682,7.33333333 10,7.33333333 C9.6318,7.33333333 9.33333333,7.6318 9.33333333,8 C9.33333333,8.3682 9.6318,8.66666667 10,8.66666667 Z M6,13.3333333 C6.36818667,13.3333333 6.66666667,13.0348667 6.66666667,12.6666667 C6.66666667,12.2984667 6.36818667,12 6,12 C5.63181333,12 5.33333333,12.2984667 5.33333333,12.6666667 C5.33333333,13.0348667 5.63181333,13.3333333 6,13.3333333 Z" id="形状" fill="currentColor" fill-rule="nonzero"></path>
        </g>
    </g>
</svg>
