<?xml version="1.0" encoding="UTF-8"?>
<svg width="16px" height="16px" viewBox="0 0 16 16" version="1.1" xmlns="http://www.w3.org/2000/svg" xmlns:xlink="http://www.w3.org/1999/xlink">
    <title>exchange-dollar-line</title>
    <g id="页面-1" stroke="none" stroke-width="0" fill="none" fill-rule="evenodd">
        <g id="exchange-dollar-line">
            <polygon id="路径" points="0 0 16 0 16 16 0 16"></polygon>
            <path d="M12.9192,10.0704667 C13.9505333,7.62806667 13.0248667,4.74287333 10.6694667,3.383 C8.9674,2.40030667 6.9488,2.46243333 5.35634667,3.3704 L4.69477333,2.21252667 C6.68533333,1.07759333 9.20853333,0.999933333 11.3361333,2.2283 C14.3299333,3.95675333 15.4759333,7.65653333 14.0811333,10.7413333 L14.9756667,11.2578 L12.1989333,12.7338667 L12.0889333,9.59113333 L12.9192,10.0704667 Z M3.08640667,5.93312 C2.05508667,8.37553333 2.98077333,11.2607333 5.33614,12.6206 C7.0382,13.6032667 9.05673333,13.5412 10.6491333,12.6332667 L11.3107333,13.7911333 C9.3202,14.926 6.79706667,15.0036667 4.66947333,13.7753333 C1.67571333,12.0468667 0.52971,8.34706667 1.92448,5.26228 L1.02994667,4.74582 L3.80666,3.26975333 L3.9167,6.41248667 L3.08640667,5.93312 Z M5.66947333,9.33513333 L9.33613333,9.33513333 C9.52026667,9.33513333 9.66946667,9.18586667 9.66946667,9.0018 C9.66946667,8.81773333 9.52026667,8.66847333 9.33613333,8.66847333 L6.66946667,8.66847333 C5.749,8.66847333 5.00280667,7.92226667 5.00280667,7.0018 C5.00280667,6.08133333 5.749,5.33514 6.66946667,5.33514 L7.33613333,5.33514 L7.33613333,4.66847333 L8.66946667,4.66847333 L8.66946667,5.33514 L10.3361333,5.33514 L10.3361333,6.66847333 L6.66946667,6.66847333 C6.48538,6.66847333 6.33614,6.81773333 6.33614,7.0018 C6.33614,7.18586667 6.48538,7.33513333 6.66946667,7.33513333 L9.33613333,7.33513333 C10.2566,7.33513333 11.0028067,8.08133333 11.0028067,9.0018 C11.0028067,9.92226667 10.2566,10.6684733 9.33613333,10.6684733 L8.66946667,10.6684733 L8.66946667,11.3351333 L7.33613333,11.3351333 L7.33613333,10.6684733 L5.66947333,10.6684733 L5.66947333,9.33513333 Z" id="形状" fill="currentColor" fill-rule="nonzero"></path>
        </g>
    </g>
</svg>
