<?xml version="1.0" encoding="UTF-8"?>
<svg width="16px" height="16px" viewBox="0 0 16 16" version="1.1" xmlns="http://www.w3.org/2000/svg" xmlns:xlink="http://www.w3.org/1999/xlink">
    <title>exchange-funds-line</title>
    <g id="页面-1" stroke="none" stroke-width="0" fill="none" fill-rule="evenodd">
        <g id="exchange-funds-line">
            <polygon id="路径" points="0 0 16 0 16 16 0 16"></polygon>
            <path d="M12.9192,10.0704667 C13.9505333,7.62806667 13.0248667,4.74287333 10.6694667,3.383 C8.9674,2.40030667 6.9488,2.46243333 5.35634667,3.3704 L4.69477333,2.21252667 C6.68533333,1.07759333 9.20853333,0.999933333 11.3361333,2.2283 C14.3299333,3.95675333 15.4759333,7.65653333 14.0811333,10.7413333 L14.9756667,11.2578 L12.1989333,12.7338667 L12.0889333,9.59113333 L12.9192,10.0704667 Z M3.08640667,5.93312 C2.05508667,8.37553333 2.98077333,11.2607333 5.33614,12.6206 C7.0382,13.6032667 9.05673333,13.5412 10.6491333,12.6332667 L11.3107333,13.7911333 C9.3202,14.926 6.79706667,15.0036667 4.66947333,13.7753333 C1.67571333,12.0468667 0.52971,8.34706667 1.92448,5.26228 L1.02994667,4.74582 L3.80666,3.26975333 L3.9167,6.41248667 L3.08640667,5.93312 Z M8.9456,9.8874 L7.06,8.0018 L5.17438,9.8874 L4.23157333,8.9446 L7.06,6.11618667 L8.9456,8.0018 L10.8312667,6.11618667 L11.7740667,7.059 L8.9456,9.8874 Z" id="形状" fill="currentColor" fill-rule="nonzero"></path>
        </g>
    </g>
</svg>
