<?xml version="1.0" encoding="UTF-8"?>
<svg width="16px" height="16px" viewBox="0 0 16 16" version="1.1" xmlns="http://www.w3.org/2000/svg" xmlns:xlink="http://www.w3.org/1999/xlink">
    <title>file-copy-2-line</title>
    <g id="页面-1" stroke="none" stroke-width="0" fill="none" fill-rule="evenodd">
        <g id="file-copy-2-line">
            <polygon id="路径" points="0 0 16 0 16 16 0 16"></polygon>
            <path d="M4.66653333,4 L4.66653333,2 C4.66653333,1.63181333 4.96501333,1.33333333 5.3332,1.33333333 L13.3332,1.33333333 C13.7014,1.33333333 13.9998667,1.63181333 13.9998667,2 L13.9998667,11.3333333 C13.9998667,11.7015333 13.7014,12 13.3332,12 L11.3332,12 L11.3332,13.9994 C11.3332,14.3679333 11.0332667,14.6666667 10.662,14.6666667 L2.67110667,14.6666667 C2.30039333,14.6666667 2,14.3702667 2,13.9994 L2.00173333,4.66724667 C2.0018,4.29874 2.30176,4 2.67294667,4 L4.66653333,4 Z M3.33494667,5.33333333 L3.33346,13.3333333 L9.99986667,13.3333333 L9.99986667,5.33333333 L3.33494667,5.33333333 Z M5.99986667,4 L11.3332,4 L11.3332,10.6666667 L12.6665333,10.6666667 L12.6665333,2.66666667 L5.99986667,2.66666667 L5.99986667,4 Z M4.66666667,7.33333333 L8.66666667,7.33333333 L8.66666667,8.66666667 L4.66666667,8.66666667 L4.66666667,7.33333333 Z M4.66666667,10 L8.66666667,10 L8.66666667,11.3333333 L4.66666667,11.3333333 L4.66666667,10 Z" id="形状" fill="currentColor" fill-rule="nonzero"></path>
        </g>
    </g>
</svg>
