<?xml version="1.0" encoding="UTF-8"?>
<svg width="16px" height="16px" viewBox="0 0 16 16" version="1.1" xmlns="http://www.w3.org/2000/svg" xmlns:xlink="http://www.w3.org/1999/xlink">
    <title>file-edit-line</title>
    <g id="页面-1" stroke="none" stroke-width="0" fill="none" fill-rule="evenodd">
        <g id="file-edit-line">
            <polygon id="路径" points="0 0 16 0 16 16 0 16"></polygon>
            <path d="M14,4.50490667 L12.6666667,5.83824 L12.6666667,2.66666667 L6.66666667,2.66666667 L6.66666667,6 L3.33333333,6 L3.33333333,13.3333333 L12.6666667,13.3333333 L12.6666667,11.4950667 L14,10.1617333 L14,14.0054667 C14,14.3706667 13.7034,14.6666667 13.3377333,14.6666667 L2.66226667,14.6666667 C2.29650667,14.6666667 2,14.3667333 2,13.9954667 L2,5.33333333 L6.00212667,1.33333333 L13.3318667,1.33333333 C13.7008667,1.33333333 14,1.63687333 14,1.99453333 L14,4.50490667 Z M14.5188,5.87174 L15.4616,6.81453333 L10.2761333,12 L9.33193333,11.9986 L9.33333333,11.0572 L14.5188,5.87174 Z" id="形状" fill="currentColor" fill-rule="nonzero"></path>
        </g>
    </g>
</svg>
