<?xml version="1.0" encoding="UTF-8"?>
<svg width="16px" height="16px" viewBox="0 0 16 16" version="1.1" xmlns="http://www.w3.org/2000/svg" xmlns:xlink="http://www.w3.org/1999/xlink">
    <title>group-3-line</title>
    <g id="页面-1" stroke="none" stroke-width="0" fill="none" fill-rule="evenodd">
        <g id="group-3-line">
            <polygon id="路径" points="0 0 16 0 16 16 0 16"></polygon>
            <path d="M5.66666667,4.66666667 C5.66666667,5.40304667 5.06971333,6 4.33333333,6 C3.59695333,6 3,5.40304667 3,4.66666667 C3,3.93028667 3.59695333,3.33333333 4.33333333,3.33333333 C5.06971333,3.33333333 5.66666667,3.93028667 5.66666667,4.66666667 Z M1.66666667,4.66666667 C1.66666667,6.13942667 2.86057333,7.33333333 4.33333333,7.33333333 C5.80609333,7.33333333 7,6.13942667 7,4.66666667 C7,3.19390667 5.80609333,2 4.33333333,2 C2.86057333,2 1.66666667,3.19390667 1.66666667,4.66666667 Z M6,11 C6,10.0795333 5.25380667,9.33333333 4.33333333,9.33333333 C3.41286,9.33333333 2.66666667,10.0795333 2.66666667,11 L2.66666667,12.6666667 L6,12.6666667 L6,11 Z M7.33333333,14 L1.33333333,14 L1.33333333,11 C1.33333333,9.34313333 2.67648,8 4.33333333,8 C5.99018667,8 7.33333333,9.34313333 7.33333333,11 L7.33333333,14 Z M13,4.66666667 C13,5.40304667 12.4030667,6 11.6666667,6 C10.9302667,6 10.3333333,5.40304667 10.3333333,4.66666667 C10.3333333,3.93028667 10.9302667,3.33333333 11.6666667,3.33333333 C12.4030667,3.33333333 13,3.93028667 13,4.66666667 Z M9,4.66666667 C9,6.13942667 10.1939333,7.33333333 11.6666667,7.33333333 C13.1394,7.33333333 14.3333333,6.13942667 14.3333333,4.66666667 C14.3333333,3.19390667 13.1394,2 11.6666667,2 C10.1939333,2 9,3.19390667 9,4.66666667 Z M13.3333333,11 C13.3333333,10.0795333 12.5871333,9.33333333 11.6666667,9.33333333 C10.7462,9.33333333 10,10.0795333 10,11 L10,12.6666667 L13.3333333,12.6666667 L13.3333333,11 Z M8.66666667,12.6666667 L8.66666667,11 C8.66666667,9.34313333 10.0098,8 11.6666667,8 C13.3235333,8 14.6666667,9.34313333 14.6666667,11 L14.6666667,14 L8.66666667,14 L8.66666667,12.6666667 Z" id="形状" fill="currentColor" fill-rule="nonzero"></path>
        </g>
    </g>
</svg>
