<?xml version="1.0" encoding="UTF-8"?>
<svg width="16px" height="16px" viewBox="0 0 16 16" version="1.1" xmlns="http://www.w3.org/2000/svg" xmlns:xlink="http://www.w3.org/1999/xlink">
    <title>hard-drive-3-line</title>
    <g id="页面-1" stroke="none" stroke-width="0" fill="none" fill-rule="evenodd">
        <g id="hard-drive-3-line">
            <polygon id="路径" points="0 0 16 0 16 16 0 16"></polygon>
            <path d="M3.00514667,1.91731333 C3.04685333,1.58369333 3.33045333,1.33333333 3.66666667,1.33333333 L12.3333333,1.33333333 C12.6695333,1.33333333 12.9531333,1.58369333 12.9948667,1.91731333 L13.9948667,9.91733333 C13.9982667,9.94473333 14,9.97233333 14,10 L14,14 C14,14.3682 13.7015333,14.6666667 13.3333333,14.6666667 L2.66666667,14.6666667 C2.29848,14.6666667 2,14.3682 2,14 L2,10 C2,9.97233333 2.00172,9.94473333 2.00514667,9.91733333 L3.00514667,1.91731333 Z M4.25518667,2.66666667 L3.42185333,9.33333333 L12.5781333,9.33333333 L11.7448,2.66666667 L4.25518667,2.66666667 Z M12.6666667,10.6666667 L3.33333333,10.6666667 L3.33333333,13.3333333 L12.6666667,13.3333333 L12.6666667,10.6666667 Z M10,11.3333333 L11.3333333,11.3333333 L11.3333333,12.6666667 L10,12.6666667 L10,11.3333333 Z M8.66666667,11.3333333 L7.33333333,11.3333333 L7.33333333,12.6666667 L8.66666667,12.6666667 L8.66666667,11.3333333 Z" id="形状" fill="currentColor" fill-rule="nonzero"></path>
        </g>
    </g>
</svg>
