<?xml version="1.0" encoding="UTF-8"?>
<svg width="16px" height="16px" viewBox="0 0 16 16" version="1.1" xmlns="http://www.w3.org/2000/svg" xmlns:xlink="http://www.w3.org/1999/xlink">
    <title>hourglass-line</title>
    <g id="页面-1" stroke="none" stroke-width="0" fill="none" fill-rule="evenodd">
        <g id="hourglass-line">
            <polygon id="路径" points="0 0 16 0 16 16 0 16"></polygon>
            <path d="M4,2.66666667 L2.66666667,2.66666667 L2.66666667,1.33333333 L13.3333333,1.33333333 L13.3333333,2.66666667 L12,2.66666667 L12,4 C12,5.07695333 11.4558667,5.94312 10.7707333,6.65111333 C10.3021333,7.13533333 9.732,7.58133333 9.15393333,8 C9.732,8.41866667 10.3021333,8.86466667 10.7707333,9.34886667 C11.4558667,10.0568667 12,10.9230667 12,12 L12,13.3333333 L13.3333333,13.3333333 L13.3333333,14.6666667 L2.66666667,14.6666667 L2.66666667,13.3333333 L4,13.3333333 L4,12 C4,10.9230667 4.54410667,10.0568667 5.22926667,9.34886667 C5.69788,8.86466667 6.26801333,8.41866667 6.84606667,8 C6.26801333,7.58133333 5.69788,7.13533333 5.22926667,6.65111333 C4.54410667,5.94312 4,5.07695333 4,4 L4,2.66666667 Z M5.33333333,2.66666667 L5.33333333,4 C5.33333333,4.58971333 5.62256,5.14021333 6.1874,5.72388667 C6.672,6.22466 7.3032,6.6932 8,7.1854 C8.6968,6.6932 9.328,6.22466 9.8126,5.72388667 C10.3774667,5.14021333 10.6666667,4.58971333 10.6666667,4 L10.6666667,2.66666667 L5.33333333,2.66666667 Z M8,8.8146 C7.3032,9.3068 6.672,9.77533333 6.1874,10.2761333 C5.62256,10.8598 5.33333333,11.4102667 5.33333333,12 L5.33333333,13.3333333 L10.6666667,13.3333333 L10.6666667,12 C10.6666667,11.4102667 10.3774667,10.8598 9.8126,10.2761333 C9.328,9.77533333 8.6968,9.3068 8,8.8146 Z" id="形状" fill="currentColor" fill-rule="nonzero"></path>
        </g>
    </g>
</svg>
