<?xml version="1.0" encoding="UTF-8"?>
<svg width="16px" height="16px" viewBox="0 0 16 16" version="1.1" xmlns="http://www.w3.org/2000/svg" xmlns:xlink="http://www.w3.org/1999/xlink">
    <title>lifebuoy-line</title>
    <g id="页面-1" stroke="none" stroke-width="0" fill="none" fill-rule="evenodd">
        <g id="lifebuoy-line">
            <polygon id="路径" points="0 0 16 0 16 16 0 16"></polygon>
            <path d="M8,1.33333333 C11.6818667,1.33333333 14.6666667,4.3181 14.6666667,8 C14.6666667,11.6818667 11.6818667,14.6666667 8,14.6666667 C4.3181,14.6666667 1.33333333,11.6818667 1.33333333,8 C1.33333333,4.3181 4.3181,1.33333333 8,1.33333333 Z M8,11.3333333 C7.57,11.3333333 7.15906667,11.2519333 6.78166667,11.1036667 L5.29069333,12.5948667 C6.08471333,13.0640667 7.01093333,13.3333333 8,13.3333333 C8.98906667,13.3333333 9.91526667,13.0640667 10.7093333,12.5948667 L9.21833333,11.1036667 C8.84093333,11.2519333 8.43,11.3333333 8,11.3333333 Z M2.66666667,8 C2.66666667,8.98906667 2.93590667,9.91526667 3.4051,10.7093333 L4.89634,9.21833333 C4.74808667,8.84093333 4.66666667,8.43 4.66666667,8 C4.66666667,7.57 4.74808667,7.15906667 4.89634,6.78166667 L3.4051,5.29069333 C2.93590667,6.08471333 2.66666667,7.01093333 2.66666667,8 Z M12.5948667,5.29069333 L11.1036667,6.78166667 C11.2519333,7.15906667 11.3333333,7.57 11.3333333,8 C11.3333333,8.43 11.2519333,8.84093333 11.1036667,9.21833333 L12.5948667,10.7093333 C13.0640667,9.91526667 13.3333333,8.98906667 13.3333333,8 C13.3333333,7.01093333 13.0640667,6.08471333 12.5948667,5.29069333 Z M8,6 C6.8954,6 6,6.8954 6,8 C6,9.1046 6.8954,10 8,10 C9.1046,10 10,9.1046 10,8 C10,6.8954 9.1046,6 8,6 Z M8,2.66666667 C7.01093333,2.66666667 6.08471333,2.93590667 5.29069333,3.4051 L6.78166667,4.89634 C7.15906667,4.74808667 7.57,4.66666667 8,4.66666667 C8.43,4.66666667 8.84093333,4.74808667 9.21833333,4.89634 L10.7093333,3.4051 C9.91526667,2.93590667 8.98906667,2.66666667 8,2.66666667 Z" id="形状" fill="currentColor" fill-rule="nonzero"></path>
        </g>
    </g>
</svg>
