<?xml version="1.0" encoding="UTF-8"?>
<svg width="16px" height="16px" viewBox="0 0 16 16" version="1.1" xmlns="http://www.w3.org/2000/svg" xmlns:xlink="http://www.w3.org/1999/xlink">
    <title>mail-line</title>
    <g id="页面-1" stroke="none" stroke-width="0" fill="none" fill-rule="evenodd">
        <g id="mail-line">
            <polygon id="路径" points="0 0 16 0 16 16 0 16"></polygon>
            <path d="M2,2 L14,2 C14.3682,2 14.6666667,2.29848 14.6666667,2.66666667 L14.6666667,13.3333333 C14.6666667,13.7015333 14.3682,14 14,14 L2,14 C1.63181333,14 1.33333333,13.7015333 1.33333333,13.3333333 L1.33333333,2.66666667 C1.33333333,2.29848 1.63181333,2 2,2 Z M13.3333333,4.82528 L8.04786667,9.55866667 L2.66666667,4.81062667 L2.66666667,12.6666667 L13.3333333,12.6666667 L13.3333333,4.82528 Z M3.00764,3.33333333 L8.04126667,7.77466667 L13.0006667,3.33333333 L3.00764,3.33333333 Z" id="形状" fill="currentColor" fill-rule="nonzero"></path>
        </g>
    </g>
</svg>
