<?xml version="1.0" encoding="UTF-8"?>
<svg width="16px" height="16px" viewBox="0 0 16 16" version="1.1" xmlns="http://www.w3.org/2000/svg" xmlns:xlink="http://www.w3.org/1999/xlink">
    <title>map-2-line</title>
    <g id="页面-1" stroke="none" stroke-width="0" fill="none" fill-rule="evenodd">
        <g id="map-2-line">
            <polygon id="路径" points="0 0 16 0 16 16 0 16"></polygon>
            <path d="M1.33333333,3.33333333 L6,1.33333333 L10,3.33333333 L14.202,1.53246667 C14.3712667,1.45994667 14.5672,1.53832667 14.6397333,1.70754 C14.6574667,1.74903333 14.6666667,1.79370667 14.6666667,1.83884667 L14.6666667,12.6666667 L10,14.6666667 L6,12.6666667 L1.79797333,14.4675333 C1.62876,14.5400667 1.43280667,14.4616667 1.36028667,14.2924667 C1.3425,14.251 1.33333333,14.2062667 1.33333333,14.1611333 L1.33333333,3.33333333 Z M10.6666667,12.9303333 L13.3333333,11.7874667 L13.3333333,3.35538667 L10.6666667,4.49824 L10.6666667,12.9303333 Z M9.33333333,12.8426 L9.33333333,4.49071333 L6.66666667,3.15738 L6.66666667,11.5092667 L9.33333333,12.8426 Z M5.33333333,11.5017333 L5.33333333,3.06967333 L2.66666667,4.21252667 L2.66666667,12.6446 L5.33333333,11.5017333 Z" id="形状" fill="currentColor" fill-rule="nonzero"></path>
        </g>
    </g>
</svg>
