<?xml version="1.0" encoding="UTF-8"?>
<svg width="16px" height="16px" viewBox="0 0 16 16" version="1.1" xmlns="http://www.w3.org/2000/svg" xmlns:xlink="http://www.w3.org/1999/xlink">
    <title>megaphone-line</title>
    <g id="页面-1" stroke="none" stroke-width="0" fill="none" fill-rule="evenodd">
        <g id="megaphone-line">
            <polygon id="路径" points="0 0 16 0 16 16 0 16"></polygon>
            <path d="M6,11.3333333 C6,11.3333333 10.6666667,12 12.6666667,14 L13.3333333,14 C13.7015333,14 14,13.7015333 14,13.3333333 L14,9.29133333 C14.5750667,9.14333333 15,8.62126667 15,8 C15,7.37873333 14.5750667,6.85666667 14,6.70866667 L14,2.66666667 C14,2.29848 13.7015333,2 13.3333333,2 L12.6666667,2 C10.6666667,4 6,4.66666667 6,4.66666667 L3.33333333,4.66666667 C2.59695333,4.66666667 2,5.26362 2,6 L2,10 C2,10.7364 2.59695333,11.3333333 3.33333333,11.3333333 L4,11.3333333 L4.66666667,14.6666667 L6,14.6666667 L6,11.3333333 Z M7.33333333,5.77413333 C7.78886667,5.6764 8.35166667,5.54128667 8.95953333,5.36248667 C10.0783333,5.03342667 11.5,4.51508 12.6666667,3.71638667 L12.6666667,12.2836 C11.5,11.4849333 10.0783333,10.9666 8.95953333,10.6375333 C8.35166667,10.4587333 7.78886667,10.3236 7.33333333,10.2258667 L7.33333333,5.77413333 Z M3.33333333,6 L6,6 L6,10 L3.33333333,10 L3.33333333,6 Z" id="形状" fill="currentColor" fill-rule="nonzero"></path>
        </g>
    </g>
</svg>
