<?xml version="1.0" encoding="UTF-8"?>
<svg width="16px" height="16px" viewBox="0 0 16 16" version="1.1" xmlns="http://www.w3.org/2000/svg" xmlns:xlink="http://www.w3.org/1999/xlink">
    <title>microsoft-line</title>
    <g id="页面-1" stroke="none" stroke-width="0" fill="none" fill-rule="evenodd">
        <g id="microsoft-line">
            <polygon id="路径" points="0 0 16 0 16 16 0 16"></polygon>
            <path d="M7.334,3.33333333 L3.33398667,3.33333333 L3.33398667,7.33333333 L7.334,7.33333333 L7.334,3.33333333 Z M8.66733333,3.33333333 L8.66733333,7.33333333 L12.6673333,7.33333333 L12.6673333,3.33333333 L8.66733333,3.33333333 Z M12.6673333,8.66666667 L8.66733333,8.66666667 L8.66733333,12.6666667 L12.6673333,12.6666667 L12.6673333,8.66666667 Z M7.334,12.6666667 L7.334,8.66666667 L3.33398667,8.66666667 L3.33398667,12.6666667 L7.334,12.6666667 Z M2.00065333,2 L14.0006667,2 L14.0006667,14 L2.00065333,14 L2.00065333,2 Z" id="形状" fill="currentColor" fill-rule="nonzero"></path>
        </g>
    </g>
</svg>
