<?xml version="1.0" encoding="UTF-8"?>
<svg width="16px" height="16px" viewBox="0 0 16 16" version="1.1" xmlns="http://www.w3.org/2000/svg" xmlns:xlink="http://www.w3.org/1999/xlink">
    <title>mind-map</title>
    <g id="页面-1" stroke="none" stroke-width="0" fill="none" fill-rule="evenodd">
        <g id="mind-map">
            <polygon id="路径" points="0 0 16 0 16 16 0 16"></polygon>
            <path d="M12,2 C13.1046,2 14,2.89543333 14,4 C14,5.10456667 13.1046,6 12,6 L10,6 C9.1294,6 8.38873333,5.44374667 8.114,4.66726667 L7.33333333,4.66666667 C6.6,4.66666667 6,5.26666667 6,6 L6.0006,6.11401333 C6.77706667,6.38874667 7.33333333,7.1294 7.33333333,8 C7.33333333,8.8706 6.77706667,9.61126667 6.0006,9.886 L6,10 C6,10.7333333 6.6,11.3333333 7.33333333,11.3333333 L8.1138,11.3334 C8.38833333,10.5566 9.12913333,10 10,10 L12,10 C13.1046,10 14,10.8954 14,12 C14,13.1046 13.1046,14 12,14 L10,14 C9.1294,14 8.38873333,13.4437333 8.114,12.6672667 L7.33333333,12.6666667 C5.86,12.6666667 4.66666667,11.4733333 4.66666667,10 L3.33333333,10 C2.22876667,10 1.33333333,9.1046 1.33333333,8 C1.33333333,6.8954 2.22876667,6 3.33333333,6 L4.66666667,6 C4.66666667,4.52724 5.86057333,3.33333333 7.33333333,3.33333333 L8.1138,3.33339333 C8.38833333,2.55656667 9.12913333,2 10,2 L12,2 Z M12,11.3333333 L10,11.3333333 C9.6318,11.3333333 9.33333333,11.6318 9.33333333,12 C9.33333333,12.3682 9.6318,12.6666667 10,12.6666667 L12,12.6666667 C12.3682,12.6666667 12.6666667,12.3682 12.6666667,12 C12.6666667,11.6318 12.3682,11.3333333 12,11.3333333 Z M5.33333333,7.33333333 L3.33333333,7.33333333 C2.96514667,7.33333333 2.66666667,7.6318 2.66666667,8 C2.66666667,8.3682 2.96514667,8.66666667 3.33333333,8.66666667 L5.33333333,8.66666667 C5.70152,8.66666667 6,8.3682 6,8 C6,7.6318 5.70152,7.33333333 5.33333333,7.33333333 Z M12,3.33333333 L10,3.33333333 C9.6318,3.33333333 9.33333333,3.63181333 9.33333333,4 C9.33333333,4.36818667 9.6318,4.66666667 10,4.66666667 L12,4.66666667 C12.3682,4.66666667 12.6666667,4.36818667 12.6666667,4 C12.6666667,3.63181333 12.3682,3.33333333 12,3.33333333 Z" id="形状" fill="currentColor" fill-rule="nonzero"></path>
        </g>
    </g>
</svg>
