<?xml version="1.0" encoding="UTF-8"?>
<svg width="16px" height="16px" viewBox="0 0 16 16" version="1.1" xmlns="http://www.w3.org/2000/svg" xmlns:xlink="http://www.w3.org/1999/xlink">
    <title>money-dollar-box-line</title>
    <g id="页面-1" stroke="none" stroke-width="0" fill="none" fill-rule="evenodd">
        <g id="money-dollar-box-line">
            <polygon id="路径" points="0 0 16 0 16 16 0 16"></polygon>
            <path d="M2.00325333,2.00183333 L14.0032667,2.00183333 C14.3714667,2.00183333 14.6699333,2.30030667 14.6699333,2.6685 L14.6699333,13.3351333 C14.6699333,13.7033333 14.3714667,14.0018 14.0032667,14.0018 L2.00325333,14.0018 C1.63506667,14.0018 1.33658667,13.7033333 1.33658667,13.3351333 L1.33658667,2.6685 C1.33658667,2.30030667 1.63506667,2.00183333 2.00325333,2.00183333 Z M2.66992,3.33516667 L2.66992,12.6684667 L13.3366,12.6684667 L13.3366,3.33516667 L2.66992,3.33516667 Z M5.66992,9.33513333 L9.3366,9.33513333 C9.52066667,9.33513333 9.66993333,9.18593333 9.66993333,9.0018 C9.66993333,8.81773333 9.52066667,8.66846667 9.3366,8.66846667 L6.66993333,8.66846667 C5.74944667,8.66846667 5.00325333,7.92233333 5.00325333,7.0018 C5.00325333,6.08135333 5.74944667,5.33516667 6.66993333,5.33516667 L7.3366,5.33516667 L7.3366,4.00183333 L8.66993333,4.00183333 L8.66993333,5.33516667 L10.3366,5.33516667 L10.3366,6.66846667 L6.66993333,6.66846667 C6.48582667,6.66846667 6.33658667,6.81773333 6.33658667,7.0018 C6.33658667,7.18593333 6.48582667,7.33513333 6.66993333,7.33513333 L9.3366,7.33513333 C10.2570667,7.33513333 11.0032667,8.08133333 11.0032667,9.0018 C11.0032667,9.92233333 10.2570667,10.6684667 9.3366,10.6684667 L8.66993333,10.6684667 L8.66993333,12.0018 L7.3366,12.0018 L7.3366,10.6684667 L5.66992,10.6684667 L5.66992,9.33513333 Z" id="形状" fill="currentColor" fill-rule="nonzero"></path>
        </g>
    </g>
</svg>
