<?xml version="1.0" encoding="UTF-8"?>
<svg width="16px" height="16px" viewBox="0 0 16 16" version="1.1" xmlns="http://www.w3.org/2000/svg" xmlns:xlink="http://www.w3.org/1999/xlink">
    <title>news-line</title>
    <g id="页面-1" stroke="none" stroke-width="0" fill="none" fill-rule="evenodd">
        <g id="news-line">
            <polygon id="路径" points="0 0 16 0 16 16 0 16"></polygon>
            <path d="M1.33333333,2.66666667 C1.33333333,2.29848 1.63181333,2 2,2 L14,2 C14.3682,2 14.6666667,2.29848 14.6666667,2.66666667 L14.6666667,13.3333333 C14.6666667,13.7015333 14.3682,14 14,14 L2,14 C1.63181333,14 1.33333333,13.7015333 1.33333333,13.3333333 L1.33333333,2.66666667 Z M2.66666667,3.33333333 L2.66666667,12.6666667 L13.3333333,12.6666667 L13.3333333,3.33333333 L2.66666667,3.33333333 Z M4,4.66666667 L8,4.66666667 L8,8.66666667 L4,8.66666667 L4,4.66666667 Z M5.33333333,6 L5.33333333,7.33333333 L6.66666667,7.33333333 L6.66666667,6 L5.33333333,6 Z M9.33333333,6 L12,6 L12,4.66666667 L9.33333333,4.66666667 L9.33333333,6 Z M12,8.66666667 L9.33333333,8.66666667 L9.33333333,7.33333333 L12,7.33333333 L12,8.66666667 Z M4,10 L4,11.3333333 L12,11.3333333 L12,10 L4,10 Z" id="形状" fill="currentColor" fill-rule="nonzero"></path>
        </g>
    </g>
</svg>
