<?xml version="1.0" encoding="UTF-8"?>
<svg width="16px" height="16px" viewBox="0 0 16 16" version="1.1" xmlns="http://www.w3.org/2000/svg" xmlns:xlink="http://www.w3.org/1999/xlink">
    <title>newspaper-line</title>
    <g id="页面-1" stroke="none" stroke-width="0" fill="none" fill-rule="evenodd">
        <g id="newspaper-line">
            <polygon id="路径" points="0 0 16 0 16 16 0 16"></polygon>
            <path d="M10.6666667,13.3333333 L10.6666667,2.66666667 L2.66666667,2.66666667 L2.66666667,12.6666667 C2.66666667,13.0348667 2.96514667,13.3333333 3.33333333,13.3333333 L10.6666667,13.3333333 Z M12.6666667,14.6666667 L3.33333333,14.6666667 C2.22876667,14.6666667 1.33333333,13.7712667 1.33333333,12.6666667 L1.33333333,2 C1.33333333,1.63181333 1.63181333,1.33333333 2,1.33333333 L11.3333333,1.33333333 C11.7015333,1.33333333 12,1.63181333 12,2 L12,6.66666667 L14.6666667,6.66666667 L14.6666667,12.6666667 C14.6666667,13.7712667 13.7712667,14.6666667 12.6666667,14.6666667 Z M12,8 L12,12.6666667 C12,13.0348667 12.2984667,13.3333333 12.6666667,13.3333333 C13.0348667,13.3333333 13.3333333,13.0348667 13.3333333,12.6666667 L13.3333333,8 L12,8 Z M4,4 L8,4 L8,8 L4,8 L4,4 Z M5.33333333,5.33333333 L5.33333333,6.66666667 L6.66666667,6.66666667 L6.66666667,5.33333333 L5.33333333,5.33333333 Z M4,8.66666667 L9.33333333,8.66666667 L9.33333333,10 L4,10 L4,8.66666667 Z M4,10.6666667 L9.33333333,10.6666667 L9.33333333,12 L4,12 L4,10.6666667 Z" id="形状" fill="currentColor" fill-rule="nonzero"></path>
        </g>
    </g>
</svg>
