<?xml version="1.0" encoding="UTF-8"?>
<svg width="16px" height="16px" viewBox="0 0 16 16" version="1.1" xmlns="http://www.w3.org/2000/svg" xmlns:xlink="http://www.w3.org/1999/xlink">
    <title>node-tree</title>
    <g id="页面-1" stroke="none" stroke-width="0" fill="none" fill-rule="evenodd">
        <g id="node-tree">
            <polygon id="路径" points="0 0 16 0 16 16 0 16"></polygon>
            <path d="M6.66666667,1.33333333 C7.03486667,1.33333333 7.33333333,1.63181333 7.33333333,2 L7.33333333,4.66666667 C7.33333333,5.03485333 7.03486667,5.33333333 6.66666667,5.33333333 L5.33333333,5.33333333 L5.33333333,6.66666667 L8.66666667,6.66666667 L8.66666667,6 C8.66666667,5.63181333 8.96513333,5.33333333 9.33333333,5.33333333 L13.3333333,5.33333333 C13.7015333,5.33333333 14,5.63181333 14,6 L14,8.66666667 C14,9.03486667 13.7015333,9.33333333 13.3333333,9.33333333 L9.33333333,9.33333333 C8.96513333,9.33333333 8.66666667,9.03486667 8.66666667,8.66666667 L8.66666667,8 L5.33333333,8 L5.33333333,12 L8.66666667,12 L8.66666667,11.3333333 C8.66666667,10.9651333 8.96513333,10.6666667 9.33333333,10.6666667 L13.3333333,10.6666667 C13.7015333,10.6666667 14,10.9651333 14,11.3333333 L14,14 C14,14.3682 13.7015333,14.6666667 13.3333333,14.6666667 L9.33333333,14.6666667 C8.96513333,14.6666667 8.66666667,14.3682 8.66666667,14 L8.66666667,13.3333333 L4.66666667,13.3333333 C4.29848,13.3333333 4,13.0348667 4,12.6666667 L4,5.33333333 L2.66666667,5.33333333 C2.29848,5.33333333 2,5.03485333 2,4.66666667 L2,2 C2,1.63181333 2.29848,1.33333333 2.66666667,1.33333333 L6.66666667,1.33333333 Z M12.6666667,12 L10,12 L10,13.3333333 L12.6666667,13.3333333 L12.6666667,12 Z M12.6666667,6.66666667 L10,6.66666667 L10,8 L12.6666667,8 L12.6666667,6.66666667 Z M6,2.66666667 L3.33333333,2.66666667 L3.33333333,4 L6,4 L6,2.66666667 Z" id="形状" fill="currentColor" fill-rule="nonzero"></path>
        </g>
    </g>
</svg>
