<?xml version="1.0" encoding="UTF-8"?>
<svg width="16px" height="16px" viewBox="0 0 16 16" version="1.1" xmlns="http://www.w3.org/2000/svg" xmlns:xlink="http://www.w3.org/1999/xlink">
    <title>openai-line</title>
    <g id="页面-1" stroke="none" stroke-width="0" fill="none" fill-rule="evenodd">
        <g id="openai-line">
            <polygon id="路径" points="0 0 16 0 16 16 0 16"></polygon>
            <path d="M7.33333333,2.66666667 C7.7658,2.66666667 8.16653333,2.80379333 8.49406667,3.03764 C7.6324,3.48609333 6.84013333,4.05082 5.99997333,4.5359 L6.66664,5.6906 C7.71666667,5.08436 8.70113333,4.32360667 9.84053333,3.88691333 C10.7422667,3.54132 11.7873333,3.89317333 12.2854667,4.75598667 C12.5017333,5.13054667 12.5832667,5.54611333 12.5445333,5.94670667 C11.7253333,5.42472 10.8401333,5.02097333 10,4.5359 L9.33333333,5.6906 C10.3833333,6.29683333 11.5344,6.76906667 12.4822667,7.5374 C13.2324667,8.14553333 13.4502667,9.22653333 12.9521333,10.0893333 C12.7358,10.464 12.4166,10.7424667 12.0501333,10.9092 C12.0923333,9.93873333 12,8.9702 12,8 L10.6666667,8 C10.6666667,9.21226667 10.8332,10.4456667 10.6417333,11.6505333 C10.4902,12.6042 9.66293333,13.3333333 8.66666667,13.3333333 C8.234,13.3333333 7.8332,13.1961333 7.5056,12.9621333 C8.3672,12.5134 9.15973333,11.9492 10,11.4641333 L9.33333333,10.3094 C8.28346667,10.9155333 7.29853333,11.6764667 6.15941333,12.1130667 C5.25771333,12.4586667 4.21265333,12.1068 3.71450667,11.244 C3.49819333,10.8693333 3.41662,10.4536667 3.45544,10.0529333 C4.27482667,10.5747333 5.15976,10.979 5.99998,11.4641333 L6.66664667,10.3094 C5.61678,9.70326667 4.46534,9.2308 3.51766,8.4626 C2.76752,7.85446667 2.5497,6.77346667 3.04784,5.91068 C3.26416,5.53601333 3.58337333,5.25752 3.9498,5.09078667 C3.90763333,6.06128 3.99998,7.0298 3.99998,8 L5.33331333,8 C5.33331333,6.78773333 5.16675333,5.55432 5.35822,4.34948 C5.50978,3.39579333 6.33702667,2.66666667 7.33333333,2.66666667 Z M9.86166667,2.49447333 C9.251,1.78439333 8.34506667,1.33333333 7.33333333,1.33333333 C5.85213333,1.33333333 4.59747333,2.29888667 4.1629,3.63495333 C3.24262,3.80876 2.39900667,4.36783333 1.89314,5.24401333 C1.15255333,6.52675333 1.36142,8.09613333 2.3012,9.14046667 C1.99158,10.0244 2.05394667,11.0345333 2.55980667,11.9106667 C3.30039333,13.1934 4.76392667,13.7972 6.13828,13.5055333 C6.74893333,14.2156 7.65493333,14.6666667 8.66666667,14.6666667 C10.1478,14.6666667 11.4024667,13.7011333 11.8370667,12.3650667 C12.7573333,12.1912667 13.6009333,11.6321333 14.1068,10.756 C14.8474,9.47326667 14.6385333,7.90393333 13.6987333,6.85953333 C14.0084,5.97563333 13.946,4.9655 13.4401333,4.08932 C12.6995333,2.80658 11.236,2.20279333 9.86166667,2.49447333 Z" id="形状" fill="currentColor" fill-rule="nonzero"></path>
        </g>
    </g>
</svg>
