<?xml version="1.0" encoding="UTF-8"?>
<svg width="16px" height="16px" viewBox="0 0 16 16" version="1.1" xmlns="http://www.w3.org/2000/svg" xmlns:xlink="http://www.w3.org/1999/xlink">
    <title>organization-chart</title>
    <g id="页面-1" stroke="none" stroke-width="0" fill="none" fill-rule="evenodd">
        <g id="organization-chart">
            <polygon id="路径" points="0 0 16 0 16 16 0 16"></polygon>
            <path d="M10,2 C10.3682,2 10.6666667,2.29848 10.6666667,2.66666667 L10.6666667,5.33333333 C10.6666667,5.70152 10.3682,6 10,6 L8.66666667,6 L8.66666667,7.33333333 L11.3333333,7.33333333 C11.7015333,7.33333333 12,7.6318 12,8 L12,10 L13.3333333,10 C13.7015333,10 14,10.2984667 14,10.6666667 L14,13.3333333 C14,13.7015333 13.7015333,14 13.3333333,14 L9.33333333,14 C8.96513333,14 8.66666667,13.7015333 8.66666667,13.3333333 L8.66666667,10.6666667 C8.66666667,10.2984667 8.96513333,10 9.33333333,10 L10.6666667,10 L10.6666667,8.66666667 L5.33333333,8.66666667 L5.33333333,10 L6.66666667,10 C7.03486667,10 7.33333333,10.2984667 7.33333333,10.6666667 L7.33333333,13.3333333 C7.33333333,13.7015333 7.03486667,14 6.66666667,14 L2.66666667,14 C2.29848,14 2,13.7015333 2,13.3333333 L2,10.6666667 C2,10.2984667 2.29848,10 2.66666667,10 L4,10 L4,8 C4,7.6318 4.29848,7.33333333 4.66666667,7.33333333 L7.33333333,7.33333333 L7.33333333,6 L6,6 C5.63181333,6 5.33333333,5.70152 5.33333333,5.33333333 L5.33333333,2.66666667 C5.33333333,2.29848 5.63181333,2 6,2 L10,2 Z M6,11.3333333 L3.33333333,11.3333333 L3.33333333,12.6666667 L6,12.6666667 L6,11.3333333 Z M12.6666667,11.3333333 L10,11.3333333 L10,12.6666667 L12.6666667,12.6666667 L12.6666667,11.3333333 Z M9.33333333,3.33333333 L6.66666667,3.33333333 L6.66666667,4.66666667 L9.33333333,4.66666667 L9.33333333,3.33333333 Z" id="形状" fill="currentColor" fill-rule="nonzero"></path>
        </g>
    </g>
</svg>
