<?xml version="1.0" encoding="UTF-8"?>
<svg width="16px" height="16px" viewBox="0 0 16 16" version="1.1" xmlns="http://www.w3.org/2000/svg" xmlns:xlink="http://www.w3.org/1999/xlink">
    <title>rainbow-line</title>
    <g id="页面-1" stroke="none" stroke-width="0" fill="none" fill-rule="evenodd">
        <g id="rainbow-line">
            <polygon id="路径" points="0 0 16 0 16 16 0 16"></polygon>
            <path d="M8,2.66666667 C12.0500667,2.66666667 15.3333333,5.94991333 15.3333333,10 L15.3333333,13.3333333 L14,13.3333333 L14,10 C14,6.74546667 11.4088,4.09614 8.17693333,4.00256 L8,4 C4.74546667,4 2.09614,6.59120667 2.00256,9.82306667 L2,10 L2,13.3333333 L0.666666667,13.3333333 L0.666666667,10 C0.666666667,5.94991333 3.94991333,2.66666667 8,2.66666667 Z M8,5.33333333 C10.5773333,5.33333333 12.6666667,7.42266667 12.6666667,10 L12.6666667,13.3333333 L11.3333333,13.3333333 L11.3333333,10 C11.3333333,8.20746667 9.91846667,6.74546667 8.1446,6.66973333 L8,6.66666667 C6.20749333,6.66666667 4.74545333,8.08153333 4.66974667,9.8554 L4.66666667,10 L4.66666667,13.3333333 L3.33333333,13.3333333 L3.33333333,10 C3.33333333,7.42266667 5.42267333,5.33333333 8,5.33333333 Z M8,8 C9.1046,8 10,8.8954 10,10 L10,13.3333333 L8.66666667,13.3333333 L8.66666667,10 C8.66666667,9.65813333 8.40933333,9.37633333 8.07773333,9.3378 L8,9.33333333 C7.65813333,9.33333333 7.37633333,9.59066667 7.3378,9.92226667 L7.33333333,10 L7.33333333,13.3333333 L6,13.3333333 L6,10 C6,8.8954 6.8954,8 8,8 Z" id="形状" fill="currentColor" fill-rule="nonzero"></path>
        </g>
    </g>
</svg>
