<?xml version="1.0" encoding="UTF-8"?>
<svg width="16px" height="16px" viewBox="0 0 16 16" version="1.1" xmlns="http://www.w3.org/2000/svg" xmlns:xlink="http://www.w3.org/1999/xlink">
    <title>safe-line</title>
    <g id="页面-1" stroke="none" stroke-width="0" fill="none" fill-rule="evenodd">
        <g id="safe-line">
            <polygon id="路径" points="0 0 16 0 16 16 0 16"></polygon>
            <path d="M12.0032667,13.3332 L4.00325333,13.3332 L4.00325333,14.6665333 L2.66992,14.6665333 L2.66992,13.3332 L2.00325333,13.3332 C1.63506667,13.3332 1.33658667,13.0347333 1.33658667,12.6665333 L1.33658667,2.66652667 C1.33658667,2.29833333 1.63506667,1.99986 2.00325333,1.99986 L14.0032667,1.99986 C14.3714667,1.99986 14.6699333,2.29833333 14.6699333,2.66652667 L14.6699333,12.6665333 C14.6699333,13.0347333 14.3714667,13.3332 14.0032667,13.3332 L13.3366,13.3332 L13.3366,14.6665333 L12.0032667,14.6665333 L12.0032667,13.3332 Z M2.66992,11.9998667 L13.3366,11.9998667 L13.3366,3.33319333 L2.66992,3.33319333 L2.66992,11.9998667 Z M8.66993333,9.2492 L8.66993333,11.3332 L7.3366,11.3332 L7.3366,9.2492 C6.18644,8.95313333 5.33658667,7.90906667 5.33658667,6.66652667 C5.33658667,5.19376667 6.53049333,3.99986 8.00326667,3.99986 C9.476,3.99986 10.6699333,5.19376667 10.6699333,6.66652667 C10.6699333,7.90906667 9.82006667,8.95313333 8.66993333,9.2492 Z M8.00326667,7.99986667 C8.73966667,7.99986667 9.3366,7.40293333 9.3366,6.66652667 C9.3366,5.93014667 8.73966667,5.33319333 8.00326667,5.33319333 C7.26686667,5.33319333 6.66993333,5.93014667 6.66993333,6.66652667 C6.66993333,7.40293333 7.26686667,7.99986667 8.00326667,7.99986667 Z" id="形状" fill="currentColor" fill-rule="nonzero"></path>
        </g>
    </g>
</svg>
