<?xml version="1.0" encoding="UTF-8"?>
<svg width="16px" height="16px" viewBox="0 0 16 16" version="1.1" xmlns="http://www.w3.org/2000/svg" xmlns:xlink="http://www.w3.org/1999/xlink">
    <title>settings-line</title>
    <g id="页面-1" stroke="none" stroke-width="0" fill="none" fill-rule="evenodd">
        <g id="settings-line">
            <polygon id="路径" points="0 0 16 0 16 16 0 16"></polygon>
            <path d="M8,0.666666667 L14.3333333,4.33333333 L14.3333333,11.6666667 L8,15.3333333 L1.66666667,11.6666667 L1.66666667,4.33333333 L8,0.666666667 Z M8,2.20733333 L3,5.10207333 L3,10.8979333 L8,13.7926667 L13,10.8979333 L13,5.10207333 L8,2.20733333 Z M8,10.6666667 C6.52724,10.6666667 5.33333333,9.47273333 5.33333333,8 C5.33333333,6.52724 6.52724,5.33333333 8,5.33333333 C9.47273333,5.33333333 10.6666667,6.52724 10.6666667,8 C10.6666667,9.47273333 9.47273333,10.6666667 8,10.6666667 Z M8,9.33333333 C8.7364,9.33333333 9.33333333,8.7364 9.33333333,8 C9.33333333,7.2636 8.7364,6.66666667 8,6.66666667 C7.2636,6.66666667 6.66666667,7.2636 6.66666667,8 C6.66666667,8.7364 7.2636,9.33333333 8,9.33333333 Z" id="形状" fill="currentColor" fill-rule="nonzero"></path>
        </g>
    </g>
</svg>
