<?xml version="1.0" encoding="UTF-8"?>
<svg width="16px" height="16px" viewBox="0 0 16 16" version="1.1" xmlns="http://www.w3.org/2000/svg" xmlns:xlink="http://www.w3.org/1999/xlink">
    <title>shield-check-line</title>
    <g id="页面-1" stroke="none" stroke-width="0" fill="none" fill-rule="evenodd">
        <g id="shield-check-line">
            <polygon id="路径" points="0 0 16 0 16 16 0 16"></polygon>
            <path d="M8,0.666666667 L13.4779333,1.88398667 C13.783,1.95177333 14,2.22231333 14,2.53478 L14,9.1926 C14,10.53 13.3316,11.7789333 12.2188,12.5208 L8,15.3333333 L3.7812,12.5208 C2.66840667,11.7789333 2,10.53 2,9.1926 L2,2.53478 C2,2.22231333 2.21702,1.95177333 2.52204667,1.88398667 L8,0.666666667 Z M8,2.03252667 L3.33333333,3.06956 L3.33333333,9.1926 C3.33333333,10.0842 3.77893333,10.9168 4.5208,11.4114 L8,13.7308667 L11.4792,11.4114 C12.2210667,10.9168 12.6666667,10.0842 12.6666667,9.1926 L12.6666667,3.06956 L8,2.03252667 Z M10.9682667,5.48122 L11.9110667,6.42402667 L7.6684,10.6666667 L4.83999333,7.83826667 L5.78280667,6.8954 L7.66793333,8.7806 L10.9682667,5.48122 Z" id="形状" fill="currentColor" fill-rule="nonzero"></path>
        </g>
    </g>
</svg>
