<?xml version="1.0" encoding="UTF-8"?>
<svg width="16px" height="16px" viewBox="0 0 16 16" version="1.1" xmlns="http://www.w3.org/2000/svg" xmlns:xlink="http://www.w3.org/1999/xlink">
    <title>shuffle-line</title>
    <g id="页面-1" stroke="none" stroke-width="0" fill="none" fill-rule="evenodd">
        <g id="shuffle-line">
            <polygon id="路径" points="0 0 16 0 16 16 0 16"></polygon>
            <path d="M12,11.9221333 L12,10.6666667 L15.3333333,12.6666667 L12,14.6666667 L12,13.273 C9.94826667,12.9798667 8.16753333,11.6389333 7.33526667,9.69686667 L7.33333333,9.6924 L7.3314,9.69686667 C6.38595333,11.9029333 4.21672,13.3333333 1.81655333,13.3333333 L1.33333333,13.3333333 L1.33333333,12 L1.81655333,12 C3.68335333,12 5.37052667,10.8874667 6.1059,9.1716 L6.60802,8 L6.1059,6.8284 C5.37052667,5.11252 3.68335333,4 1.81655333,4 L1.33333333,4 L1.33333333,2.66666667 L1.81655333,2.66666667 C4.21672,2.66666667 6.38595333,4.09704667 7.3314,6.30315333 L7.33333333,6.30760667 L7.33526667,6.30315333 C8.16753333,4.36106667 9.94826667,3.02014667 12,2.72700667 L12,1.33333333 L15.3333333,3.33333333 L12,5.33333333 L12,4.07789333 C10.4844,4.35842 9.18246667,5.3778 8.5608,6.8284 L8.05866667,8 L8.5608,9.1716 C9.18246667,10.6222 10.4844,11.6416 12,11.9221333 Z" id="路径" fill="currentColor" fill-rule="nonzero"></path>
        </g>
    </g>
</svg>
