<?xml version="1.0" encoding="UTF-8"?>
<svg width="16px" height="16px" viewBox="0 0 16 16" version="1.1" xmlns="http://www.w3.org/2000/svg" xmlns:xlink="http://www.w3.org/1999/xlink">
    <title>slideshow-4-line</title>
    <g id="页面-1" stroke="none" stroke-width="0" fill="none" fill-rule="evenodd">
        <g id="slideshow-4-line">
            <polygon id="路径" points="0 0 16 0 16 16 0 16"></polygon>
            <path d="M5.44714,2 C5.72169333,1.22320667 6.46252,0.666666667 7.33333333,0.666666667 L8.66666667,0.666666667 C9.53746667,0.666666667 10.2783333,1.22320667 10.5528667,2 L14,2 C14.3682,2 14.6666667,2.29848 14.6666667,2.66666667 L14.6666667,13.3333333 C14.6666667,13.7015333 14.3682,14 14,14 L2,14 C1.63181333,14 1.33333333,13.7015333 1.33333333,13.3333333 L1.33333333,2.66666667 C1.33333333,2.29848 1.63181333,2 2,2 L5.44714,2 Z M2.66666667,3.33333333 L2.66666667,12.6666667 L13.3333333,12.6666667 L13.3333333,3.33333333 L10.5528667,3.33333333 C10.2783333,4.11012667 9.53746667,4.66666667 8.66666667,4.66666667 L7.33333333,4.66666667 C6.46252,4.66666667 5.72169333,4.11012667 5.44714,3.33333333 L2.66666667,3.33333333 Z M7.33333333,2 C6.96513333,2 6.66666667,2.29848 6.66666667,2.66666667 C6.66666667,3.03485333 6.96513333,3.33333333 7.33333333,3.33333333 L8.66666667,3.33333333 C9.03486667,3.33333333 9.33333333,3.03485333 9.33333333,2.66666667 C9.33333333,2.29848 9.03486667,2 8.66666667,2 L7.33333333,2 Z M6.66666667,6 L10,8 L6.66666667,10 L6.66666667,6 Z" id="形状" fill="currentColor" fill-rule="nonzero"></path>
        </g>
    </g>
</svg>
