<?xml version="1.0" encoding="UTF-8"?>
<svg width="16px" height="16px" viewBox="0 0 16 16" version="1.1" xmlns="http://www.w3.org/2000/svg" xmlns:xlink="http://www.w3.org/1999/xlink">
    <title>slideshow-3-line</title>
    <g id="页面-1" stroke="none" stroke-width="0" fill="none" fill-rule="evenodd">
        <g id="slideshow-3-line">
            <polygon id="路径" points="0 0 16 0 16 16 0 16"></polygon>
            <path d="M8.66666667,12 L8.66666667,13.3333333 L11.3333333,13.3333333 L11.3333333,14.6666667 L4.66666667,14.6666667 L4.66666667,13.3333333 L7.33333333,13.3333333 L7.33333333,12 L2,12 C1.63181333,12 1.33333333,11.7015333 1.33333333,11.3333333 L1.33333333,2.66666667 C1.33333333,2.29848 1.63181333,2 2,2 L14,2 C14.3682,2 14.6666667,2.29848 14.6666667,2.66666667 L14.6666667,11.3333333 C14.6666667,11.7015333 14.3682,12 14,12 L8.66666667,12 Z M2.66666667,3.33333333 L2.66666667,10.6666667 L13.3333333,10.6666667 L13.3333333,3.33333333 L2.66666667,3.33333333 Z M6.66666667,5 L10,7 L6.66666667,9 L6.66666667,5 Z" id="形状" fill="currentColor" fill-rule="nonzero"></path>
        </g>
    </g>
</svg>
