<?xml version="1.0" encoding="UTF-8"?>
<svg width="16px" height="16px" viewBox="0 0 16 16" version="1.1" xmlns="http://www.w3.org/2000/svg" xmlns:xlink="http://www.w3.org/1999/xlink">
    <title>slideshow-line</title>
    <g id="页面-1" stroke="none" stroke-width="0" fill="none" fill-rule="evenodd">
        <g id="slideshow-line">
            <polygon id="路径" points="0 0 16 0 16 16 0 16"></polygon>
            <path d="M8.66666667,14 L8.66666667,15.3333333 L7.33333333,15.3333333 L7.33333333,14 L2,14 C1.63181333,14 1.33333333,13.7015333 1.33333333,13.3333333 L1.33333333,4 L14.6666667,4 L14.6666667,13.3333333 C14.6666667,13.7015333 14.3682,14 14,14 L8.66666667,14 Z M2.66666667,12.6666667 L13.3333333,12.6666667 L13.3333333,5.33333333 L2.66666667,5.33333333 L2.66666667,12.6666667 Z M8.66666667,6.66666667 L12,6.66666667 L12,8 L8.66666667,8 L8.66666667,6.66666667 Z M8.66666667,9.33333333 L12,9.33333333 L12,10.6666667 L8.66666667,10.6666667 L8.66666667,9.33333333 Z M6,6.66666667 L6,8.66666667 L8,8.66666667 C8,9.77126667 7.1046,10.6666667 6,10.6666667 C4.89543333,10.6666667 4,9.77126667 4,8.66666667 C4,7.56206667 4.89543333,6.66666667 6,6.66666667 Z M1.33333333,2 L14.6666667,2 L14.6666667,3.33333333 L1.33333333,3.33333333 L1.33333333,2 Z" id="形状" fill="currentColor" fill-rule="nonzero"></path>
        </g>
    </g>
</svg>
