<?xml version="1.0" encoding="UTF-8"?>
<svg width="16px" height="16px" viewBox="0 0 16 16" version="1.1" xmlns="http://www.w3.org/2000/svg" xmlns:xlink="http://www.w3.org/1999/xlink">
    <title>slideshow-2-line</title>
    <g id="页面-1" stroke="none" stroke-width="0" fill="none" fill-rule="evenodd">
        <g id="slideshow-2-line">
            <polygon id="路径" points="0 0 16 0 16 16 0 16"></polygon>
            <path d="M8.66666667,11.3333333 L8.66666667,13.3333333 L12,13.3333333 L12,14.6666667 L4,14.6666667 L4,13.3333333 L7.33333333,13.3333333 L7.33333333,11.3333333 L2.66666667,11.3333333 C2.29848,11.3333333 2,11.0348667 2,10.6666667 L2,2.66666667 L1.33333333,2.66666667 L1.33333333,1.33333333 L14.6666667,1.33333333 L14.6666667,2.66666667 L14,2.66666667 L14,10.6666667 C14,11.0348667 13.7015333,11.3333333 13.3333333,11.3333333 L8.66666667,11.3333333 Z M3.33333333,10 L12.6666667,10 L12.6666667,2.66666667 L3.33333333,2.66666667 L3.33333333,10 Z M6.66666667,4 L10,6.33333333 L6.66666667,8.66666667 L6.66666667,4 Z" id="形状" fill="currentColor" fill-rule="nonzero"></path>
        </g>
    </g>
</svg>
