<?xml version="1.0" encoding="UTF-8"?>
<svg width="16px" height="16px" viewBox="0 0 16 16" version="1.1" xmlns="http://www.w3.org/2000/svg" xmlns:xlink="http://www.w3.org/1999/xlink">
    <title>smartphone-line</title>
    <g id="页面-1" stroke="none" stroke-width="0" fill="none" fill-rule="evenodd">
        <g id="smartphone-line">
            <polygon id="路径" points="0 0 16 0 16 16 0 16"></polygon>
            <path d="M4.66666667,2.66666667 L4.66666667,13.3333333 L11.3333333,13.3333333 L11.3333333,2.66666667 L4.66666667,2.66666667 Z M4,1.33333333 L12,1.33333333 C12.3682,1.33333333 12.6666667,1.63181333 12.6666667,2 L12.6666667,14 C12.6666667,14.3682 12.3682,14.6666667 12,14.6666667 L4,14.6666667 C3.63181333,14.6666667 3.33333333,14.3682 3.33333333,14 L3.33333333,2 C3.33333333,1.63181333 3.63181333,1.33333333 4,1.33333333 Z M8,11.3333333 C8.3682,11.3333333 8.66666667,11.6318 8.66666667,12 C8.66666667,12.3682 8.3682,12.6666667 8,12.6666667 C7.6318,12.6666667 7.33333333,12.3682 7.33333333,12 C7.33333333,11.6318 7.6318,11.3333333 8,11.3333333 Z" id="形状" fill="currentColor" fill-rule="nonzero"></path>
        </g>
    </g>
</svg>
