<?xml version="1.0" encoding="UTF-8"?>
<svg width="16px" height="16px" viewBox="0 0 16 16" version="1.1" xmlns="http://www.w3.org/2000/svg" xmlns:xlink="http://www.w3.org/1999/xlink">
    <title>stack-line</title>
    <g id="页面-1" stroke="none" stroke-width="0" fill="none" fill-rule="evenodd">
        <g id="stack-line">
            <polygon id="路径" points="0 0 16 0 16 16 0 16"></polygon>
            <path d="M13.3888667,10.1332667 L14.1902667,10.6141333 C14.3480667,10.7088667 14.3992667,10.9136 14.3046,11.0714667 C14.2764,11.1184 14.2371333,11.1576667 14.1902667,11.1858 L8.34293333,14.6941333 C8.1318,14.8208667 7.86806667,14.8208667 7.65693333,14.6941333 L1.80967333,11.1858 C1.65181333,11.0910667 1.60062,10.8863333 1.69534,10.7284667 C1.72348667,10.6815333 1.76275333,10.6422667 1.80967333,10.6141333 L2.61106667,10.1332667 L7.99993333,13.3666 L13.3888667,10.1332667 Z M13.3888667,6.99993333 L14.1902667,7.4808 C14.3480667,7.57553333 14.3992667,7.78026667 14.3046,7.93813333 C14.2764,7.98506667 14.2371333,8.02433333 14.1902667,8.05246667 L7.99993333,11.7666 L1.80967333,8.05246667 C1.65181333,7.95773333 1.60062,7.753 1.69534,7.59513333 C1.72348667,7.5482 1.76275333,7.50893333 1.80967333,7.4808 L2.61106667,6.99993333 L7.99993333,10.2332667 L13.3888667,6.99993333 Z M8.34293333,0.872426667 L14.1902667,4.3808 C14.3480667,4.47551333 14.3992667,4.68026667 14.3046,4.83812667 C14.2764,4.88504667 14.2371333,4.92431333 14.1902667,4.95246 L7.99993333,8.6666 L1.80967333,4.95246 C1.65181333,4.85774667 1.60062,4.65299333 1.69534,4.49513333 C1.72348667,4.44821333 1.76275333,4.40895333 1.80967333,4.3808 L7.65693333,0.872426667 C7.86806667,0.74576 8.1318,0.74576 8.34293333,0.872426667 Z M7.99993333,2.22155333 L3.92482,4.66663333 L7.99993333,7.11173333 L12.0750667,4.66663333 L7.99993333,2.22155333 Z" id="形状" fill="currentColor" fill-rule="nonzero"></path>
        </g>
    </g>
</svg>
