<?xml version="1.0" encoding="UTF-8"?>
<svg width="16px" height="16px" viewBox="0 0 16 16" version="1.1" xmlns="http://www.w3.org/2000/svg" xmlns:xlink="http://www.w3.org/1999/xlink">
    <title>telegram-line</title>
    <g id="页面-1" stroke="none" stroke-width="0" fill="none" fill-rule="evenodd">
        <g id="telegram-line">
            <polygon id="路径" points="0 0 16 0 16 16 0 16"></polygon>
            <path d="M13.3333333,8 C13.3333333,10.9455333 10.9455333,13.3333333 8,13.3333333 C5.05448,13.3333333 2.66666667,10.9455333 2.66666667,8 C2.66666667,5.05448 5.05448,2.66666667 8,2.66666667 C10.9455333,2.66666667 13.3333333,5.05448 13.3333333,8 Z M8,14.6666667 C11.6818667,14.6666667 14.6666667,11.6818667 14.6666667,8 C14.6666667,4.3181 11.6818667,1.33333333 8,1.33333333 C4.3181,1.33333333 1.33333333,4.3181 1.33333333,8 C1.33333333,11.6818667 4.3181,14.6666667 8,14.6666667 Z M8.23893333,6.25497333 C7.59046667,6.52468 6.29453333,7.08293333 4.35106667,7.92966667 C4.03547333,8.05513333 3.87016,8.17793333 3.85510667,8.29793333 C3.82967333,8.50086667 4.08374,8.58073333 4.42972,8.68953333 C4.47678,8.70433333 4.52554667,8.71966667 4.57553333,8.73593333 C4.91592,8.84653333 5.37380667,8.976 5.61184,8.98113333 C5.82776,8.9858 6.06875333,8.8968 6.33481333,8.71406667 C8.15066667,7.48833333 9.088,6.8688 9.14686667,6.85546667 C9.1884,6.846 9.24593333,6.8342 9.28486667,6.8688 C9.32386667,6.90346667 9.32,6.96906667 9.31593333,6.98666667 C9.29073333,7.094 8.2934,8.0212 7.77726667,8.501 C7.6234,8.64406667 7.4734,8.7902 7.3222,8.93593333 C7.006,9.24073333 6.76886667,9.46933333 7.33533333,9.84266667 C7.9096,10.2211333 8.4882,10.5988 9.04826667,10.9980667 C9.32446667,11.195 9.57266667,11.3719333 9.8792,11.3437333 C10.0574,11.3273333 10.2414,11.1598 10.3348,10.6602 C10.5556667,9.47953333 10.9898,6.9214 11.0901333,5.86722 C11.0989333,5.77486667 11.0878667,5.65666667 11.079,5.60478 C11.0701333,5.55289333 11.0515333,5.47896 10.9841333,5.42423333 C10.9042,5.35942 10.7809333,5.34575333 10.7258,5.3466794 C10.475,5.35114667 10.0903333,5.48491333 8.23893333,6.25497333 Z" id="形状" fill="currentColor" fill-rule="nonzero"></path>
        </g>
    </g>
</svg>
