<?xml version="1.0" encoding="UTF-8"?>
<svg width="16px" height="16px" viewBox="0 0 16 16" version="1.1" xmlns="http://www.w3.org/2000/svg" xmlns:xlink="http://www.w3.org/1999/xlink">
    <title>user-3-line</title>
    <g id="页面-1" stroke="none" stroke-width="0" fill="none" fill-rule="evenodd">
        <g id="user-3-line">
            <polygon id="路径" points="0 0 16 0 16 16 0 16"></polygon>
            <path d="M13.3333333,14.6666667 L12,14.6666667 L12,13.3333333 C12,12.2287333 11.1046,11.3333333 10,11.3333333 L6,11.3333333 C4.89543333,11.3333333 4,12.2287333 4,13.3333333 L4,14.6666667 L2.66666667,14.6666667 L2.66666667,13.3333333 C2.66666667,11.4924 4.15905333,10 6,10 L10,10 C11.8409333,10 13.3333333,11.4924 13.3333333,13.3333333 L13.3333333,14.6666667 Z M8,8.66666667 C5.79086,8.66666667 4,6.8758 4,4.66666667 C4,2.45752667 5.79086,0.666666667 8,0.666666667 C10.2091333,0.666666667 12,2.45752667 12,4.66666667 C12,6.8758 10.2091333,8.66666667 8,8.66666667 Z M8,7.33333333 C9.47273333,7.33333333 10.6666667,6.13942667 10.6666667,4.66666667 C10.6666667,3.19390667 9.47273333,2 8,2 C6.52724,2 5.33333333,3.19390667 5.33333333,4.66666667 C5.33333333,6.13942667 6.52724,7.33333333 8,7.33333333 Z" id="形状" fill="currentColor" fill-rule="nonzero"></path>
        </g>
    </g>
</svg>
