<?xml version="1.0" encoding="UTF-8"?>
<svg width="16px" height="16px" viewBox="0 0 16 16" version="1.1" xmlns="http://www.w3.org/2000/svg" xmlns:xlink="http://www.w3.org/1999/xlink">
    <title>user-line</title>
    <g id="页面-1" stroke="none" stroke-width="0" fill="none" fill-rule="evenodd">
        <g id="user-line">
            <polygon id="路径" points="0 0 16 0 16 16 0 16"></polygon>
            <path d="M2.66666667,14.6666667 C2.66666667,11.7211333 5.05448,9.33333333 8,9.33333333 C10.9455333,9.33333333 13.3333333,11.7211333 13.3333333,14.6666667 L12,14.6666667 C12,12.4575333 10.2091333,10.6666667 8,10.6666667 C5.79086,10.6666667 4,12.4575333 4,14.6666667 L2.66666667,14.6666667 Z M8,8.66666667 C5.79,8.66666667 4,6.87666667 4,4.66666667 C4,2.45666667 5.79,0.666666667 8,0.666666667 C10.21,0.666666667 12,2.45666667 12,4.66666667 C12,6.87666667 10.21,8.66666667 8,8.66666667 Z M8,7.33333333 C9.47333333,7.33333333 10.6666667,6.14 10.6666667,4.66666667 C10.6666667,3.19333333 9.47333333,2 8,2 C6.52666667,2 5.33333333,3.19333333 5.33333333,4.66666667 C5.33333333,6.14 6.52666667,7.33333333 8,7.33333333 Z" id="形状" fill="currentColor" fill-rule="nonzero"></path>
        </g>
    </g>
</svg>
