<svg xmlns="http://www.w3.org/2000/svg" width="11.812" height="12.378" viewBox="0 0 11.812 12.378">
  <path id="路径_23797" data-name="路径 23797" d="M186.856,137.433a2,2,0,1,1,.925.785l-1.12,1.155a3.432,3.432,0,0,1,.495,1.367l.015-.015v.076l-1.309.174V140.9a2.083,2.083,0,0,0-.507-1.12,2.12,2.12,0,0,0-3.7,1.271,2.074,2.074,0,0,0,.28,1.2,2.144,2.144,0,0,0,.9.84,2.029,2.029,0,0,0,1.211.189h.076l.174,1.309h-.076a3.051,3.051,0,0,1-.454.03,3.356,3.356,0,0,1-1.634-.414l-.364.389a1.576,1.576,0,1,1-.852-.862l.268-.286a3.438,3.438,0,0,1-.376-.53,3.436,3.436,0,0,1,.393-3.986l-.757-.955a1.465,1.465,0,1,1,1.008-.678l.7.883a3.458,3.458,0,0,1,.509-.22,3.4,3.4,0,0,1,1.983-.068,3.446,3.446,0,0,1,1.2.589l1.012-1.044Zm1.693-1.839a.787.787,0,1,0,.787.787A.791.791,0,0,0,188.549,135.594Zm-3.92,8.3a2.762,2.762,0,1,0,2.762-2.762A2.768,2.768,0,0,0,184.629,143.9Zm1.211,0a1.551,1.551,0,1,1,1.551,1.551A1.553,1.553,0,0,1,185.84,143.9Zm-5.895,1.286a.363.363,0,0,1,.363-.363.363.363,0,1,1-.363.363Zm.257-8.914a.257.257,0,1,0,.257.257A.255.255,0,0,0,180.2,136.267Z" transform="translate(-178.735 -134.376)"  fill-rule="nonzero">
            <rect id="矩形备份" fill-opacity="0" x="0/>
</svg>
