<svg xmlns="http://www.w3.org/2000/svg" width="16" height="16" viewBox="0 0 16 16">
  <g id="组_24170" data-name="组 24170" transform="translate(-627 -263)">
    <g id="路径_23381" data-name="路径 23381" transform="translate(627 263)" fill="#36b342">
      <path d="M 8 15.5 C 3.864490032196045 15.5 0.5 12.13551044464111 0.5 8 C 0.5 3.864490032196045 3.864490032196045 0.5 8 0.5 C 12.13551044464111 0.5 15.5 3.864490032196045 15.5 8 C 15.5 12.13551044464111 12.13551044464111 15.5 8 15.5 Z" stroke="none"/>
      <path d="M 8 1 C 4.140190124511719 1 1 4.140190124511719 1 8 C 1 11.85980987548828 4.140190124511719 15 8 15 C 11.85980987548828 15 15 11.85980987548828 15 8 C 15 4.140190124511719 11.85980987548828 1 8 1 M 8 0 C 12.41827964782715 0 16 3.581720352172852 16 8 C 16 12.41827964782715 12.41827964782715 16 8 16 C 3.581720352172852 16 0 12.41827964782715 0 8 C 0 3.581720352172852 3.581720352172852 0 8 0 Z" stroke="none" fill="#fff"/>
    </g>
    <path id="路径_23380" data-name="路径 23380" d="M122.921,244.239l-4.3,4.3a.818.818,0,0,1-1.139,0l-2.372-2.386a.794.794,0,0,1,0-1.125.81.81,0,0,1,1.139,0l1.816,1.816,3.727-3.727a.8.8,0,0,1,1.125,1.125Z" transform="translate(515.982 25.677)" fill="#fff"/>
  </g>
</svg>
