<svg xmlns="http://www.w3.org/2000/svg" width="16" height="16" viewBox="0 0 16 16">
  <g id="组_24173" data-name="组 24173" transform="translate(-627 -263)">
    <g id="路径_23381" data-name="路径 23381" transform="translate(627 263)" fill="#ff9800">
      <path d="M 8 15.5 C 3.864490032196045 15.5 0.5 12.13551044464111 0.5 8 C 0.5 3.864490032196045 3.864490032196045 0.5 8 0.5 C 12.13551044464111 0.5 15.5 3.864490032196045 15.5 8 C 15.5 12.13551044464111 12.13551044464111 15.5 8 15.5 Z" stroke="none"/>
      <path d="M 8 1 C 4.140190124511719 1 1 4.140190124511719 1 8 C 1 11.85980987548828 4.140190124511719 15 8 15 C 11.85980987548828 15 15 11.85980987548828 15 8 C 15 4.140190124511719 11.85980987548828 1 8 1 M 8 0 C 12.41827964782715 0 16 3.581720352172852 16 8 C 16 12.41827964782715 12.41827964782715 16 8 16 C 3.581720352172852 16 0 12.41827964782715 0 8 C 0 3.581720352172852 3.581720352172852 0 8 0 Z" stroke="none" fill="#fff"/>
    </g>
    <path id="路径_23383" data-name="路径 23383" d="M242.785,65.707v5.505c0,.23-.26.417-.581.417s-.581-.187-.581-.417V65.707c0-.23.26-.417.581-.417S242.785,65.477,242.785,65.707Zm3.6-.417c-.321,0-.581.187-.581.417v5.505c0,.23.26.417.581.417s.581-.187.581-.417V65.707C246.971,65.477,246.711,65.29,246.39,65.29Z" transform="translate(390.703 202.789)" fill="#fff"/>
    <path id="路径_23383_-_轮廓" data-name="路径 23383 - 轮廓" d="M242.2,65.04a.755.755,0,0,1,.831.667v5.505a.852.852,0,0,1-1.663,0V65.707A.755.755,0,0,1,242.2,65.04Zm0,6.339c.2,0,.331-.1.331-.167V65.707c0-.067-.132-.167-.331-.167s-.331.1-.331.167v5.505C241.873,71.279,242,71.379,242.2,71.379Zm4.186-6.339a.755.755,0,0,1,.831.667v5.505a.852.852,0,0,1-1.663,0V65.707A.755.755,0,0,1,246.39,65.04Zm0,6.339c.2,0,.331-.1.331-.167V65.707c0-.067-.132-.167-.331-.167s-.331.1-.331.167v5.505C246.058,71.279,246.19,71.379,246.39,71.379Z" transform="translate(390.703 202.789)" fill="#fff"/>
  </g>
</svg>
