<svg xmlns="http://www.w3.org/2000/svg" width="16" height="16" viewBox="0 0 16 16">
  <g id="组_24175" data-name="组 24175" transform="translate(-953 -261)">
    <g id="组_24177" data-name="组 24177">
      <g id="组_24168" data-name="组 24168" transform="translate(326 -2)">
        <g id="路径_23381" data-name="路径 23381" transform="translate(627 263)" fill="#f43">
          <path d="M 8 15.5 C 3.864490032196045 15.5 0.5 12.13551044464111 0.5 8 C 0.5 3.864490032196045 3.864490032196045 0.5 8 0.5 C 12.13551044464111 0.5 15.5 3.864490032196045 15.5 8 C 15.5 12.13551044464111 12.13551044464111 15.5 8 15.5 Z" stroke="none"/>
          <path d="M 8 1 C 4.140190124511719 1 1 4.140190124511719 1 8 C 1 11.85980987548828 4.140190124511719 15 8 15 C 11.85980987548828 15 15 11.85980987548828 15 8 C 15 4.140190124511719 11.85980987548828 1 8 1 M 8 0 C 12.41827964782715 0 16 3.581720352172852 16 8 C 16 12.41827964782715 12.41827964782715 16 8 16 C 3.581720352172852 16 0 12.41827964782715 0 8 C 0 3.581720352172852 3.581720352172852 0 8 0 Z" stroke="none" fill="#fff"/>
        </g>
      </g>
      <g id="组_24169" data-name="组 24169" transform="translate(946.684 254.684)">
        <path id="路径_23385" data-name="路径 23385" d="M322.669,321.754l2.01-2.01a.647.647,0,0,0-.915-.915l-2.01,2.01-2.01-2.01a.647.647,0,0,0-.915.915l2.01,2.01-2.01,2.01a.647.647,0,0,0,.915.915l2.01-2.01,2.01,2.01a.647.647,0,0,0,.915-.915l-2.01-2.01Z" transform="translate(-307.438 -307.438)" fill="#fff"/>
        <path id="路径_23385_-_轮廓" data-name="路径 23385 - 轮廓" d="M324.222,325.018a.792.792,0,0,1-.563-.233l-1.9-1.9-1.9,1.9a.8.8,0,1,1-1.127-1.127l1.9-1.9-1.9-1.9a.8.8,0,0,1,1.127-1.127l1.9,1.9,1.9-1.9a.8.8,0,1,1,1.127,1.127l-1.9,1.9,1.9,1.9a.8.8,0,0,1-.563,1.36Zm-2.467-2.562,2.116,2.116a.5.5,0,1,0,.7-.7l-1.966-1.966h-.3l2.266-2.266a.5.5,0,0,0-.7-.7l-2.116,2.116-2.116-2.116a.5.5,0,0,0-.7.7l2.116,2.116-2.116,2.116a.5.5,0,0,0,.7.7Z" transform="translate(-307.438 -307.438)" fill="#fff"/>
      </g>
    </g>
  </g>
</svg>
