<svg xmlns="http://www.w3.org/2000/svg" width="11.102" height="11.934" viewBox="0 0 11.102 11.934">
  <path id="路径_23513" data-name="路径 23513" d="M114.928,83h-1.54a.389.389,0,0,0-.389.389v9.159a.389.389,0,0,0,.389.389h.444v-2.98a.944.944,0,0,1,.276-.667l.711-.711a.944.944,0,0,1,.667-.276h4.128a.944.944,0,0,1,.667.276l.711.711a.944.944,0,0,1,.276.667v2.98h.444a.389.389,0,0,0,.389-.389V85.8a.389.389,0,0,0-.114-.275l-1.815-1.815v2.319a.5.5,0,0,1-.5.5h-4.246a.5.5,0,0,1-.5-.5Zm1,0v2.526h3.247V83Zm7.174,2.8v6.751a1.388,1.388,0,0,1-1.388,1.388h-8.326A1.388,1.388,0,0,1,112,92.546V83.388A1.388,1.388,0,0,1,113.388,82h5.918a1.388,1.388,0,0,1,.981.406l2.408,2.408a1.388,1.388,0,0,1,.406.981Zm-3.51,3.5H115.51l-.679.679v2.957h5.44V89.978Zm-1.784-5.53a.5.5,0,0,1,1,0v.9a.5.5,0,1,1-1,0Z" transform="translate(-112 -82)" fill="#fff"/>
</svg>
