<svg xmlns="http://www.w3.org/2000/svg" width="11.404" height="11.804" viewBox="0 0 11.404 11.804">
  <g id="组_24446" data-name="组 24446" transform="translate(-40.006 -34.56)">
    <path id="路径_23509" data-name="路径 23509" d="M44.583,46.364H41.414a1.383,1.383,0,0,1-1.408-1.353v-9.1a1.383,1.383,0,0,1,1.408-1.353H50a1.383,1.383,0,0,1,1.408,1.353v3.794a.57.57,0,1,1-1.14,0V35.913A.248.248,0,0,0,50,35.7H41.414a.248.248,0,0,0-.267.213v9.1a.248.248,0,0,0,.267.213h3.169a.57.57,0,0,1,0,1.14Z" fill="#2666fb"/>
    <path id="路径_23510" data-name="路径 23510" d="M534.177,601.634a.57.57,0,0,1-.4-.973l3.5-3.5a.57.57,0,1,1,.806.806l-3.5,3.5A.569.569,0,0,1,534.177,601.634Z" transform="translate(-487.555 -555.542)" fill="#2666fb"/>
    <path id="路径_23511" data-name="路径 23511" d="M240.484,210.981a.568.568,0,0,1-.4-.167l-3.5-3.5a.57.57,0,1,1,.806-.806l3.5,3.5a.57.57,0,0,1-.4.974Zm-1.7-8.346H233.3a.57.57,0,0,1,0-1.14h5.483a.57.57,0,1,1,0,1.14ZM236.47,204.7H233.3a.57.57,0,0,1,0-1.14h3.172a.57.57,0,0,1,0,1.14Z" transform="translate(-190.361 -164.89)" fill="#2666fb"/>
    <path id="路径_23512" data-name="路径 23512" d="M222.058,553.356h-1.746a.57.57,0,0,1,0-1.14h1.746a.57.57,0,0,1,0,1.14Z" transform="translate(-177.534 -511.314)" fill="#2666fb"/>
  </g>
</svg>
