<svg xmlns="http://www.w3.org/2000/svg" width="11" height="11.324" viewBox="0 0 11 11.324">
  <path id="路径_23503" data-name="路径 23503" d="M152.665,157.1a1.78,1.78,0,0,1,1.712,1.294h6.382v.971h-6.382a1.78,1.78,0,0,1-3.425,0H149.76v-.971h1.193A1.78,1.78,0,0,1,152.665,157.1Zm0,.971a.809.809,0,1,0,.809.809A.809.809,0,0,0,152.665,158.068Zm5.176-4.853a1.78,1.78,0,0,1,1.712,1.294h1.206v.971h-1.206a1.78,1.78,0,0,1-3.425,0H149.76v-.971h6.369A1.78,1.78,0,0,1,157.842,153.215Zm0,.971a.809.809,0,1,0,.809.809A.809.809,0,0,0,157.842,154.186Zm-5.176-4.853a1.78,1.78,0,0,1,1.712,1.294h6.382v.971h-6.382a1.78,1.78,0,0,1-3.425,0H149.76v-.971h1.193A1.78,1.78,0,0,1,152.665,149.333Zm0,.971a.809.809,0,1,0,.809.809A.809.809,0,0,0,152.665,150.3Z" transform="translate(-149.76 -149.333)" fill="#fff"/>
</svg>
