<svg xmlns="http://www.w3.org/2000/svg" width="12.408" height="11.597" viewBox="0 0 12.408 11.597">
  <g id="组_24443" data-name="组 24443" transform="translate(-31.9 -38.3)">
    <path id="路径_23504" data-name="路径 23504" d="M38.165,118.29H33.3a1.2,1.2,0,0,1-1.3-1.136v-7.219a1.2,1.2,0,0,1,1.3-1.136h1.541v.811H33.3c-.243,0-.487.162-.487.324v7.219c0,.162.243.324.487.324h4.867Zm5.191-4.948h-.811v-3.407c0-.162-.243-.324-.487-.324H40.841V108.8h1.217a1.2,1.2,0,0,1,1.3,1.136ZM36.137,108.8h3.488v.73H36.137Z" transform="translate(0 -69.508)" fill="#fff" stroke="#fff" stroke-width="0.2"/>
    <path id="路径_23505" data-name="路径 23505" d="M237.692,40.752a.435.435,0,0,1-.406-.406V38.806a.383.383,0,0,1,.406-.406h.081a.383.383,0,0,1,.406.406v1.541C238.1,40.509,237.936,40.752,237.692,40.752Zm4.7,0a.454.454,0,0,1-.487-.406V38.806a.383.383,0,0,1,.406-.406h.081a.383.383,0,0,1,.406.406v1.541A.435.435,0,0,1,242.4,40.752Zm-5.6,1.622h6.408v.73H236.8Zm0,2.677h3.082v.73H236.8Zm6.165,3.65a2.516,2.516,0,0,1-1.784-.73,2.618,2.618,0,0,1-.649-1.7,2.7,2.7,0,0,1,.73-1.7,2.618,2.618,0,0,1,1.7-.649,2.7,2.7,0,0,1,1.7.73,2.618,2.618,0,0,1,.649,1.7,2.7,2.7,0,0,1-.73,1.7A2.412,2.412,0,0,1,242.965,48.7Zm0-3.975a1.542,1.542,0,0,0-1.054.406,1.473,1.473,0,0,0-.487,1.136,1.938,1.938,0,0,0,.406,1.136,1.641,1.641,0,0,0,2.271.081,1.473,1.473,0,0,0,.487-1.136,1.938,1.938,0,0,0-.406-1.136,1.651,1.651,0,0,0-1.217-.487Zm3.326,4.948a.493.493,0,0,1-.649,0l-.892-.892a.459.459,0,1,1,.649-.649l.892.892A.493.493,0,0,1,246.29,49.675Z" transform="translate(-202.204)" fill="#fff" stroke="#fff" stroke-width="0.2"/>
  </g>
</svg>
