<svg xmlns="http://www.w3.org/2000/svg" width="16" height="16" viewBox="0 0 16 16">
  <g id="组_24172" data-name="组 24172" transform="translate(-725 -261)">
    <g id="组_24176" data-name="组 24176">
      <g id="组_24168" data-name="组 24168" transform="translate(98 -2)">
        <g id="路径_23381" data-name="路径 23381" transform="translate(627 263)" fill="#0091ea">
          <path d="M 8 15.5 C 3.864490032196045 15.5 0.5 12.13551044464111 0.5 8 C 0.5 3.864490032196045 3.864490032196045 0.5 8 0.5 C 12.13551044464111 0.5 15.5 3.864490032196045 15.5 8 C 15.5 12.13551044464111 12.13551044464111 15.5 8 15.5 Z" stroke="none"/>
          <path d="M 8 1 C 4.140190124511719 1 1 4.140190124511719 1 8 C 1 11.85980987548828 4.140190124511719 15 8 15 C 11.85980987548828 15 15 11.85980987548828 15 8 C 15 4.140190124511719 11.85980987548828 1 8 1 M 8 0 C 12.41827964782715 0 16 3.581720352172852 16 8 C 16 12.41827964782715 12.41827964782715 16 8 16 C 3.581720352172852 16 0 12.41827964782715 0 8 C 0 3.581720352172852 3.581720352172852 0 8 0 Z" stroke="none" fill="#fff"/>
        </g>
      </g>
      <path id="路径_23387" data-name="路径 23387" d="M22.45,3.854,21.824,4.91a.005.005,0,0,0,0,0l-.045.077a.455.455,0,0,1-.609.16.618.618,0,0,1-.271-.438l-.012-.047a2.911,2.911,0,0,0-2.022-2.244l.234-.869a3.818,3.818,0,0,1,2.416,2.127l.159-.271a.455.455,0,0,1,.609-.16.429.429,0,0,1,.163.6ZM20.834,5.982l.867.226A3.809,3.809,0,0,1,19.48,8.724l.343.2a.438.438,0,0,1-.438.759L18.25,9.026a.433.433,0,0,1-.2-.266.441.441,0,0,1,.043-.332.773.773,0,0,1,.468-.33L18.7,8.05a2.925,2.925,0,0,0,2.129-2.066ZM17.5,2.346a2.915,2.915,0,0,0-2.3,2.2l-.864-.227a3.813,3.813,0,0,1,2.187-2.6l-.266-.153A.449.449,0,1,1,16.7.786l1.165.673a.447.447,0,0,1,.163.609.686.686,0,0,1-.492.266ZM14.436,5.362a.445.445,0,0,1,.6-.154.422.422,0,0,1,.16.584l-.012.02A2.911,2.911,0,0,0,17.4,8.05l-.231.866a3.818,3.818,0,0,1-2.585-2.093l-.047.076a.443.443,0,0,1-.6.156.421.421,0,0,1-.159-.582Zm0,0" transform="translate(715.127 264.018)" fill="#fff"/>
      <path id="路径_23387_-_轮廓" data-name="路径 23387 - 轮廓" d="M19.6,9.89a.588.588,0,0,1-.294-.079l-1.135-.655a.59.59,0,0,1-.216-.8l0-.008a.919.919,0,0,1,.552-.393l.152-.05a2.776,2.776,0,0,0,2.02-1.96l0-.014.061-.122.118.029,1.014.264-.04.146a3.989,3.989,0,0,1-2.04,2.492l.093.054a.588.588,0,0,1-.295,1.1ZM18.218,8.507a.289.289,0,0,0-.026.215.285.285,0,0,0,.133.175l1.135.655a.288.288,0,1,0,.288-.5L19.142,8.7l.281-.116a3.686,3.686,0,0,0,2.09-2.271l-.577-.151a3.077,3.077,0,0,1-2.19,2.031l-.153.05A.62.62,0,0,0,18.218,8.507Zm-.944.589-.142-.033a3.943,3.943,0,0,1-2.575-1.956.593.593,0,0,1-.7.08.571.571,0,0,1-.214-.789l.66-1.112a.6.6,0,0,1,.8-.208.572.572,0,0,1,.234.758A2.767,2.767,0,0,0,17.431,7.9l.153.034ZM14.6,6.509l.118.25A3.646,3.646,0,0,0,17.06,8.734l.154-.575a3.068,3.068,0,0,1-2.178-2.316l-.012-.056.04-.07a.272.272,0,0,0-.1-.379.3.3,0,0,0-.146-.039.294.294,0,0,0-.252.14L13.906,6.55a.271.271,0,0,0,.1.374.3.3,0,0,0,.146.039.292.292,0,0,0,.251-.141Zm6.791-1.15a.606.606,0,0,1-.294-.076l-.01-.006a.767.767,0,0,1-.335-.535l-.011-.047a2.752,2.752,0,0,0-1.918-2.129l-.139-.042.311-1.158.147.043a3.959,3.959,0,0,1,2.386,1.952l.017-.029a.6.6,0,0,1,.811-.216.579.579,0,0,1,.251.742l0,.014L21.99,4.924v0l-.082.141A.6.6,0,0,1,21.391,5.359Zm-.143-.336a.3.3,0,0,0,.4-.11l.044-.079.592-1,0-.009.034-.057a.279.279,0,0,0-.106-.388.306.306,0,0,0-.149-.039.3.3,0,0,0-.261.146l-.306.522-.118-.269a3.66,3.66,0,0,0-2.174-2l-.156.58a3.05,3.05,0,0,1,1.987,2.311l.014.061A.468.468,0,0,0,21.248,5.023Zm-5.942-.292-1.156-.3.034-.143A3.986,3.986,0,0,1,16.2,1.7l-.017-.01a.6.6,0,0,1-.01-1.049.608.608,0,0,1,.608.013l1.163.672a.6.6,0,0,1,.218.814l-.011.017a.837.837,0,0,1-.582.323l-.041.012a2.766,2.766,0,0,0-2.183,2.088Zm-.792-.518.574.151A3.066,3.066,0,0,1,17.461,2.2l.047-.015h.017a.536.536,0,0,0,.378-.2.3.3,0,0,0-.113-.4L16.621.913a.3.3,0,0,0-.3-.007.3.3,0,0,0,.006.524l0,0,.525.3-.274.119A3.684,3.684,0,0,0,14.514,4.213Z" transform="translate(715.127 264.018)" fill="#fff"/>
    </g>
  </g>
</svg>
